<svg viewBox="0 0 1921 934" fill="none" xmlns="http://www.w3.org/2000/svg">
<path d="M584.199 427.972C578.374 420.137 567.303 418.536 559.502 424.327C552.145 429.777 550.339 439.86 554.938 447.525L0 847.573V851.797L556.982 450.284C559.707 453.316 563.318 455.359 567.439 455.973C568.291 456.109 569.177 456.177 570.062 456.177C573.809 456.177 577.454 454.951 580.554 452.668C588.355 446.878 589.99 435.807 584.199 427.972ZM578.51 449.943C575.444 452.226 571.697 453.145 567.916 452.6C564.169 452.055 560.831 450.045 558.583 447.014C553.882 440.678 555.21 431.753 561.512 427.052C564.067 425.145 567.031 424.259 569.994 424.259C574.354 424.259 578.681 426.235 581.474 430.016C586.141 436.318 584.812 445.276 578.51 449.943Z" fill="#075D46" fill-opacity="0.4"/>
<path d="M471.515 456.927C468.722 453.145 464.6 450.659 459.933 449.977C455.266 449.296 450.6 450.454 446.819 453.282C443.037 456.075 440.551 460.197 439.869 464.863C439.256 468.951 440.176 473.005 442.254 476.513L0 794.297V798.453L444.23 479.273C447.67 483.088 452.507 485.132 457.378 485.132C461.023 485.132 464.702 483.973 467.87 481.657C471.651 478.83 474.138 474.708 474.819 470.041C475.501 465.374 474.342 460.708 471.515 456.927ZM471.447 469.53C470.902 473.311 468.892 476.65 465.826 478.898C459.524 483.599 450.6 482.27 445.899 475.968C443.617 472.903 442.697 469.155 443.242 465.374C443.787 461.593 445.797 458.289 448.862 456.007C451.349 454.167 454.279 453.214 457.31 453.214C458.026 453.214 458.741 453.248 459.422 453.35C463.203 453.895 466.508 455.905 468.79 458.97C471.072 462.002 471.992 465.783 471.447 469.53Z" fill="#075D46" fill-opacity="0.4"/>
<path d="M441.641 697.794C435.85 689.959 424.745 688.324 416.945 694.149C409.587 699.599 407.781 709.682 412.38 717.346L111.901 931.78H117.794L414.356 720.14C417.796 723.955 422.599 725.965 427.47 725.965C431.149 725.965 434.828 724.841 437.996 722.49C445.797 716.699 447.432 705.628 441.641 697.794ZM435.952 719.765C429.651 724.466 420.692 723.137 416.025 716.836C411.324 710.5 412.653 701.575 418.954 696.874C421.509 694.966 424.473 694.081 427.436 694.081C431.797 694.081 436.123 696.056 438.916 699.838C443.583 706.139 442.254 715.098 435.952 719.765Z" fill="#075D46" fill-opacity="0.4"/>
<path d="M558.174 854.761C552.383 846.926 541.278 845.291 533.478 851.116C529.697 853.909 527.21 858.031 526.529 862.697C525.916 866.785 526.835 870.839 528.913 874.313L448.386 931.779H454.313L530.957 877.072C533.682 880.104 537.293 882.148 541.415 882.761C542.3 882.897 543.152 882.966 544.038 882.966C547.785 882.966 551.43 881.773 554.529 879.457C558.31 876.664 560.763 872.542 561.478 867.875C562.16 863.208 561.002 858.542 558.174 854.761ZM558.106 867.364C557.527 871.145 555.551 874.484 552.486 876.732C549.42 879.014 545.673 879.968 541.926 879.389C538.145 878.844 534.806 876.834 532.558 873.802C530.276 870.737 529.322 866.989 529.901 863.208C530.446 859.427 532.456 856.123 535.488 853.841C538.042 851.967 541.04 851.047 543.97 851.047C548.33 851.047 552.656 853.023 555.449 856.804C557.697 859.836 558.651 863.617 558.106 867.364Z" fill="#075D46" fill-opacity="0.4"/>
<path d="M635.84 638.079C633.013 634.298 628.891 631.846 624.224 631.164C619.591 630.449 614.925 631.607 611.144 634.434C603.786 639.885 601.98 649.968 606.579 657.666L225.368 931.78H231.227L608.623 660.391C611.348 663.457 614.959 665.501 619.081 666.08C619.966 666.216 620.818 666.284 621.703 666.284C625.45 666.284 629.095 665.092 632.195 662.81C635.976 659.983 638.429 655.861 639.144 651.194C639.826 646.527 638.667 641.894 635.84 638.079ZM635.772 650.717C635.193 654.464 633.217 657.802 630.151 660.051C627.086 662.333 623.339 663.287 619.557 662.708C615.81 662.163 612.472 660.187 610.224 657.121C605.523 650.819 606.852 641.86 613.153 637.16C615.64 635.32 618.604 634.366 621.635 634.366C622.317 634.366 623.032 634.4 623.747 634.503C627.494 635.082 630.833 637.057 633.115 640.123C635.363 643.189 636.317 646.936 635.772 650.717Z" fill="#075D46" fill-opacity="0.4"/>
<path d="M239.573 425.622C236.745 421.841 232.658 419.354 227.991 418.673C223.324 417.991 218.657 419.15 214.876 421.977C211.061 424.77 208.608 428.892 207.927 433.559C207.314 437.646 208.2 441.7 210.312 445.175L0 595.261V599.485L212.287 447.968C215.728 451.783 220.531 453.793 225.402 453.793C229.081 453.793 232.76 452.669 235.928 450.318C239.709 447.525 242.162 443.403 242.877 438.737C243.558 434.07 242.4 429.403 239.573 425.622ZM239.505 438.226C238.925 442.007 236.95 445.311 233.884 447.593C227.582 452.294 218.623 450.966 213.956 444.664C211.674 441.598 210.72 437.817 211.299 434.07C211.845 430.289 213.854 426.984 216.886 424.702C219.373 422.863 222.336 421.875 225.368 421.875C226.083 421.875 226.765 421.943 227.48 422.045C231.227 422.59 234.565 424.6 236.848 427.666C239.096 430.697 240.05 434.479 239.505 438.226Z" fill="#075D46" fill-opacity="0.4"/>
<path d="M112.105 177.567C109.312 173.786 105.19 171.333 100.523 170.652C95.8563 169.937 91.1895 171.129 87.4084 173.922C83.6273 176.749 81.1406 180.871 80.4594 185.538C79.8462 189.626 80.7659 193.645 82.8438 197.154L0 256.289V260.445L84.8196 199.913C88.26 203.728 93.0631 205.772 97.9683 205.772C101.613 205.772 105.292 204.648 108.46 202.298C112.241 199.47 114.728 195.348 115.409 190.682C116.09 186.015 114.932 181.382 112.105 177.567ZM112.037 190.205C111.492 193.952 109.482 197.29 106.416 199.572C100.114 204.239 91.1555 202.911 86.4887 196.609C84.2064 193.543 83.2867 189.796 83.8317 186.015C84.3767 182.268 86.3865 178.93 89.4182 176.681C91.9049 174.808 94.8685 173.854 97.9002 173.854C98.6155 173.854 99.2968 173.888 100.012 174.024C103.793 174.569 107.097 176.545 109.38 179.611C111.662 182.677 112.582 186.424 112.037 190.205Z" fill="#075D46" fill-opacity="0.4"/>
<path d="M352.904 257.005C350.111 253.224 345.989 250.737 341.322 250.056C336.655 249.374 331.989 250.532 328.207 253.36C324.426 256.153 321.94 260.275 321.258 264.942C320.645 269.029 321.565 273.083 323.643 276.557L0 509.283V513.507L325.619 279.351C329.059 283.166 333.862 285.176 338.767 285.176C342.412 285.176 346.091 284.052 349.259 281.701C353.04 278.908 355.527 274.786 356.208 270.119C356.889 265.453 355.731 260.786 352.904 257.005ZM352.836 269.608C352.291 273.389 350.281 276.694 347.215 278.976C340.913 283.677 331.954 282.348 327.288 276.046C325.005 272.981 324.052 269.2 324.631 265.453C325.176 261.671 327.185 258.367 330.217 256.085C332.704 254.245 335.667 253.258 338.699 253.258C339.414 253.258 340.096 253.326 340.811 253.428C344.592 253.973 347.896 255.983 350.179 259.014C352.461 262.08 353.381 265.861 352.836 269.608Z" fill="#075D46" fill-opacity="0.4"/>
<path d="M371.605 168.404C365.78 160.569 354.709 158.934 346.875 164.725C339.551 170.175 337.745 180.258 342.344 187.957L0 434.649V438.839L344.32 190.75C347.76 194.565 352.563 196.575 357.434 196.575C361.113 196.575 364.792 195.451 367.96 193.1C375.761 187.309 377.396 176.205 371.605 168.404ZM365.916 190.375C359.614 195.042 350.656 193.714 345.989 187.412C341.288 181.11 342.617 172.151 348.918 167.484C355.22 162.783 364.179 164.112 368.88 170.414C373.547 176.716 372.218 185.674 365.916 190.375Z" fill="#075D46" fill-opacity="0.4"/>
<path d="M545.264 556.258C539.473 548.423 528.368 546.788 520.567 552.613C516.786 555.406 514.299 559.528 513.618 564.194V564.229L473.865 562.287L0 902.417V906.641L474.887 565.761L513.448 567.635C513.618 571.11 514.776 574.448 516.922 577.309C520.363 581.976 525.711 584.429 531.093 584.429C534.772 584.429 538.451 583.304 541.619 580.954C549.42 575.163 551.089 564.092 545.264 556.258ZM539.575 578.229C533.273 582.93 524.314 581.601 519.648 575.299C517.365 572.234 516.411 568.452 516.991 564.705C517.536 560.924 519.545 557.62 522.577 555.338C525.132 553.43 528.129 552.545 531.059 552.545C535.419 552.545 539.745 554.52 542.539 558.301C547.205 564.603 545.911 573.562 539.575 578.229Z" fill="#075D46" fill-opacity="0.4"/>
<path d="M679.442 536.16C676.615 532.379 672.493 529.892 667.826 529.211C663.159 528.53 658.493 529.688 654.712 532.515C647.354 537.965 645.548 548.048 650.181 555.747L514.231 656.679L431.217 644.416L430.536 644.313L28.75 931.78H34.609L431.387 647.89L515.117 660.255L652.157 558.54C655.597 562.321 660.4 564.331 665.271 564.331C668.916 564.331 672.629 563.207 675.763 560.89C683.598 555.065 685.233 543.995 679.442 536.16ZM673.753 558.131C667.451 562.832 658.493 561.504 653.792 555.202C649.125 548.866 650.419 539.941 656.755 535.24C659.242 533.401 662.172 532.447 665.203 532.447C665.919 532.447 666.634 532.481 667.315 532.583C671.096 533.128 674.435 535.138 676.683 538.204C681.384 544.506 680.055 553.464 673.753 558.131Z" fill="#075D46" fill-opacity="0.4"/>
<path d="M781.702 673.915C778.875 670.134 774.753 667.647 770.086 666.966C765.42 666.284 760.787 667.443 756.972 670.27C749.648 675.72 747.843 685.803 752.441 693.502L616.491 794.433L533.477 782.17L532.796 782.068L323.54 931.78H329.399L533.648 785.645L617.411 798.01L754.417 696.261C757.857 700.076 762.66 702.086 767.532 702.086C771.211 702.086 774.889 700.962 778.057 698.611C785.858 692.82 787.493 681.715 781.702 673.915ZM776.014 695.886C769.712 700.587 760.753 699.258 756.052 692.957C751.385 686.621 752.714 677.696 759.016 672.995C761.502 671.156 764.432 670.168 767.497 670.168C768.179 670.168 768.894 670.236 769.609 670.338C773.356 670.883 776.695 672.893 778.943 675.959C783.644 682.26 782.315 691.185 776.014 695.886Z" fill="#075D46" fill-opacity="0.4"/>
<path d="M421.509 389.582C415.718 381.748 404.613 380.112 396.812 385.937C393.031 388.731 390.545 392.852 389.863 397.519C389.182 402.186 390.34 406.853 393.168 410.634C395.314 413.563 398.243 415.607 401.445 416.731L392.078 454.168L0 735.639V739.829L394.564 456.586L395.075 456.212L404.749 417.549C405.601 417.685 406.487 417.753 407.372 417.753C411.017 417.753 414.73 416.629 417.864 414.279C425.699 408.488 427.334 397.383 421.509 389.582ZM415.854 411.554C409.518 416.254 400.594 414.926 395.893 408.624C393.61 405.558 392.691 401.777 393.236 398.03C393.781 394.249 395.791 390.945 398.856 388.663C401.377 386.755 404.375 385.869 407.338 385.869C411.698 385.869 415.991 387.845 418.784 391.592C423.485 397.928 422.156 406.853 415.854 411.554Z" fill="#075D46" fill-opacity="0.4"/>
<path d="M225.198 160.535C219.373 152.734 208.302 151.099 200.467 156.89C196.686 159.717 194.233 163.839 193.518 168.506C192.837 173.172 193.995 177.805 196.822 181.62C198.934 184.482 201.83 186.56 205.1 187.718L195.732 225.154L0 365.669V369.858L198.253 227.539L198.73 227.198L208.404 188.535C209.29 188.672 210.175 188.74 211.027 188.74C214.808 188.74 218.453 187.548 221.519 185.265C229.353 179.44 230.989 168.369 225.198 160.535ZM219.509 182.54C216.443 184.788 212.696 185.742 208.915 185.197C205.168 184.618 201.83 182.642 199.547 179.577C197.299 176.511 196.345 172.764 196.89 168.983C197.469 165.236 199.445 161.897 202.511 159.649C205.066 157.741 208.029 156.822 210.993 156.822C215.353 156.822 219.645 158.832 222.438 162.579C227.139 168.88 225.811 177.839 219.509 182.54Z" fill="#075D46" fill-opacity="0.4"/>
<path d="M470.118 254.245C467.325 250.464 463.203 248.012 458.537 247.296C453.904 246.615 449.203 247.773 445.422 250.601C441.641 253.428 439.154 257.516 438.473 262.182C437.86 266.304 438.779 270.358 440.891 273.832L307.02 373.231L292.44 460.64L0 669.861V674.051L294.995 462.99L295.54 462.581L310.153 375.139L442.867 276.625C446.308 280.407 451.111 282.45 455.982 282.45C459.627 282.45 463.306 281.292 466.474 278.976C470.255 276.149 472.741 272.027 473.423 267.36C474.104 262.693 472.946 258.027 470.118 254.245ZM470.05 266.883C469.505 270.63 467.495 273.968 464.464 276.217C458.128 280.918 449.203 279.589 444.502 273.287C442.22 270.221 441.3 266.474 441.845 262.693C442.39 258.946 444.4 255.608 447.466 253.326C449.952 251.486 452.882 250.532 455.914 250.532C456.629 250.532 457.344 250.566 458.026 250.669C461.807 251.248 465.111 253.223 467.393 256.289C469.676 259.355 470.595 263.102 470.05 266.883Z" fill="#075D46" fill-opacity="0.4"/>
<path d="M584.199 427.972C578.374 420.137 567.303 418.536 559.502 424.327C552.145 429.777 550.339 439.86 554.938 447.525L0 847.573V851.797L556.982 450.284C559.707 453.316 563.318 455.359 567.439 455.973C568.291 456.109 569.177 456.177 570.062 456.177C573.809 456.177 577.454 454.951 580.554 452.668C588.355 446.878 589.99 435.807 584.199 427.972ZM578.51 449.943C575.444 452.226 571.697 453.145 567.916 452.6C564.169 452.055 560.831 450.045 558.583 447.014C553.882 440.678 555.21 431.753 561.512 427.052C564.067 425.145 567.031 424.259 569.994 424.259C574.354 424.259 578.681 426.235 581.474 430.016C586.141 436.318 584.812 445.276 578.51 449.943Z" fill="#075D46" fill-opacity="0.4"/>
<path d="M471.515 456.927C468.722 453.145 464.6 450.659 459.933 449.977C455.266 449.296 450.6 450.454 446.819 453.282C443.037 456.075 440.551 460.197 439.869 464.863C439.256 468.951 440.176 473.005 442.254 476.513L0 794.297V798.453L444.23 479.273C447.67 483.088 452.507 485.132 457.378 485.132C461.023 485.132 464.702 483.973 467.87 481.657C471.651 478.83 474.138 474.708 474.819 470.041C475.501 465.374 474.342 460.708 471.515 456.927ZM471.447 469.53C470.902 473.311 468.892 476.65 465.826 478.898C459.524 483.599 450.6 482.27 445.899 475.968C443.617 472.903 442.697 469.155 443.242 465.374C443.787 461.593 445.797 458.289 448.862 456.007C451.349 454.167 454.279 453.214 457.31 453.214C458.026 453.214 458.741 453.248 459.422 453.35C463.203 453.895 466.508 455.905 468.79 458.97C471.072 462.002 471.992 465.783 471.447 469.53Z" fill="#075D46" fill-opacity="0.4"/>
<path d="M441.641 697.794C435.85 689.959 424.745 688.324 416.945 694.149C409.587 699.599 407.781 709.682 412.38 717.346L111.901 931.78H117.794L414.356 720.14C417.796 723.955 422.599 725.965 427.47 725.965C431.149 725.965 434.828 724.841 437.996 722.49C445.797 716.699 447.432 705.628 441.641 697.794ZM435.952 719.765C429.651 724.466 420.692 723.137 416.025 716.836C411.324 710.5 412.653 701.575 418.954 696.874C421.509 694.966 424.473 694.081 427.436 694.081C431.797 694.081 436.123 696.056 438.916 699.838C443.583 706.139 442.254 715.098 435.952 719.765Z" fill="#075D46" fill-opacity="0.4"/>
<path d="M558.174 854.761C552.383 846.926 541.278 845.291 533.478 851.116C529.697 853.909 527.21 858.031 526.529 862.697C525.916 866.785 526.835 870.839 528.913 874.313L448.386 931.779H454.313L530.957 877.072C533.682 880.104 537.293 882.148 541.415 882.761C542.3 882.897 543.152 882.966 544.038 882.966C547.785 882.966 551.43 881.773 554.529 879.457C558.31 876.664 560.763 872.542 561.478 867.875C562.16 863.208 561.002 858.542 558.174 854.761ZM558.106 867.364C557.527 871.145 555.551 874.484 552.486 876.732C549.42 879.014 545.673 879.968 541.926 879.389C538.145 878.844 534.806 876.834 532.558 873.802C530.276 870.737 529.322 866.989 529.901 863.208C530.446 859.427 532.456 856.123 535.488 853.841C538.042 851.967 541.04 851.047 543.97 851.047C548.33 851.047 552.656 853.023 555.449 856.804C557.697 859.836 558.651 863.617 558.106 867.364Z" fill="#075D46" fill-opacity="0.4"/>
<path d="M635.84 638.079C633.013 634.298 628.891 631.846 624.224 631.164C619.591 630.449 614.925 631.607 611.144 634.434C603.786 639.885 601.98 649.968 606.579 657.666L225.368 931.78H231.227L608.623 660.391C611.348 663.457 614.959 665.501 619.081 666.08C619.966 666.216 620.818 666.284 621.703 666.284C625.45 666.284 629.095 665.092 632.195 662.81C635.976 659.983 638.429 655.861 639.144 651.194C639.826 646.527 638.667 641.894 635.84 638.079ZM635.772 650.717C635.193 654.464 633.217 657.802 630.151 660.051C627.086 662.333 623.339 663.287 619.557 662.708C615.81 662.163 612.472 660.187 610.224 657.121C605.523 650.819 606.852 641.86 613.153 637.16C615.64 635.32 618.604 634.366 621.635 634.366C622.317 634.366 623.032 634.4 623.747 634.503C627.494 635.082 630.833 637.057 633.115 640.123C635.363 643.189 636.317 646.936 635.772 650.717Z" fill="#075D46" fill-opacity="0.4"/>
<path d="M239.573 425.622C236.745 421.841 232.658 419.354 227.991 418.673C223.324 417.991 218.657 419.15 214.876 421.977C211.061 424.77 208.608 428.892 207.927 433.559C207.314 437.646 208.2 441.7 210.312 445.175L0 595.261V599.485L212.287 447.968C215.728 451.783 220.531 453.793 225.402 453.793C229.081 453.793 232.76 452.669 235.928 450.318C239.709 447.525 242.162 443.403 242.877 438.737C243.558 434.07 242.4 429.403 239.573 425.622ZM239.505 438.226C238.925 442.007 236.95 445.311 233.884 447.593C227.582 452.294 218.623 450.966 213.956 444.664C211.674 441.598 210.72 437.817 211.299 434.07C211.845 430.289 213.854 426.984 216.886 424.702C219.373 422.863 222.336 421.875 225.368 421.875C226.083 421.875 226.765 421.943 227.48 422.045C231.227 422.59 234.565 424.6 236.848 427.666C239.096 430.697 240.05 434.479 239.505 438.226Z" fill="#075D46" fill-opacity="0.4"/>
<path d="M112.105 177.567C109.312 173.786 105.19 171.333 100.523 170.652C95.8563 169.937 91.1895 171.129 87.4084 173.922C83.6273 176.749 81.1406 180.871 80.4594 185.538C79.8462 189.626 80.7659 193.645 82.8438 197.154L0 256.289V260.445L84.8196 199.913C88.26 203.728 93.0631 205.772 97.9683 205.772C101.613 205.772 105.292 204.648 108.46 202.298C112.241 199.47 114.728 195.348 115.409 190.682C116.09 186.015 114.932 181.382 112.105 177.567ZM112.037 190.205C111.492 193.952 109.482 197.29 106.416 199.572C100.114 204.239 91.1555 202.911 86.4887 196.609C84.2064 193.543 83.2867 189.796 83.8317 186.015C84.3767 182.268 86.3865 178.93 89.4182 176.681C91.9049 174.808 94.8685 173.854 97.9002 173.854C98.6155 173.854 99.2968 173.888 100.012 174.024C103.793 174.569 107.097 176.545 109.38 179.611C111.662 182.677 112.582 186.424 112.037 190.205Z" fill="#075D46" fill-opacity="0.4"/>
<path d="M352.904 257.005C350.111 253.224 345.989 250.737 341.322 250.056C336.655 249.374 331.989 250.532 328.207 253.36C324.426 256.153 321.94 260.275 321.258 264.942C320.645 269.029 321.565 273.083 323.643 276.557L0 509.283V513.507L325.619 279.351C329.059 283.166 333.862 285.176 338.767 285.176C342.412 285.176 346.091 284.052 349.259 281.701C353.04 278.908 355.527 274.786 356.208 270.119C356.889 265.453 355.731 260.786 352.904 257.005ZM352.836 269.608C352.291 273.389 350.281 276.694 347.215 278.976C340.913 283.677 331.954 282.348 327.288 276.046C325.005 272.981 324.052 269.2 324.631 265.453C325.176 261.671 327.185 258.367 330.217 256.085C332.704 254.245 335.667 253.258 338.699 253.258C339.414 253.258 340.096 253.326 340.811 253.428C344.592 253.973 347.896 255.983 350.179 259.014C352.461 262.08 353.381 265.861 352.836 269.608Z" fill="#075D46" fill-opacity="0.4"/>
<path d="M371.605 168.404C365.78 160.569 354.709 158.934 346.875 164.725C339.551 170.175 337.745 180.258 342.344 187.957L0 434.649V438.839L344.32 190.75C347.76 194.565 352.563 196.575 357.434 196.575C361.113 196.575 364.792 195.451 367.96 193.1C375.761 187.309 377.396 176.205 371.605 168.404ZM365.916 190.375C359.614 195.042 350.656 193.714 345.989 187.412C341.288 181.11 342.617 172.151 348.918 167.484C355.22 162.783 364.179 164.112 368.88 170.414C373.547 176.716 372.218 185.674 365.916 190.375Z" fill="#075D46" fill-opacity="0.4"/>
<path d="M180.471 56.6735C174.647 48.8388 163.576 47.2037 155.741 52.9946C148.417 58.4448 146.612 68.5278 151.21 76.2262L0 185.197V189.387L153.186 79.0195C156.627 82.8347 161.43 84.8445 166.301 84.8445C169.98 84.8445 173.659 83.7204 176.827 81.37C184.627 75.5791 186.262 64.4742 180.471 56.6735ZM174.783 78.6448C168.481 83.3116 159.522 81.9831 154.855 75.6812C150.154 69.3794 151.483 60.4205 157.785 55.7538C164.087 51.0529 173.046 52.3814 177.746 58.6833C182.413 64.9851 181.085 73.944 174.783 78.6448Z" fill="#075D46" fill-opacity="0.4"/>
<path d="M545.264 556.258C539.473 548.423 528.368 546.788 520.567 552.613C516.786 555.406 514.299 559.528 513.618 564.194V564.229L473.865 562.287L0 902.417V906.641L474.887 565.761L513.448 567.635C513.618 571.11 514.776 574.448 516.922 577.309C520.363 581.976 525.711 584.429 531.093 584.429C534.772 584.429 538.451 583.304 541.619 580.954C549.42 575.163 551.089 564.092 545.264 556.258ZM539.575 578.229C533.273 582.93 524.314 581.601 519.648 575.299C517.365 572.234 516.411 568.452 516.991 564.705C517.536 560.924 519.545 557.62 522.577 555.338C525.132 553.43 528.129 552.545 531.059 552.545C535.419 552.545 539.745 554.52 542.539 558.301C547.205 564.603 545.911 573.562 539.575 578.229Z" fill="#075D46" fill-opacity="0.4"/>
<path d="M679.442 536.16C676.615 532.379 672.493 529.892 667.826 529.211C663.159 528.53 658.493 529.688 654.712 532.515C647.354 537.965 645.548 548.048 650.181 555.747L514.231 656.679L431.217 644.416L430.536 644.313L28.75 931.78H34.609L431.387 647.89L515.117 660.255L652.157 558.54C655.597 562.321 660.4 564.331 665.271 564.331C668.916 564.331 672.629 563.207 675.763 560.89C683.598 555.065 685.233 543.995 679.442 536.16ZM673.753 558.131C667.451 562.832 658.493 561.504 653.792 555.202C649.125 548.866 650.419 539.941 656.755 535.24C659.242 533.401 662.172 532.447 665.203 532.447C665.919 532.447 666.634 532.481 667.315 532.583C671.096 533.128 674.435 535.138 676.683 538.204C681.384 544.506 680.055 553.464 673.753 558.131Z" fill="#075D46" fill-opacity="0.4"/>
<path d="M781.702 673.915C778.875 670.134 774.753 667.647 770.086 666.966C765.42 666.284 760.787 667.443 756.972 670.27C749.648 675.72 747.843 685.803 752.441 693.502L616.491 794.433L533.477 782.17L532.796 782.068L323.54 931.78H329.399L533.648 785.645L617.411 798.01L754.417 696.261C757.857 700.076 762.66 702.086 767.532 702.086C771.211 702.086 774.889 700.962 778.057 698.611C785.858 692.82 787.493 681.715 781.702 673.915ZM776.014 695.886C769.712 700.587 760.753 699.258 756.052 692.957C751.385 686.621 752.714 677.696 759.016 672.995C761.502 671.156 764.432 670.168 767.497 670.168C768.179 670.168 768.894 670.236 769.609 670.338C773.356 670.883 776.695 672.893 778.943 675.959C783.644 682.26 782.315 691.185 776.014 695.886Z" fill="#075D46" fill-opacity="0.4"/>
<path d="M421.509 389.582C415.718 381.748 404.613 380.112 396.812 385.937C393.031 388.731 390.545 392.852 389.863 397.519C389.182 402.186 390.34 406.853 393.168 410.634C395.314 413.563 398.243 415.607 401.445 416.731L392.078 454.168L0 735.639V739.829L394.564 456.586L395.075 456.212L404.749 417.549C405.601 417.685 406.487 417.753 407.372 417.753C411.017 417.753 414.73 416.629 417.864 414.279C425.699 408.488 427.334 397.383 421.509 389.582ZM415.854 411.554C409.518 416.254 400.594 414.926 395.893 408.624C393.61 405.558 392.691 401.777 393.236 398.03C393.781 394.249 395.791 390.945 398.856 388.663C401.377 386.755 404.375 385.869 407.338 385.869C411.698 385.869 415.991 387.845 418.784 391.592C423.485 397.928 422.156 406.853 415.854 411.554Z" fill="#075D46" fill-opacity="0.4"/>
<path d="M225.198 160.535C219.373 152.734 208.302 151.099 200.467 156.89C196.686 159.717 194.233 163.839 193.518 168.506C192.837 173.172 193.995 177.805 196.822 181.62C198.934 184.482 201.83 186.56 205.1 187.718L195.732 225.154L0 365.669V369.858L198.253 227.539L198.73 227.198L208.404 188.535C209.29 188.672 210.175 188.74 211.027 188.74C214.808 188.74 218.453 187.548 221.519 185.265C229.353 179.44 230.989 168.369 225.198 160.535ZM219.509 182.54C216.443 184.788 212.696 185.742 208.915 185.197C205.168 184.618 201.83 182.642 199.547 179.577C197.299 176.511 196.345 172.764 196.89 168.983C197.469 165.236 199.445 161.897 202.511 159.649C205.066 157.741 208.029 156.822 210.993 156.822C215.353 156.822 219.645 158.832 222.438 162.579C227.139 168.88 225.811 177.839 219.509 182.54Z" fill="#075D46" fill-opacity="0.4"/>
<path d="M88.9413 7.11042C83.1164 -0.690257 72.0455 -2.32533 64.2108 3.46556C60.4297 6.29288 57.9771 10.4146 57.2617 15.0814C56.5804 19.7482 57.7386 24.3809 60.5659 28.1961C62.6779 31.0575 65.5733 33.1354 68.8435 34.2935L59.4759 71.73L0 114.412V118.636L61.9966 74.1144L62.4735 73.7738L72.1477 35.1111C73.0334 35.2473 73.9191 35.3155 74.7707 35.3155C78.5518 35.3155 82.1966 34.1232 85.2624 31.8409C93.0971 26.016 94.7322 14.9452 88.9413 7.11042ZM83.2526 29.1158C80.1868 31.364 76.4398 32.3178 72.6587 31.7728C68.9116 31.1937 65.5734 29.218 63.2911 26.1522C61.0428 23.0865 60.089 19.3394 60.6341 15.5583C61.2131 11.8112 63.1889 8.47295 66.2546 6.22472C68.8094 4.31713 71.773 3.39742 74.7366 3.39742C79.0968 3.39742 83.3889 5.40718 86.1821 9.15423C90.883 15.4561 89.5545 24.4149 83.2526 29.1158Z" fill="#075D46" fill-opacity="0.4"/>
<path d="M749.342 872.611C743.517 864.776 732.446 863.141 724.612 868.932C717.288 874.382 715.482 884.465 720.081 892.163L665.102 931.78H670.961L722.057 894.957C725.497 898.772 730.3 900.781 735.171 900.781C738.85 900.781 742.529 899.657 745.697 897.307C753.498 891.516 755.133 880.411 749.342 872.611ZM743.653 894.582C737.351 899.249 728.393 897.92 723.726 891.618C719.025 885.316 720.354 876.358 726.655 871.691C732.957 866.99 741.916 868.318 746.617 874.62C751.284 880.922 749.955 889.881 743.653 894.582Z" fill="#075D46" fill-opacity="0.4"/>
<path d="M865.534 891.244C859.709 883.409 848.639 881.774 840.804 887.565C833.48 893.015 831.675 903.098 836.273 910.797L807.148 931.78H813.007L838.249 913.59C841.689 917.405 846.492 919.415 851.364 919.415C855.043 919.415 858.721 918.291 861.889 915.94C869.69 910.149 871.325 899.045 865.534 891.244ZM859.846 913.215C853.544 917.882 844.585 916.553 839.918 910.252C835.217 903.95 836.546 894.991 842.848 890.324C849.149 885.623 858.108 886.952 862.809 893.254C867.476 899.555 866.147 908.514 859.846 913.215Z" fill="#075D46" fill-opacity="0.4"/>
<path d="M657.811 823.082C651.986 815.281 640.915 813.646 633.08 819.437C629.299 822.264 626.846 826.386 626.131 831.053C625.45 835.719 626.608 840.352 629.435 844.167C631.547 847.029 634.443 849.107 637.713 850.265L628.345 887.701L566.928 931.78H572.787L630.866 890.086L631.343 889.745L641.017 851.082C641.903 851.219 642.788 851.287 643.64 851.287C647.421 851.287 651.066 850.094 654.132 847.812C661.967 841.987 663.602 830.916 657.811 823.082ZM652.122 845.087C649.056 847.335 645.309 848.289 641.528 847.744C637.781 847.165 634.443 845.189 632.16 842.123C629.912 839.058 628.958 835.311 629.503 831.53C630.083 827.783 632.058 824.444 635.124 822.196C637.679 820.288 640.642 819.369 643.606 819.369C647.966 819.369 652.258 821.378 655.052 825.125C659.752 831.427 658.424 840.386 652.122 845.087Z" fill="#075D46" fill-opacity="0.4"/>
<path d="M470.118 254.245C467.325 250.464 463.203 248.012 458.537 247.296C453.904 246.615 449.203 247.773 445.422 250.601C441.641 253.428 439.154 257.516 438.473 262.182C437.86 266.304 438.779 270.358 440.891 273.832L307.02 373.231L292.44 460.64L0 669.861V674.051L294.995 462.99L295.54 462.581L310.153 375.139L442.867 276.625C446.308 280.407 451.111 282.45 455.982 282.45C459.627 282.45 463.306 281.292 466.474 278.976C470.255 276.149 472.741 272.027 473.423 267.36C474.104 262.693 472.946 258.027 470.118 254.245ZM470.05 266.883C469.505 270.63 467.495 273.968 464.464 276.217C458.128 280.918 449.203 279.589 444.502 273.287C442.22 270.221 441.3 266.474 441.845 262.693C442.39 258.946 444.4 255.608 447.466 253.326C449.952 251.486 452.882 250.532 455.914 250.532C456.629 250.532 457.344 250.566 458.026 250.669C461.807 251.248 465.111 253.223 467.393 256.289C469.676 259.355 470.595 263.102 470.05 266.883Z" fill="#075D46" fill-opacity="0.4"/>
<path d="M1335.17 505.441C1341.01 513.286 1352.09 514.889 1359.9 509.09C1367.27 503.633 1369.08 493.537 1364.47 485.862L1920.14 85.29V81.0605L1362.43 483.1C1359.7 480.064 1356.08 478.017 1351.96 477.403C1351.1 477.267 1350.22 477.199 1349.33 477.199C1345.58 477.199 1341.93 478.427 1338.82 480.712C1331.01 486.51 1329.38 497.596 1335.17 505.441ZM1340.87 483.441C1343.94 481.155 1347.69 480.234 1351.48 480.78C1355.23 481.326 1358.57 483.338 1360.82 486.374C1365.53 492.718 1364.2 501.655 1357.89 506.362C1355.33 508.272 1352.36 509.159 1349.4 509.159C1345.03 509.159 1340.7 507.18 1337.9 503.394C1333.23 497.084 1334.56 488.114 1340.87 483.441Z" fill="#075D46" fill-opacity="0.4"/>
<path d="M1448.01 476.449C1450.8 480.235 1454.93 482.725 1459.6 483.407C1464.28 484.089 1468.95 482.929 1472.73 480.098C1476.52 477.301 1479.01 473.174 1479.69 468.501C1480.31 464.408 1479.39 460.349 1477.3 456.836L1920.14 138.636V134.475L1475.33 454.073C1471.88 450.253 1467.04 448.207 1462.16 448.207C1458.51 448.207 1454.83 449.366 1451.65 451.686C1447.87 454.517 1445.38 458.644 1444.7 463.317C1444.01 467.99 1445.17 472.663 1448.01 476.449ZM1448.07 463.829C1448.62 460.042 1450.63 456.7 1453.7 454.449C1460.01 449.742 1468.95 451.072 1473.65 457.382C1475.94 460.452 1476.86 464.204 1476.32 467.99C1475.77 471.776 1473.76 475.084 1470.69 477.37C1468.2 479.212 1465.26 480.167 1462.23 480.167C1461.51 480.167 1460.8 480.132 1460.11 480.03C1456.33 479.484 1453.02 477.472 1450.73 474.402C1448.45 471.367 1447.53 467.58 1448.07 463.829Z" fill="#075D46" fill-opacity="0.4"/>
<path d="M1477.92 235.266C1483.72 243.111 1494.84 244.748 1502.65 238.916C1510.01 233.458 1511.82 223.362 1507.22 215.688L1808.09 0.973633H1802.19L1505.24 212.891C1501.79 209.071 1496.99 207.058 1492.11 207.058C1488.42 207.058 1484.74 208.184 1481.57 210.537C1473.76 216.336 1472.12 227.421 1477.92 235.266ZM1483.61 213.266C1489.92 208.559 1498.9 209.889 1503.57 216.199C1508.28 222.544 1506.94 231.48 1500.63 236.187C1498.08 238.097 1495.11 238.984 1492.14 238.984C1487.78 238.984 1483.44 237.006 1480.65 233.22C1475.97 226.91 1477.3 217.939 1483.61 213.266Z" fill="#075D46" fill-opacity="0.4"/>
<path d="M1361.23 78.0934C1367.03 85.9384 1378.15 87.5756 1385.96 81.743C1389.75 78.9461 1392.24 74.8189 1392.92 70.146C1393.53 66.053 1392.61 61.9941 1390.53 58.515L1471.16 0.973633H1465.23L1388.49 55.7522C1385.76 52.7165 1382.14 50.67 1378.01 50.056C1377.13 49.9196 1376.27 49.8514 1375.39 49.8514C1371.64 49.8514 1367.99 51.0452 1364.88 53.3646C1361.1 56.1615 1358.64 60.2886 1357.92 64.9615C1357.24 69.6344 1358.4 74.3073 1361.23 78.0934ZM1361.3 65.4731C1361.88 61.6871 1363.86 58.3444 1366.93 56.0933C1370 53.808 1373.75 52.8529 1377.5 53.4328C1381.29 53.9785 1384.63 55.9909 1386.88 59.0266C1389.17 62.0964 1390.12 65.8483 1389.54 69.6344C1389 73.4205 1386.98 76.729 1383.95 79.0143C1381.39 80.8903 1378.39 81.8112 1375.46 81.8112C1371.09 81.8112 1366.76 79.8329 1363.96 76.0468C1361.71 73.0112 1360.76 69.2251 1361.3 65.4731Z" fill="#075D46" fill-opacity="0.4"/>
<path d="M1283.46 295.059C1286.3 298.845 1290.42 301.301 1295.1 301.983C1299.73 302.699 1304.41 301.539 1308.19 298.708C1315.56 293.251 1317.37 283.155 1312.76 275.446L1694.47 0.973633H1688.61L1310.72 272.717C1307.99 269.648 1304.37 267.601 1300.25 267.021C1299.36 266.885 1298.51 266.817 1297.62 266.817C1293.87 266.817 1290.22 268.01 1287.11 270.296C1283.33 273.127 1280.87 277.254 1280.16 281.927C1279.47 286.6 1280.63 291.238 1283.46 295.059ZM1283.53 282.404C1284.11 278.652 1286.09 275.31 1289.16 273.059C1292.23 270.773 1295.98 269.818 1299.77 270.398C1303.52 270.944 1306.86 272.922 1309.11 275.992C1313.82 282.302 1312.49 291.273 1306.18 295.98C1303.69 297.821 1300.72 298.777 1297.69 298.777C1297.01 298.777 1296.29 298.742 1295.57 298.64C1291.82 298.06 1288.48 296.082 1286.19 293.012C1283.94 289.942 1282.99 286.19 1283.53 282.404Z" fill="#075D46" fill-opacity="0.4"/>
<path d="M1680.25 507.795C1683.08 511.581 1687.18 514.071 1691.85 514.753C1696.52 515.435 1701.19 514.275 1704.98 511.444C1708.8 508.648 1711.26 504.52 1711.94 499.847C1712.55 495.754 1711.67 491.696 1709.55 488.216L1920.14 337.934V333.704L1707.57 485.42C1704.13 481.599 1699.32 479.587 1694.44 479.587C1690.76 479.587 1687.07 480.713 1683.9 483.066C1680.11 485.863 1677.66 489.99 1676.94 494.663C1676.26 499.336 1677.42 504.009 1680.25 507.795ZM1680.32 495.175C1680.9 491.389 1682.88 488.08 1685.95 485.795C1692.26 481.088 1701.23 482.418 1705.9 488.728C1708.19 491.798 1709.14 495.584 1708.56 499.336C1708.02 503.122 1706 506.43 1702.97 508.716C1700.48 510.558 1697.51 511.547 1694.47 511.547C1693.76 511.547 1693.08 511.479 1692.36 511.376C1688.61 510.83 1685.26 508.818 1682.98 505.748C1680.73 502.713 1679.77 498.927 1680.32 495.175Z" fill="#075D46" fill-opacity="0.4"/>
<path d="M1807.89 756.174C1810.68 759.96 1814.81 762.416 1819.48 763.098C1824.16 763.815 1828.83 762.621 1832.61 759.824C1836.4 756.993 1838.89 752.866 1839.57 748.193C1840.19 744.1 1839.27 740.075 1837.19 736.562L1920.14 677.349V673.188L1835.21 733.799C1831.76 729.979 1826.95 727.932 1822.04 727.932C1818.39 727.932 1814.71 729.058 1811.54 731.411C1807.75 734.242 1805.26 738.37 1804.58 743.043C1803.9 747.715 1805.06 752.354 1807.89 756.174ZM1807.95 743.52C1808.5 739.768 1810.51 736.425 1813.58 734.14C1819.89 729.467 1828.86 730.798 1833.54 737.108C1835.82 740.177 1836.74 743.929 1836.2 747.715C1835.65 751.467 1833.64 754.81 1830.6 757.061C1828.11 758.937 1825.15 759.892 1822.11 759.892C1821.39 759.892 1820.71 759.858 1819.99 759.722C1816.21 759.176 1812.9 757.198 1810.61 754.128C1808.33 751.058 1807.41 747.306 1807.95 743.52Z" fill="#075D46" fill-opacity="0.4"/>
<path d="M1566.77 676.632C1569.57 680.418 1573.7 682.908 1578.37 683.591C1583.04 684.273 1587.71 683.113 1591.5 680.282C1595.29 677.485 1597.78 673.358 1598.46 668.685C1599.07 664.592 1598.15 660.533 1596.07 657.054L1920.14 424.023V419.794L1594.09 654.257C1590.65 650.437 1585.84 648.424 1580.93 648.424C1577.28 648.424 1573.59 649.55 1570.42 651.904C1566.64 654.7 1564.15 658.828 1563.46 663.5C1562.78 668.173 1563.94 672.846 1566.77 676.632ZM1566.84 664.012C1567.39 660.226 1569.4 656.917 1572.47 654.632C1578.78 649.925 1587.75 651.255 1592.42 657.566C1594.71 660.635 1595.66 664.421 1595.08 668.173C1594.54 671.959 1592.52 675.268 1589.49 677.553C1587 679.395 1584.03 680.384 1581 680.384C1580.28 680.384 1579.6 680.316 1578.88 680.214C1575.09 679.668 1571.79 677.656 1569.5 674.62C1567.22 671.55 1566.29 667.764 1566.84 664.012Z" fill="#075D46" fill-opacity="0.4"/>
<path d="M1548.05 765.349C1553.88 773.194 1564.96 774.832 1572.81 769.033C1580.14 763.576 1581.95 753.48 1577.35 745.771L1920.14 498.756V494.561L1575.37 742.974C1571.92 739.154 1567.11 737.141 1562.24 737.141C1558.55 737.141 1554.87 738.267 1551.7 740.621C1543.88 746.419 1542.25 757.538 1548.05 765.349ZM1553.74 743.349C1560.05 738.676 1569.02 740.007 1573.7 746.317C1578.4 752.627 1577.07 761.597 1570.76 766.27C1564.45 770.977 1555.48 769.647 1550.77 763.337C1546.1 757.027 1547.43 748.056 1553.74 743.349Z" fill="#075D46" fill-opacity="0.4"/>
<path d="M1374.16 376.988C1379.96 384.833 1391.08 386.47 1398.89 380.638C1402.67 377.841 1405.16 373.713 1405.85 369.041V369.006L1445.65 370.951L1920.14 30.3755V26.146L1444.63 367.472L1406.02 365.596C1405.85 362.117 1404.69 358.774 1402.54 355.909C1399.09 351.236 1393.74 348.78 1388.35 348.78C1384.67 348.78 1380.98 349.906 1377.81 352.259C1370 358.058 1368.33 369.143 1374.16 376.988ZM1379.86 354.988C1386.17 350.281 1395.14 351.611 1399.81 357.921C1402.09 360.991 1403.05 364.777 1402.47 368.529C1401.92 372.315 1399.91 375.624 1396.88 377.909C1394.32 379.819 1391.32 380.706 1388.38 380.706C1384.02 380.706 1379.69 378.727 1376.89 374.941C1372.22 368.631 1373.51 359.661 1379.86 354.988Z" fill="#075D46" fill-opacity="0.4"/>
<path d="M1239.81 397.112C1242.64 400.898 1246.76 403.388 1251.44 404.07C1256.11 404.752 1260.78 403.592 1264.57 400.761C1271.94 395.304 1273.74 385.208 1269.11 377.499L1405.23 276.435L1488.36 288.714L1489.04 288.817L1891.35 0.973633H1885.48L1488.19 285.235L1404.35 272.854L1267.13 374.702C1263.68 370.916 1258.87 368.904 1254 368.904C1250.35 368.904 1246.63 370.03 1243.49 372.349C1235.64 378.182 1234.01 389.267 1239.81 397.112ZM1245.5 375.112C1251.81 370.405 1260.78 371.735 1265.49 378.045C1270.16 384.389 1268.87 393.326 1262.52 398.033C1260.03 399.875 1257.1 400.83 1254.06 400.83C1253.35 400.83 1252.63 400.796 1251.95 400.693C1248.16 400.148 1244.82 398.135 1242.57 395.065C1237.86 388.755 1239.19 379.785 1245.5 375.112Z" fill="#075D46" fill-opacity="0.4"/>
<path d="M1137.41 259.176C1140.24 262.962 1144.37 265.452 1149.04 266.135C1153.72 266.817 1158.35 265.657 1162.17 262.826C1169.51 257.369 1171.32 247.272 1166.71 239.564L1302.84 138.5L1385.96 150.779L1386.64 150.881L1596.17 0.973633H1590.31L1385.79 147.3L1301.92 134.918L1164.73 236.801C1161.29 232.981 1156.48 230.968 1151.6 230.968C1147.92 230.968 1144.23 232.094 1141.06 234.448C1133.25 240.246 1131.61 251.365 1137.41 259.176ZM1143.11 237.176C1149.42 232.469 1158.39 233.799 1163.1 240.11C1167.77 246.454 1166.44 255.39 1160.13 260.097C1157.64 261.939 1154.7 262.928 1151.63 262.928C1150.95 262.928 1150.24 262.86 1149.52 262.758C1145.77 262.212 1142.43 260.2 1140.17 257.13C1135.47 250.82 1136.8 241.883 1143.11 237.176Z" fill="#075D46" fill-opacity="0.4"/>
<path d="M1498.08 543.882C1503.88 551.727 1514.99 553.364 1522.81 547.531C1526.59 544.734 1529.08 540.607 1529.76 535.934C1530.45 531.262 1529.29 526.589 1526.45 522.803C1524.31 519.869 1521.37 517.823 1518.17 516.697L1527.55 479.212L1920.14 197.372V193.176L1525.06 476.79L1524.54 477.165L1514.86 515.879C1514.01 515.742 1513.12 515.674 1512.23 515.674C1508.58 515.674 1504.86 516.799 1501.73 519.153C1493.88 524.951 1492.24 536.071 1498.08 543.882ZM1503.74 521.882C1510.08 517.175 1519.02 518.505 1523.73 524.815C1526.01 527.885 1526.93 531.671 1526.39 535.423C1525.84 539.209 1523.83 542.517 1520.76 544.803C1518.23 546.713 1515.23 547.6 1512.27 547.6C1507.9 547.6 1503.6 545.621 1500.81 541.869C1496.1 535.525 1497.43 526.589 1503.74 521.882Z" fill="#075D46" fill-opacity="0.4"/>
<path d="M1694.65 773.229C1700.48 781.04 1711.56 782.677 1719.41 776.878C1723.19 774.047 1725.65 769.92 1726.37 765.247C1727.05 760.574 1725.89 755.936 1723.06 752.115C1720.94 749.25 1718.04 747.17 1714.77 746.01L1724.15 708.525L1920.14 567.826V563.631L1721.63 706.137L1721.15 706.478L1711.46 745.191C1710.57 745.055 1709.69 744.987 1708.83 744.987C1705.05 744.987 1701.4 746.18 1698.33 748.466C1690.48 754.298 1688.85 765.384 1694.65 773.229ZM1700.34 751.194C1703.41 748.943 1707.16 747.988 1710.95 748.534C1714.7 749.114 1718.04 751.092 1720.33 754.162C1722.58 757.232 1723.54 760.984 1722.99 764.77C1722.41 768.522 1720.43 771.864 1717.36 774.116C1714.8 776.026 1711.84 776.947 1708.87 776.947C1704.5 776.947 1700.2 774.934 1697.41 771.182C1692.7 764.872 1694.03 755.901 1700.34 751.194Z" fill="#075D46" fill-opacity="0.4"/>
<path d="M1449.4 679.395C1452.2 683.181 1456.33 685.637 1461 686.354C1465.64 687.036 1470.35 685.876 1474.13 683.045C1477.92 680.214 1480.41 676.121 1481.09 671.448C1481.7 667.321 1480.78 663.262 1478.67 659.783L1612.72 560.254L1627.31 472.731L1920.14 263.235V259.04L1624.76 470.377L1624.21 470.787L1609.58 558.344L1476.69 656.986C1473.25 653.2 1468.44 651.153 1463.56 651.153C1459.91 651.153 1456.23 652.313 1453.05 654.633C1449.27 657.464 1446.78 661.591 1446.1 666.264C1445.41 670.936 1446.57 675.609 1449.4 679.395ZM1449.47 666.741C1450.02 662.989 1452.03 659.646 1455.07 657.395C1461.41 652.688 1470.35 654.019 1475.05 660.329C1477.34 663.398 1478.26 667.15 1477.71 670.936C1477.17 674.688 1475.16 678.031 1472.09 680.316C1469.6 682.158 1466.66 683.113 1463.63 683.113C1462.91 683.113 1462.19 683.079 1461.51 682.977C1457.73 682.397 1454.42 680.419 1452.13 677.349C1449.85 674.279 1448.93 670.527 1449.47 666.741Z" fill="#075D46" fill-opacity="0.4"/>
<path d="M1335.17 505.441C1341.01 513.286 1352.09 514.889 1359.9 509.09C1367.27 503.633 1369.08 493.537 1364.47 485.862L1920.14 85.29V81.0605L1362.43 483.1C1359.7 480.064 1356.08 478.017 1351.96 477.403C1351.1 477.267 1350.22 477.199 1349.33 477.199C1345.58 477.199 1341.93 478.427 1338.82 480.712C1331.01 486.51 1329.38 497.596 1335.17 505.441ZM1340.87 483.441C1343.94 481.155 1347.69 480.234 1351.48 480.78C1355.23 481.326 1358.57 483.338 1360.82 486.374C1365.53 492.718 1364.2 501.655 1357.89 506.362C1355.33 508.272 1352.36 509.159 1349.4 509.159C1345.03 509.159 1340.7 507.18 1337.9 503.394C1333.23 497.084 1334.56 488.114 1340.87 483.441Z" fill="#075D46" fill-opacity="0.4"/>
<path d="M1448.01 476.449C1450.8 480.235 1454.93 482.725 1459.6 483.407C1464.28 484.089 1468.95 482.929 1472.73 480.098C1476.52 477.301 1479.01 473.174 1479.69 468.501C1480.31 464.408 1479.39 460.349 1477.3 456.836L1920.14 138.636V134.475L1475.33 454.073C1471.88 450.253 1467.04 448.207 1462.16 448.207C1458.51 448.207 1454.83 449.366 1451.65 451.686C1447.87 454.517 1445.38 458.644 1444.7 463.317C1444.01 467.99 1445.17 472.663 1448.01 476.449ZM1448.07 463.829C1448.62 460.042 1450.63 456.7 1453.7 454.449C1460.01 449.742 1468.95 451.072 1473.65 457.382C1475.94 460.452 1476.86 464.204 1476.32 467.99C1475.77 471.776 1473.76 475.084 1470.69 477.37C1468.2 479.212 1465.26 480.167 1462.23 480.167C1461.51 480.167 1460.8 480.132 1460.11 480.03C1456.33 479.484 1453.02 477.472 1450.73 474.402C1448.45 471.367 1447.53 467.58 1448.07 463.829Z" fill="#075D46" fill-opacity="0.4"/>
<path d="M1477.92 235.266C1483.72 243.111 1494.84 244.748 1502.65 238.916C1510.01 233.458 1511.82 223.362 1507.22 215.688L1808.09 0.973633H1802.19L1505.24 212.891C1501.79 209.071 1496.99 207.058 1492.11 207.058C1488.42 207.058 1484.74 208.184 1481.57 210.537C1473.76 216.336 1472.12 227.421 1477.92 235.266ZM1483.61 213.266C1489.92 208.559 1498.9 209.889 1503.57 216.199C1508.28 222.544 1506.94 231.48 1500.63 236.187C1498.08 238.097 1495.11 238.984 1492.14 238.984C1487.78 238.984 1483.44 237.006 1480.65 233.22C1475.97 226.91 1477.3 217.939 1483.61 213.266Z" fill="#075D46" fill-opacity="0.4"/>
<path d="M1361.23 78.0934C1367.03 85.9384 1378.15 87.5756 1385.96 81.743C1389.75 78.9461 1392.24 74.8189 1392.92 70.146C1393.53 66.053 1392.61 61.9941 1390.53 58.515L1471.16 0.973633H1465.23L1388.49 55.7522C1385.76 52.7165 1382.14 50.67 1378.01 50.056C1377.13 49.9196 1376.27 49.8514 1375.39 49.8514C1371.64 49.8514 1367.99 51.0452 1364.88 53.3646C1361.1 56.1615 1358.64 60.2886 1357.92 64.9615C1357.24 69.6344 1358.4 74.3073 1361.23 78.0934ZM1361.3 65.4731C1361.88 61.6871 1363.86 58.3444 1366.93 56.0933C1370 53.808 1373.75 52.8529 1377.5 53.4328C1381.29 53.9785 1384.63 55.9909 1386.88 59.0266C1389.17 62.0964 1390.12 65.8483 1389.54 69.6344C1389 73.4205 1386.98 76.729 1383.95 79.0143C1381.39 80.8903 1378.39 81.8112 1375.46 81.8112C1371.09 81.8112 1366.76 79.8329 1363.96 76.0468C1361.71 73.0112 1360.76 69.2251 1361.3 65.4731Z" fill="#075D46" fill-opacity="0.4"/>
<path d="M1283.46 295.059C1286.3 298.845 1290.42 301.301 1295.1 301.983C1299.73 302.699 1304.41 301.539 1308.19 298.708C1315.56 293.251 1317.37 283.155 1312.76 275.446L1694.47 0.973633H1688.61L1310.72 272.717C1307.99 269.648 1304.37 267.601 1300.25 267.021C1299.36 266.885 1298.51 266.817 1297.62 266.817C1293.87 266.817 1290.22 268.01 1287.11 270.296C1283.33 273.127 1280.87 277.254 1280.16 281.927C1279.47 286.6 1280.63 291.238 1283.46 295.059ZM1283.53 282.404C1284.11 278.652 1286.09 275.31 1289.16 273.059C1292.23 270.773 1295.98 269.818 1299.77 270.398C1303.52 270.944 1306.86 272.922 1309.11 275.992C1313.82 282.302 1312.49 291.273 1306.18 295.98C1303.69 297.821 1300.72 298.777 1297.69 298.777C1297.01 298.777 1296.29 298.742 1295.57 298.64C1291.82 298.06 1288.48 296.082 1286.19 293.012C1283.94 289.942 1282.99 286.19 1283.53 282.404Z" fill="#075D46" fill-opacity="0.4"/>
<path d="M1680.25 507.795C1683.08 511.581 1687.18 514.071 1691.85 514.753C1696.52 515.435 1701.19 514.275 1704.98 511.444C1708.8 508.648 1711.26 504.52 1711.94 499.847C1712.55 495.754 1711.67 491.696 1709.55 488.216L1920.14 337.934V333.704L1707.57 485.42C1704.13 481.599 1699.32 479.587 1694.44 479.587C1690.76 479.587 1687.07 480.713 1683.9 483.066C1680.11 485.863 1677.66 489.99 1676.94 494.663C1676.26 499.336 1677.42 504.009 1680.25 507.795ZM1680.32 495.175C1680.9 491.389 1682.88 488.08 1685.95 485.795C1692.26 481.088 1701.23 482.418 1705.9 488.728C1708.19 491.798 1709.14 495.584 1708.56 499.336C1708.02 503.122 1706 506.43 1702.97 508.716C1700.48 510.558 1697.51 511.547 1694.47 511.547C1693.76 511.547 1693.08 511.479 1692.36 511.376C1688.61 510.83 1685.26 508.818 1682.98 505.748C1680.73 502.713 1679.77 498.927 1680.32 495.175Z" fill="#075D46" fill-opacity="0.4"/>
<path d="M1807.89 756.174C1810.68 759.96 1814.81 762.416 1819.48 763.098C1824.16 763.815 1828.83 762.621 1832.61 759.824C1836.4 756.993 1838.89 752.866 1839.57 748.193C1840.19 744.1 1839.27 740.075 1837.19 736.562L1920.14 677.349V673.188L1835.21 733.799C1831.76 729.979 1826.95 727.932 1822.04 727.932C1818.39 727.932 1814.71 729.058 1811.54 731.411C1807.75 734.242 1805.26 738.37 1804.58 743.043C1803.9 747.715 1805.06 752.354 1807.89 756.174ZM1807.95 743.52C1808.5 739.768 1810.51 736.425 1813.58 734.14C1819.89 729.467 1828.86 730.798 1833.54 737.108C1835.82 740.177 1836.74 743.929 1836.2 747.715C1835.65 751.467 1833.64 754.81 1830.6 757.061C1828.11 758.937 1825.15 759.892 1822.11 759.892C1821.39 759.892 1820.71 759.858 1819.99 759.722C1816.21 759.176 1812.9 757.198 1810.61 754.128C1808.33 751.058 1807.41 747.306 1807.95 743.52Z" fill="#075D46" fill-opacity="0.4"/>
<path d="M1566.77 676.632C1569.57 680.418 1573.7 682.908 1578.37 683.591C1583.04 684.273 1587.71 683.113 1591.5 680.282C1595.29 677.485 1597.78 673.358 1598.46 668.685C1599.07 664.592 1598.15 660.533 1596.07 657.054L1920.14 424.023V419.794L1594.09 654.257C1590.65 650.437 1585.84 648.424 1580.93 648.424C1577.28 648.424 1573.59 649.55 1570.42 651.904C1566.64 654.7 1564.15 658.828 1563.46 663.5C1562.78 668.173 1563.94 672.846 1566.77 676.632ZM1566.84 664.012C1567.39 660.226 1569.4 656.917 1572.47 654.632C1578.78 649.925 1587.75 651.255 1592.42 657.566C1594.71 660.635 1595.66 664.421 1595.08 668.173C1594.54 671.959 1592.52 675.268 1589.49 677.553C1587 679.395 1584.03 680.384 1581 680.384C1580.28 680.384 1579.6 680.316 1578.88 680.214C1575.09 679.668 1571.79 677.656 1569.5 674.62C1567.22 671.55 1566.29 667.764 1566.84 664.012Z" fill="#075D46" fill-opacity="0.4"/>
<path d="M1548.05 765.349C1553.88 773.194 1564.96 774.832 1572.81 769.033C1580.14 763.576 1581.95 753.48 1577.35 745.771L1920.14 498.756V494.561L1575.37 742.974C1571.92 739.154 1567.11 737.141 1562.24 737.141C1558.55 737.141 1554.87 738.267 1551.7 740.621C1543.88 746.419 1542.25 757.538 1548.05 765.349ZM1553.74 743.349C1560.05 738.676 1569.02 740.007 1573.7 746.317C1578.4 752.627 1577.07 761.597 1570.76 766.27C1564.45 770.977 1555.48 769.647 1550.77 763.337C1546.1 757.027 1547.43 748.056 1553.74 743.349Z" fill="#075D46" fill-opacity="0.4"/>
<path d="M1739.43 877.226C1745.26 885.071 1756.35 886.708 1764.19 880.91C1771.53 875.452 1773.33 865.356 1768.73 857.647L1920.14 748.534V744.338L1766.75 854.85C1763.31 851.03 1758.5 849.018 1753.62 849.018C1749.94 849.018 1746.25 850.143 1743.08 852.497C1735.27 858.295 1733.63 869.415 1739.43 877.226ZM1745.13 855.226C1751.44 850.553 1760.41 851.883 1765.08 858.193C1769.79 864.503 1768.46 873.474 1762.15 878.147C1755.84 882.854 1746.87 881.523 1742.16 875.213C1737.49 868.903 1738.82 859.933 1745.13 855.226Z" fill="#075D46" fill-opacity="0.4"/>
<path d="M1374.16 376.988C1379.96 384.833 1391.08 386.47 1398.89 380.638C1402.67 377.841 1405.16 373.713 1405.85 369.041V369.006L1445.65 370.951L1920.14 30.3755V26.146L1444.63 367.472L1406.02 365.596C1405.85 362.117 1404.69 358.774 1402.54 355.909C1399.09 351.236 1393.74 348.78 1388.35 348.78C1384.67 348.78 1380.98 349.906 1377.81 352.259C1370 358.058 1368.33 369.143 1374.16 376.988ZM1379.86 354.988C1386.17 350.281 1395.14 351.611 1399.81 357.921C1402.09 360.991 1403.05 364.777 1402.47 368.529C1401.92 372.315 1399.91 375.624 1396.88 377.909C1394.32 379.819 1391.32 380.706 1388.38 380.706C1384.02 380.706 1379.69 378.727 1376.89 374.941C1372.22 368.631 1373.51 359.661 1379.86 354.988Z" fill="#075D46" fill-opacity="0.4"/>
<path d="M1239.81 397.112C1242.64 400.898 1246.76 403.388 1251.44 404.07C1256.11 404.752 1260.78 403.592 1264.57 400.761C1271.94 395.304 1273.74 385.208 1269.11 377.499L1405.23 276.435L1488.36 288.714L1489.04 288.817L1891.35 0.973633H1885.48L1488.19 285.235L1404.35 272.854L1267.13 374.702C1263.68 370.916 1258.87 368.904 1254 368.904C1250.35 368.904 1246.63 370.03 1243.49 372.349C1235.64 378.182 1234.01 389.267 1239.81 397.112ZM1245.5 375.112C1251.81 370.405 1260.78 371.735 1265.49 378.045C1270.16 384.389 1268.87 393.326 1262.52 398.033C1260.03 399.875 1257.1 400.83 1254.06 400.83C1253.35 400.83 1252.63 400.796 1251.95 400.693C1248.16 400.148 1244.82 398.135 1242.57 395.065C1237.86 388.755 1239.19 379.785 1245.5 375.112Z" fill="#075D46" fill-opacity="0.4"/>
<path d="M1137.41 259.176C1140.24 262.962 1144.37 265.452 1149.04 266.135C1153.72 266.817 1158.35 265.657 1162.17 262.826C1169.51 257.369 1171.32 247.272 1166.71 239.564L1302.84 138.5L1385.96 150.779L1386.64 150.881L1596.17 0.973633H1590.31L1385.79 147.3L1301.92 134.918L1164.73 236.801C1161.29 232.981 1156.48 230.968 1151.6 230.968C1147.92 230.968 1144.23 232.094 1141.06 234.448C1133.25 240.246 1131.61 251.365 1137.41 259.176ZM1143.11 237.176C1149.42 232.469 1158.39 233.799 1163.1 240.11C1167.77 246.454 1166.44 255.39 1160.13 260.097C1157.64 261.939 1154.7 262.928 1151.63 262.928C1150.95 262.928 1150.24 262.86 1149.52 262.758C1145.77 262.212 1142.43 260.2 1140.17 257.13C1135.47 250.82 1136.8 241.883 1143.11 237.176Z" fill="#075D46" fill-opacity="0.4"/>
<path d="M1498.08 543.882C1503.88 551.727 1514.99 553.364 1522.81 547.531C1526.59 544.734 1529.08 540.607 1529.76 535.934C1530.45 531.262 1529.29 526.589 1526.45 522.803C1524.31 519.869 1521.37 517.823 1518.17 516.697L1527.55 479.212L1920.14 197.372V193.176L1525.06 476.79L1524.54 477.165L1514.86 515.879C1514.01 515.742 1513.12 515.674 1512.23 515.674C1508.58 515.674 1504.86 516.799 1501.73 519.153C1493.88 524.951 1492.24 536.071 1498.08 543.882ZM1503.74 521.882C1510.08 517.175 1519.02 518.505 1523.73 524.815C1526.01 527.885 1526.93 531.671 1526.39 535.423C1525.84 539.209 1523.83 542.517 1520.76 544.803C1518.23 546.713 1515.23 547.6 1512.27 547.6C1507.9 547.6 1503.6 545.621 1500.81 541.869C1496.1 535.525 1497.43 526.589 1503.74 521.882Z" fill="#075D46" fill-opacity="0.4"/>
<path d="M1694.65 773.229C1700.48 781.04 1711.56 782.677 1719.41 776.878C1723.19 774.047 1725.65 769.92 1726.37 765.247C1727.05 760.574 1725.89 755.936 1723.06 752.115C1720.94 749.25 1718.04 747.17 1714.77 746.01L1724.15 708.525L1920.14 567.826V563.631L1721.63 706.137L1721.15 706.478L1711.46 745.191C1710.57 745.055 1709.69 744.987 1708.83 744.987C1705.05 744.987 1701.4 746.18 1698.33 748.466C1690.48 754.298 1688.85 765.384 1694.65 773.229ZM1700.34 751.194C1703.41 748.943 1707.16 747.988 1710.95 748.534C1714.7 749.114 1718.04 751.092 1720.33 754.162C1722.58 757.232 1723.54 760.984 1722.99 764.77C1722.41 768.522 1720.43 771.864 1717.36 774.116C1714.8 776.026 1711.84 776.947 1708.87 776.947C1704.5 776.947 1700.2 774.934 1697.41 771.182C1692.7 764.872 1694.03 755.901 1700.34 751.194Z" fill="#075D46" fill-opacity="0.4"/>
<path d="M1831.08 926.854C1836.91 934.665 1848 936.302 1855.84 930.504C1859.63 927.673 1862.08 923.545 1862.8 918.872C1863.48 914.2 1862.32 909.561 1859.49 905.741C1857.38 902.876 1854.48 900.795 1851.2 899.635L1860.58 862.15L1920.14 819.412V815.182L1858.06 859.762L1857.58 860.103L1847.9 898.817C1847.01 898.68 1846.12 898.612 1845.27 898.612C1841.48 898.612 1837.83 899.806 1834.76 902.091C1826.92 907.924 1825.28 919.009 1831.08 926.854ZM1836.78 904.82C1839.85 902.569 1843.6 901.613 1847.38 902.159C1851.14 902.739 1854.48 904.717 1856.76 907.787C1859.01 910.857 1859.97 914.609 1859.42 918.395C1858.84 922.147 1856.87 925.49 1853.8 927.741C1851.24 929.651 1848.27 930.572 1845.3 930.572C1840.94 930.572 1836.64 928.559 1833.84 924.807C1829.14 918.497 1830.47 909.527 1836.78 904.82Z" fill="#075D46" fill-opacity="0.4"/>
<path d="M1169.81 60.2204C1175.65 68.0654 1186.73 69.7026 1194.58 63.9042C1201.91 58.4468 1203.72 48.3506 1199.11 40.642L1254.17 0.973633H1248.3L1197.14 37.8451C1193.69 34.0249 1188.88 32.0125 1184 32.0125C1180.32 32.0125 1176.64 33.1381 1173.46 35.4916C1165.65 41.2901 1164.02 52.4095 1169.81 60.2204ZM1175.51 38.2203C1181.82 33.5474 1190.79 34.8777 1195.46 41.1878C1200.17 47.4979 1198.84 56.4685 1192.53 61.1413C1186.22 65.8483 1177.25 64.5181 1172.54 58.208C1167.87 51.8979 1169.2 42.9273 1175.51 38.2203Z" fill="#075D46" fill-opacity="0.4"/>
<path d="M1053.47 41.563C1059.3 49.408 1070.39 51.0452 1078.23 45.2467C1085.57 39.7893 1087.37 29.6931 1082.77 21.9846L1111.93 0.973633H1106.07L1080.79 19.1877C1077.35 15.3675 1072.54 13.3551 1067.66 13.3551C1063.98 13.3551 1060.29 14.4807 1057.12 16.8342C1049.31 22.6326 1047.67 33.7521 1053.47 41.563ZM1059.17 19.5629C1065.48 14.89 1074.45 16.2202 1079.12 22.5303C1083.83 28.8404 1082.5 37.811 1076.19 42.4839C1069.88 47.1909 1060.91 45.8607 1056.2 39.5506C1051.53 33.2404 1052.86 24.2699 1059.17 19.5629Z" fill="#075D46" fill-opacity="0.4"/>
<path d="M1261.46 109.814C1267.3 117.625 1278.38 119.263 1286.23 113.464C1290.01 110.633 1292.47 106.506 1293.19 101.833C1293.87 97.1601 1292.71 92.5213 1289.88 88.7012C1287.76 85.836 1284.86 83.7554 1281.59 82.5957L1290.97 45.1103L1352.47 0.973633H1346.6L1288.44 42.7227L1287.97 43.0637L1278.28 81.7771C1277.39 81.6407 1276.51 81.5724 1275.65 81.5724C1271.87 81.5724 1268.22 82.7662 1265.15 85.0515C1257.3 90.8841 1255.67 101.969 1261.46 109.814ZM1267.16 87.7802C1270.23 85.5291 1273.98 84.574 1277.77 85.1197C1281.52 85.6996 1284.86 87.6779 1287.15 90.7477C1289.4 93.8175 1290.35 97.5694 1289.81 101.355C1289.23 105.107 1287.25 108.45 1284.18 110.701C1281.62 112.611 1278.66 113.532 1275.69 113.532C1271.32 113.532 1267.02 111.52 1264.23 107.768C1259.52 101.458 1260.85 92.4872 1267.16 87.7802Z" fill="#075D46" fill-opacity="0.4"/>
<path d="M1449.4 679.395C1452.2 683.181 1456.33 685.637 1461 686.354C1465.64 687.036 1470.35 685.876 1474.13 683.045C1477.92 680.214 1480.41 676.121 1481.09 671.448C1481.7 667.321 1480.78 663.262 1478.67 659.783L1612.72 560.254L1627.31 472.731L1920.14 263.235V259.04L1624.76 470.377L1624.21 470.787L1609.58 558.344L1476.69 656.986C1473.25 653.2 1468.44 651.153 1463.56 651.153C1459.91 651.153 1456.23 652.313 1453.05 654.633C1449.27 657.464 1446.78 661.591 1446.1 666.264C1445.41 670.936 1446.57 675.609 1449.4 679.395ZM1449.47 666.741C1450.02 662.989 1452.03 659.646 1455.07 657.395C1461.41 652.688 1470.35 654.019 1475.05 660.329C1477.34 663.398 1478.26 667.15 1477.71 670.936C1477.17 674.688 1475.16 678.031 1472.09 680.316C1469.6 682.158 1466.66 683.113 1463.63 683.113C1462.91 683.113 1462.19 683.079 1461.51 682.977C1457.73 682.397 1454.42 680.419 1452.13 677.349C1449.85 674.279 1448.93 670.527 1449.47 666.741Z" fill="#075D46" fill-opacity="0.4"/>
</svg>
