<svg viewBox="0 0 1905 934" fill="none" xmlns="http://www.w3.org/2000/svg">
<path d="M579.593 427.972C573.814 420.137 562.831 418.536 555.092 424.327C547.792 429.777 546.001 439.86 550.563 447.525L0 847.573V851.797L552.591 450.284C555.294 453.316 558.877 455.359 562.966 455.973C563.811 456.109 564.69 456.177 565.568 456.177C569.286 456.177 572.902 454.951 575.977 452.668C583.716 446.878 585.339 435.807 579.593 427.972ZM573.949 449.943C570.908 452.226 567.19 453.145 563.439 452.6C559.722 452.055 556.41 450.045 554.179 447.014C549.515 440.678 550.833 431.753 557.085 427.052C559.62 425.145 562.56 424.259 565.501 424.259C569.826 424.259 574.118 426.235 576.89 430.016C581.52 436.318 580.202 445.276 573.949 449.943Z" fill="#075D46"/>
<path d="M467.798 456.927C465.026 453.145 460.937 450.659 456.307 449.977C451.677 449.296 447.047 450.454 443.296 453.282C439.545 456.075 437.078 460.197 436.402 464.863C435.793 468.951 436.706 473.005 438.767 476.513L0 794.297V798.453L440.728 479.273C444.141 483.088 448.94 485.132 453.773 485.132C457.389 485.132 461.039 483.973 464.182 481.657C467.933 478.83 470.4 474.708 471.076 470.041C471.752 465.374 470.603 460.708 467.798 456.927ZM467.73 469.53C467.189 473.311 465.195 476.65 462.154 478.898C455.902 483.599 447.047 482.27 442.383 475.968C440.119 472.903 439.207 469.155 439.747 465.374C440.288 461.593 442.282 458.289 445.324 456.007C447.791 454.167 450.697 453.214 453.705 453.214C454.415 453.214 455.124 453.248 455.8 453.35C459.552 453.895 462.83 455.905 465.094 458.97C467.358 462.002 468.271 465.783 467.73 469.53Z" fill="#075D46"/>
<path d="M438.159 697.794C432.414 689.959 421.397 688.324 413.658 694.149C406.358 699.599 404.567 709.682 409.129 717.346L111.019 931.78H116.865L411.089 720.14C414.503 723.955 419.268 725.965 424.1 725.965C427.75 725.965 431.4 724.841 434.543 722.49C442.282 716.699 443.905 705.628 438.159 697.794ZM432.516 719.765C426.263 724.466 417.375 723.137 412.745 716.836C408.081 710.5 409.399 701.575 415.652 696.874C418.186 694.966 421.126 694.081 424.067 694.081C428.392 694.081 432.685 696.056 435.456 699.838C440.086 706.139 438.768 715.098 432.516 719.765Z" fill="#075D46"/>
<path d="M553.774 854.761C548.029 846.926 537.011 845.291 529.272 851.116C525.521 853.909 523.054 858.031 522.378 862.697C521.769 866.785 522.682 870.839 524.743 874.313L444.851 931.779H450.731L526.771 877.072C529.475 880.104 533.057 882.148 537.146 882.761C538.025 882.897 538.87 882.966 539.749 882.966C543.466 882.966 547.082 881.773 550.158 879.457C553.909 876.664 556.342 872.542 557.052 867.875C557.728 863.208 556.579 858.542 553.774 854.761ZM553.706 867.364C553.132 871.145 551.172 874.484 548.13 876.732C545.088 879.014 541.371 879.968 537.653 879.389C533.902 878.844 530.59 876.834 528.36 873.802C526.095 870.737 525.149 866.989 525.724 863.208C526.264 859.427 528.258 856.123 531.266 853.841C533.801 851.967 536.775 851.047 539.681 851.047C544.007 851.047 548.299 853.023 551.07 856.804C553.301 859.836 554.247 863.617 553.706 867.364Z" fill="#075D46"/>
<path d="M630.827 638.079C628.022 634.298 623.933 631.846 619.303 631.164C614.707 630.449 610.077 631.607 606.326 634.434C599.026 639.885 597.235 649.968 601.797 657.666L223.591 931.78H229.404L603.825 660.391C606.528 663.457 610.111 665.501 614.2 666.08C615.079 666.216 615.923 666.284 616.802 666.284C620.52 666.284 624.136 665.092 627.211 662.81C630.962 659.983 633.396 655.861 634.105 651.194C634.781 646.527 633.632 641.894 630.827 638.079ZM630.76 650.717C630.185 654.464 628.225 657.802 625.183 660.051C622.142 662.333 618.424 663.287 614.673 662.708C610.956 662.163 607.644 660.187 605.413 657.121C600.749 650.819 602.067 641.86 608.319 637.16C610.787 635.32 613.727 634.366 616.735 634.366C617.41 634.366 618.12 634.4 618.83 634.503C622.547 635.082 625.859 637.057 628.124 640.123C630.354 643.189 631.3 646.936 630.76 650.717Z" fill="#075D46"/>
<path d="M237.684 425.622C234.879 421.841 230.823 419.354 226.193 418.673C221.564 417.991 216.934 419.15 213.182 421.977C209.397 424.77 206.964 428.892 206.288 433.559C205.68 437.646 206.558 441.7 208.654 445.175L0 595.261V599.485L210.614 447.968C214.027 451.783 218.792 453.793 223.625 453.793C227.275 453.793 230.925 452.669 234.068 450.318C237.819 447.525 240.252 443.403 240.962 438.737C241.638 434.07 240.489 429.403 237.684 425.622ZM237.616 438.226C237.042 442.007 235.082 445.311 232.04 447.593C225.788 452.294 216.9 450.966 212.27 444.664C210.005 441.598 209.059 437.817 209.634 434.07C210.174 430.289 212.168 426.984 215.176 424.702C217.643 422.863 220.583 421.875 223.591 421.875C224.301 421.875 224.977 421.943 225.687 422.045C229.404 422.59 232.716 424.6 234.98 427.666C237.211 430.697 238.157 434.479 237.616 438.226Z" fill="#075D46"/>
<path d="M111.221 177.567C108.45 173.786 104.361 171.333 99.7306 170.652C95.1006 169.937 90.4706 171.129 86.7193 173.922C82.968 176.749 80.501 180.871 79.8251 185.538C79.2167 189.626 80.1292 193.645 82.1907 197.154L0 256.289V260.445L84.1509 199.913C87.5642 203.728 92.3294 205.772 97.196 205.772C100.812 205.772 104.462 204.648 107.605 202.298C111.356 199.47 113.823 195.348 114.499 190.682C115.175 186.015 114.026 181.382 111.221 177.567ZM111.154 190.205C110.613 193.952 108.619 197.29 105.577 199.572C99.3251 204.239 90.4368 202.911 85.8069 196.609C83.5426 193.543 82.6301 189.796 83.1708 186.015C83.7115 182.268 85.7055 178.93 88.7133 176.681C91.1803 174.808 94.1206 173.854 97.1284 173.854C97.8381 173.854 98.514 173.888 99.2237 174.024C102.975 174.569 106.253 176.545 108.517 179.611C110.782 182.677 111.694 186.424 111.154 190.205Z" fill="#075D46"/>
<path d="M350.122 257.005C347.35 253.224 343.261 250.737 338.631 250.056C334.001 249.374 329.371 250.532 325.62 253.36C321.869 256.153 319.402 260.275 318.726 264.942C318.117 269.029 319.03 273.083 321.091 276.557L0 509.283V513.507L323.051 279.351C326.465 283.166 331.23 285.176 336.097 285.176C339.713 285.176 343.363 284.052 346.506 281.701C350.257 278.908 352.724 274.786 353.4 270.119C354.076 265.453 352.927 260.786 350.122 257.005ZM350.054 269.608C349.513 273.389 347.519 276.694 344.478 278.976C338.226 283.677 329.337 282.348 324.707 276.046C322.443 272.981 321.497 269.2 322.071 265.453C322.612 261.671 324.606 258.367 327.614 256.085C330.081 254.245 333.021 253.258 336.029 253.258C336.739 253.258 337.415 253.326 338.124 253.428C341.876 253.973 345.154 255.983 347.418 259.014C349.682 262.08 350.595 265.861 350.054 269.608Z" fill="#075D46"/>
<path d="M368.675 168.404C362.896 160.569 351.913 158.934 344.14 164.725C336.874 170.175 335.083 180.258 339.645 187.957L0 434.649V438.839L341.605 190.75C345.019 194.565 349.784 196.575 354.616 196.575C358.266 196.575 361.916 195.451 365.059 193.1C372.798 187.309 374.421 176.205 368.675 168.404ZM363.032 190.375C356.779 195.042 347.891 193.714 343.261 187.412C338.597 181.11 339.915 172.151 346.168 167.484C352.42 162.783 361.308 164.112 365.972 170.414C370.602 176.716 369.284 185.674 363.032 190.375Z" fill="#075D46"/>
<path d="M540.965 556.258C535.22 548.423 524.203 546.788 516.463 552.613C512.712 555.406 510.245 559.528 509.569 564.194V564.229L470.13 562.287L0 902.417V906.641L471.144 565.761L509.4 567.635C509.569 571.11 510.718 574.448 512.847 577.309C516.261 581.976 521.566 584.429 526.906 584.429C530.556 584.429 534.206 583.304 537.349 580.954C545.088 575.163 546.744 564.092 540.965 556.258ZM535.321 578.229C529.069 582.93 520.181 581.601 515.551 575.299C513.287 572.234 512.34 568.452 512.915 564.705C513.456 560.924 515.449 557.62 518.457 555.338C520.992 553.43 523.966 552.545 526.872 552.545C531.198 552.545 535.49 554.52 538.261 558.301C542.891 564.603 541.607 573.562 535.321 578.229Z" fill="#075D46"/>
<path d="M674.086 536.16C671.281 532.379 667.191 529.892 662.561 529.211C657.931 528.53 653.301 529.688 649.55 532.515C642.25 537.965 640.459 548.048 645.055 555.747L510.177 656.679L427.818 644.416L427.142 644.313L28.5233 931.78H34.3361L427.987 647.89L511.056 660.255L647.015 558.54C650.429 562.321 655.194 564.331 660.027 564.331C663.643 564.331 667.326 563.207 670.436 560.89C678.209 555.065 679.831 543.995 674.086 536.16ZM668.442 558.131C662.19 562.832 653.301 561.504 648.638 555.202C644.008 548.866 645.292 539.941 651.578 535.24C654.045 533.401 656.951 532.447 659.959 532.447C660.669 532.447 661.378 532.481 662.054 532.583C665.806 533.128 669.118 535.138 671.348 538.204C676.012 544.506 674.694 553.464 668.442 558.131Z" fill="#075D46"/>
<path d="M775.539 673.915C772.734 670.134 768.645 667.647 764.015 666.966C759.385 666.284 754.789 667.443 751.004 670.27C743.738 675.72 741.947 685.803 746.509 693.502L611.631 794.433L529.271 782.17L528.596 782.068L320.99 931.78H326.802L529.44 785.645L612.544 798.01L748.469 696.261C751.883 700.076 756.648 702.086 761.481 702.086C765.13 702.086 768.78 700.962 771.923 698.611C779.663 692.82 781.285 681.715 775.539 673.915ZM769.896 695.886C763.643 700.587 754.755 699.258 750.091 692.957C745.461 686.621 746.779 677.696 753.032 672.995C755.499 671.156 758.405 670.168 761.447 670.168C762.123 670.168 762.832 670.236 763.542 670.338C767.26 670.883 770.572 672.893 772.802 675.959C777.466 682.26 776.148 691.185 769.896 695.886Z" fill="#075D46"/>
<path d="M418.186 389.582C412.441 381.748 401.423 380.112 393.684 385.937C389.933 388.731 387.466 392.852 386.79 397.519C386.114 402.186 387.263 406.853 390.068 410.634C392.197 413.563 395.104 415.607 398.28 416.731L388.987 454.168L0 735.639V739.829L391.454 456.586L391.961 456.212L401.558 417.549C402.403 417.685 403.282 417.753 404.161 417.753C407.777 417.753 411.461 416.629 414.57 414.279C422.343 408.488 423.965 397.383 418.186 389.582ZM412.576 411.554C406.29 416.254 397.435 414.926 392.772 408.624C390.507 405.558 389.595 401.777 390.136 398.03C390.676 394.249 392.67 390.945 395.712 388.663C398.213 386.755 401.187 385.869 404.127 385.869C408.453 385.869 412.711 387.845 415.482 391.592C420.146 397.928 418.828 406.853 412.576 411.554Z" fill="#075D46"/>
<path d="M223.422 160.535C217.643 152.734 206.66 151.099 198.887 156.89C195.135 159.717 192.702 163.839 191.992 168.506C191.317 173.172 192.466 177.805 195.271 181.62C197.366 184.482 200.239 186.56 203.483 187.718L194.189 225.154L0 365.669V369.858L196.69 227.539L197.163 227.198L206.761 188.535C207.64 188.672 208.518 188.74 209.363 188.74C213.115 188.74 216.731 187.548 219.772 185.265C227.545 179.44 229.167 168.369 223.422 160.535ZM217.778 182.54C214.737 184.788 211.019 185.742 207.268 185.197C203.55 184.618 200.239 182.642 197.974 179.577C195.744 176.511 194.797 172.764 195.338 168.983C195.913 165.236 197.873 161.897 200.914 159.649C203.449 157.741 206.389 156.822 209.33 156.822C213.655 156.822 217.914 158.832 220.685 162.579C225.349 168.88 224.031 177.839 217.778 182.54Z" fill="#075D46"/>
<path d="M466.412 254.245C463.641 250.464 459.552 248.012 454.922 247.296C450.325 246.615 445.662 247.773 441.91 250.601C438.159 253.428 435.692 257.516 435.016 262.182C434.408 266.304 435.32 270.358 437.416 273.832L304.599 373.231L290.135 460.64L0 669.861V674.051L292.669 462.99L293.21 462.581L307.708 375.139L439.376 276.625C442.789 280.407 447.554 282.45 452.387 282.45C456.003 282.45 459.653 281.292 462.796 278.976C466.547 276.149 469.014 272.027 469.69 267.36C470.366 262.693 469.217 258.027 466.412 254.245ZM466.345 266.883C465.804 270.63 463.81 273.968 460.802 276.217C454.516 280.918 445.662 279.589 440.998 273.287C438.734 270.221 437.821 266.474 438.362 262.693C438.903 258.946 440.896 255.608 443.938 253.326C446.405 251.486 449.312 250.532 452.319 250.532C453.029 250.532 453.739 250.566 454.415 250.669C458.166 251.248 461.444 253.223 463.709 256.289C465.973 259.355 466.885 263.102 466.345 266.883Z" fill="#075D46"/>
<path d="M579.593 427.972C573.814 420.137 562.831 418.536 555.092 424.327C547.792 429.777 546.001 439.86 550.563 447.525L0 847.573V851.797L552.591 450.284C555.294 453.316 558.877 455.359 562.966 455.973C563.811 456.109 564.69 456.177 565.568 456.177C569.286 456.177 572.902 454.951 575.977 452.668C583.716 446.878 585.339 435.807 579.593 427.972ZM573.949 449.943C570.908 452.226 567.19 453.145 563.439 452.6C559.722 452.055 556.41 450.045 554.179 447.014C549.515 440.678 550.833 431.753 557.085 427.052C559.62 425.145 562.56 424.259 565.501 424.259C569.826 424.259 574.118 426.235 576.89 430.016C581.52 436.318 580.202 445.276 573.949 449.943Z" fill="#075D46"/>
<path d="M467.798 456.927C465.026 453.145 460.937 450.659 456.307 449.977C451.677 449.296 447.047 450.454 443.296 453.282C439.545 456.075 437.078 460.197 436.402 464.863C435.793 468.951 436.706 473.005 438.767 476.513L0 794.297V798.453L440.728 479.273C444.141 483.088 448.94 485.132 453.773 485.132C457.389 485.132 461.039 483.973 464.182 481.657C467.933 478.83 470.4 474.708 471.076 470.041C471.752 465.374 470.603 460.708 467.798 456.927ZM467.73 469.53C467.189 473.311 465.195 476.65 462.154 478.898C455.902 483.599 447.047 482.27 442.383 475.968C440.119 472.903 439.207 469.155 439.747 465.374C440.288 461.593 442.282 458.289 445.324 456.007C447.791 454.167 450.697 453.214 453.705 453.214C454.415 453.214 455.124 453.248 455.8 453.35C459.552 453.895 462.83 455.905 465.094 458.97C467.358 462.002 468.271 465.783 467.73 469.53Z" fill="#075D46"/>
<path d="M438.159 697.794C432.414 689.959 421.397 688.324 413.658 694.149C406.358 699.599 404.567 709.682 409.129 717.346L111.019 931.78H116.865L411.089 720.14C414.503 723.955 419.268 725.965 424.1 725.965C427.75 725.965 431.4 724.841 434.543 722.49C442.282 716.699 443.905 705.628 438.159 697.794ZM432.516 719.765C426.263 724.466 417.375 723.137 412.745 716.836C408.081 710.5 409.399 701.575 415.652 696.874C418.186 694.966 421.126 694.081 424.067 694.081C428.392 694.081 432.685 696.056 435.456 699.838C440.086 706.139 438.768 715.098 432.516 719.765Z" fill="#075D46"/>
<path d="M553.774 854.761C548.029 846.926 537.011 845.291 529.272 851.116C525.521 853.909 523.054 858.031 522.378 862.697C521.769 866.785 522.682 870.839 524.743 874.313L444.851 931.779H450.731L526.771 877.072C529.475 880.104 533.057 882.148 537.146 882.761C538.025 882.897 538.87 882.966 539.749 882.966C543.466 882.966 547.082 881.773 550.158 879.457C553.909 876.664 556.342 872.542 557.052 867.875C557.728 863.208 556.579 858.542 553.774 854.761ZM553.706 867.364C553.132 871.145 551.172 874.484 548.13 876.732C545.088 879.014 541.371 879.968 537.653 879.389C533.902 878.844 530.59 876.834 528.36 873.802C526.095 870.737 525.149 866.989 525.724 863.208C526.264 859.427 528.258 856.123 531.266 853.841C533.801 851.967 536.775 851.047 539.681 851.047C544.007 851.047 548.299 853.023 551.07 856.804C553.301 859.836 554.247 863.617 553.706 867.364Z" fill="#075D46"/>
<path d="M630.827 638.079C628.022 634.298 623.933 631.846 619.303 631.164C614.707 630.449 610.077 631.607 606.326 634.434C599.026 639.885 597.235 649.968 601.797 657.666L223.591 931.78H229.404L603.825 660.391C606.528 663.457 610.111 665.501 614.2 666.08C615.079 666.216 615.923 666.284 616.802 666.284C620.52 666.284 624.136 665.092 627.211 662.81C630.962 659.983 633.396 655.861 634.105 651.194C634.781 646.527 633.632 641.894 630.827 638.079ZM630.76 650.717C630.185 654.464 628.225 657.802 625.183 660.051C622.142 662.333 618.424 663.287 614.673 662.708C610.956 662.163 607.644 660.187 605.413 657.121C600.749 650.819 602.067 641.86 608.319 637.16C610.787 635.32 613.727 634.366 616.735 634.366C617.41 634.366 618.12 634.4 618.83 634.503C622.547 635.082 625.859 637.057 628.124 640.123C630.354 643.189 631.3 646.936 630.76 650.717Z" fill="#075D46"/>
<path d="M237.684 425.622C234.879 421.841 230.823 419.354 226.193 418.673C221.564 417.991 216.934 419.15 213.182 421.977C209.397 424.77 206.964 428.892 206.288 433.559C205.68 437.646 206.558 441.7 208.654 445.175L0 595.261V599.485L210.614 447.968C214.027 451.783 218.792 453.793 223.625 453.793C227.275 453.793 230.925 452.669 234.068 450.318C237.819 447.525 240.252 443.403 240.962 438.737C241.638 434.07 240.489 429.403 237.684 425.622ZM237.616 438.226C237.042 442.007 235.082 445.311 232.04 447.593C225.788 452.294 216.9 450.966 212.27 444.664C210.005 441.598 209.059 437.817 209.634 434.07C210.174 430.289 212.168 426.984 215.176 424.702C217.643 422.863 220.583 421.875 223.591 421.875C224.301 421.875 224.977 421.943 225.687 422.045C229.404 422.59 232.716 424.6 234.98 427.666C237.211 430.697 238.157 434.479 237.616 438.226Z" fill="#075D46"/>
<path d="M111.221 177.567C108.45 173.786 104.361 171.333 99.7306 170.652C95.1006 169.937 90.4706 171.129 86.7193 173.922C82.968 176.749 80.501 180.871 79.8251 185.538C79.2167 189.626 80.1292 193.645 82.1907 197.154L0 256.289V260.445L84.1509 199.913C87.5642 203.728 92.3294 205.772 97.196 205.772C100.812 205.772 104.462 204.648 107.605 202.298C111.356 199.47 113.823 195.348 114.499 190.682C115.175 186.015 114.026 181.382 111.221 177.567ZM111.154 190.205C110.613 193.952 108.619 197.29 105.577 199.572C99.3251 204.239 90.4368 202.911 85.8069 196.609C83.5426 193.543 82.6301 189.796 83.1708 186.015C83.7115 182.268 85.7055 178.93 88.7133 176.681C91.1803 174.808 94.1206 173.854 97.1284 173.854C97.8381 173.854 98.514 173.888 99.2237 174.024C102.975 174.569 106.253 176.545 108.517 179.611C110.782 182.677 111.694 186.424 111.154 190.205Z" fill="#075D46"/>
<path d="M350.122 257.005C347.35 253.224 343.261 250.737 338.631 250.056C334.001 249.374 329.371 250.532 325.62 253.36C321.869 256.153 319.402 260.275 318.726 264.942C318.117 269.029 319.03 273.083 321.091 276.557L0 509.283V513.507L323.051 279.351C326.465 283.166 331.23 285.176 336.097 285.176C339.713 285.176 343.363 284.052 346.506 281.701C350.257 278.908 352.724 274.786 353.4 270.119C354.076 265.453 352.927 260.786 350.122 257.005ZM350.054 269.608C349.513 273.389 347.519 276.694 344.478 278.976C338.226 283.677 329.337 282.348 324.707 276.046C322.443 272.981 321.497 269.2 322.071 265.453C322.612 261.671 324.606 258.367 327.614 256.085C330.081 254.245 333.021 253.258 336.029 253.258C336.739 253.258 337.415 253.326 338.124 253.428C341.876 253.973 345.154 255.983 347.418 259.014C349.682 262.08 350.595 265.861 350.054 269.608Z" fill="#075D46"/>
<path d="M368.675 168.404C362.896 160.569 351.913 158.934 344.14 164.725C336.874 170.175 335.083 180.258 339.645 187.957L0 434.649V438.839L341.605 190.75C345.019 194.565 349.784 196.575 354.616 196.575C358.266 196.575 361.916 195.451 365.059 193.1C372.798 187.309 374.421 176.205 368.675 168.404ZM363.032 190.375C356.779 195.042 347.891 193.714 343.261 187.412C338.597 181.11 339.915 172.151 346.168 167.484C352.42 162.783 361.308 164.112 365.972 170.414C370.602 176.716 369.284 185.674 363.032 190.375Z" fill="#075D46"/>
<path d="M179.049 56.6735C173.27 48.8388 162.286 47.2037 154.513 52.9946C147.247 58.4448 145.456 68.5278 150.018 76.2262L0 185.197V189.387L151.979 79.0195C155.392 82.8347 160.157 84.8445 164.99 84.8445C168.64 84.8445 172.29 83.7204 175.433 81.37C183.172 75.5791 184.794 64.4742 179.049 56.6735ZM173.405 78.6448C167.153 83.3116 158.264 81.9831 153.634 75.6812C148.971 69.3794 150.289 60.4205 156.541 55.7538C162.793 51.0529 171.681 52.3814 176.345 58.6833C180.975 64.9851 179.657 73.944 173.405 78.6448Z" fill="#075D46"/>
<path d="M540.965 556.258C535.22 548.423 524.203 546.788 516.463 552.613C512.712 555.406 510.245 559.528 509.569 564.194V564.229L470.13 562.287L0 902.417V906.641L471.144 565.761L509.4 567.635C509.569 571.11 510.718 574.448 512.847 577.309C516.261 581.976 521.566 584.429 526.906 584.429C530.556 584.429 534.206 583.304 537.349 580.954C545.088 575.163 546.744 564.092 540.965 556.258ZM535.321 578.229C529.069 582.93 520.181 581.601 515.551 575.299C513.287 572.234 512.34 568.452 512.915 564.705C513.456 560.924 515.449 557.62 518.457 555.338C520.992 553.43 523.966 552.545 526.872 552.545C531.198 552.545 535.49 554.52 538.261 558.301C542.891 564.603 541.607 573.562 535.321 578.229Z" fill="#075D46"/>
<path d="M674.086 536.16C671.281 532.379 667.191 529.892 662.561 529.211C657.931 528.53 653.301 529.688 649.55 532.515C642.25 537.965 640.459 548.048 645.055 555.747L510.177 656.679L427.818 644.416L427.142 644.313L28.5233 931.78H34.3361L427.987 647.89L511.056 660.255L647.015 558.54C650.429 562.321 655.194 564.331 660.027 564.331C663.643 564.331 667.326 563.207 670.436 560.89C678.209 555.065 679.831 543.995 674.086 536.16ZM668.442 558.131C662.19 562.832 653.301 561.504 648.638 555.202C644.008 548.866 645.292 539.941 651.578 535.24C654.045 533.401 656.951 532.447 659.959 532.447C660.669 532.447 661.378 532.481 662.054 532.583C665.806 533.128 669.118 535.138 671.348 538.204C676.012 544.506 674.694 553.464 668.442 558.131Z" fill="#075D46"/>
<path d="M775.539 673.915C772.734 670.134 768.645 667.647 764.015 666.966C759.385 666.284 754.789 667.443 751.004 670.27C743.738 675.72 741.947 685.803 746.509 693.502L611.631 794.433L529.271 782.17L528.596 782.068L320.99 931.78H326.802L529.44 785.645L612.544 798.01L748.469 696.261C751.883 700.076 756.648 702.086 761.481 702.086C765.13 702.086 768.78 700.962 771.923 698.611C779.663 692.82 781.285 681.715 775.539 673.915ZM769.896 695.886C763.643 700.587 754.755 699.258 750.091 692.957C745.461 686.621 746.779 677.696 753.032 672.995C755.499 671.156 758.405 670.168 761.447 670.168C762.123 670.168 762.832 670.236 763.542 670.338C767.26 670.883 770.572 672.893 772.802 675.959C777.466 682.26 776.148 691.185 769.896 695.886Z" fill="#075D46"/>
<path d="M418.186 389.582C412.441 381.748 401.423 380.112 393.684 385.937C389.933 388.731 387.466 392.852 386.79 397.519C386.114 402.186 387.263 406.853 390.068 410.634C392.197 413.563 395.104 415.607 398.28 416.731L388.987 454.168L0 735.639V739.829L391.454 456.586L391.961 456.212L401.558 417.549C402.403 417.685 403.282 417.753 404.161 417.753C407.777 417.753 411.461 416.629 414.57 414.279C422.343 408.488 423.965 397.383 418.186 389.582ZM412.576 411.554C406.29 416.254 397.435 414.926 392.772 408.624C390.507 405.558 389.595 401.777 390.136 398.03C390.676 394.249 392.67 390.945 395.712 388.663C398.213 386.755 401.187 385.869 404.127 385.869C408.453 385.869 412.711 387.845 415.482 391.592C420.146 397.928 418.828 406.853 412.576 411.554Z" fill="#075D46"/>
<path d="M223.422 160.535C217.643 152.734 206.66 151.099 198.887 156.89C195.135 159.717 192.702 163.839 191.992 168.506C191.317 173.172 192.466 177.805 195.271 181.62C197.366 184.482 200.239 186.56 203.483 187.718L194.189 225.154L0 365.669V369.858L196.69 227.539L197.163 227.198L206.761 188.535C207.64 188.672 208.518 188.74 209.363 188.74C213.115 188.74 216.731 187.548 219.772 185.265C227.545 179.44 229.167 168.369 223.422 160.535ZM217.778 182.54C214.737 184.788 211.019 185.742 207.268 185.197C203.55 184.618 200.239 182.642 197.974 179.577C195.744 176.511 194.797 172.764 195.338 168.983C195.913 165.236 197.873 161.897 200.914 159.649C203.449 157.741 206.389 156.822 209.33 156.822C213.655 156.822 217.914 158.832 220.685 162.579C225.349 168.88 224.031 177.839 217.778 182.54Z" fill="#075D46"/>
<path d="M88.2401 7.11042C82.4611 -0.690257 71.4775 -2.32533 63.7046 3.46556C59.9533 6.29288 57.52 10.4146 56.8103 15.0814C56.1344 19.7482 57.2834 24.3809 60.0885 28.1961C62.1838 31.0575 65.0564 33.1354 68.3008 34.2935L59.007 71.73L0 114.412V118.636L61.5079 74.1144L61.981 73.7738L71.5789 35.1111C72.4576 35.2473 73.3363 35.3155 74.1812 35.3155C77.9325 35.3155 81.5486 34.1232 84.5902 31.8409C92.3632 26.016 93.9854 14.9452 88.2401 7.11042ZM82.5963 29.1158C79.5547 31.364 75.8372 32.3178 72.0859 31.7728C68.3684 31.1937 65.0564 29.218 62.7921 26.1522C60.5616 23.0865 59.6153 19.3394 60.156 15.5583C60.7306 11.8112 62.6907 8.47295 65.7323 6.22472C68.267 4.31713 71.2072 3.39742 74.1474 3.39742C78.4732 3.39742 82.7315 5.40718 85.5027 9.15423C90.1665 15.4561 88.8484 24.4149 82.5963 29.1158Z" fill="#075D46"/>
<path d="M743.434 872.611C737.655 864.776 726.672 863.141 718.899 868.932C711.633 874.382 709.842 884.465 714.404 892.163L659.858 931.78H665.671L716.364 894.957C719.778 898.772 724.543 900.781 729.376 900.781C733.025 900.781 736.675 899.657 739.818 897.307C747.558 891.516 749.18 880.411 743.434 872.611ZM737.791 894.582C731.538 899.249 722.65 897.92 718.02 891.618C713.356 885.316 714.675 876.358 720.927 871.691C727.179 866.99 736.067 868.318 740.731 874.62C745.361 880.922 744.043 889.881 737.791 894.582Z" fill="#075D46"/>
<path d="M858.711 891.244C852.932 883.409 841.948 881.774 834.175 887.565C826.909 893.015 825.118 903.098 829.68 910.797L800.785 931.78H806.598L831.64 913.59C835.054 917.405 839.819 919.415 844.652 919.415C848.302 919.415 851.952 918.291 855.095 915.94C862.834 910.149 864.456 899.045 858.711 891.244ZM853.067 913.215C846.815 917.882 837.926 916.553 833.296 910.252C828.633 903.95 829.951 894.991 836.203 890.324C842.455 885.623 851.343 886.952 856.007 893.254C860.637 899.555 859.319 908.514 853.067 913.215Z" fill="#075D46"/>
<path d="M652.625 823.082C646.846 815.281 635.862 813.646 628.089 819.437C624.338 822.264 621.905 826.386 621.195 831.053C620.519 835.719 621.668 840.352 624.473 844.167C626.568 847.029 629.441 849.107 632.685 850.265L623.392 887.701L562.458 931.78H568.271L625.892 890.086L626.366 889.745L635.964 851.082C636.842 851.219 637.721 851.287 638.566 851.287C642.317 851.287 645.933 850.094 648.975 847.812C656.748 841.987 658.37 830.916 652.625 823.082ZM646.981 845.087C643.939 847.335 640.222 848.289 636.47 847.744C632.753 847.165 629.441 845.189 627.177 842.123C624.946 839.058 624 835.311 624.541 831.53C625.115 827.783 627.075 824.444 630.117 822.196C632.652 820.288 635.592 819.369 638.532 819.369C642.858 819.369 647.116 821.378 649.887 825.125C654.551 831.427 653.233 840.386 646.981 845.087Z" fill="#075D46"/>
<path d="M466.412 254.245C463.641 250.464 459.552 248.012 454.922 247.296C450.325 246.615 445.662 247.773 441.91 250.601C438.159 253.428 435.692 257.516 435.016 262.182C434.408 266.304 435.32 270.358 437.416 273.832L304.599 373.231L290.135 460.64L0 669.861V674.051L292.669 462.99L293.21 462.581L307.708 375.139L439.376 276.625C442.789 280.407 447.554 282.45 452.387 282.45C456.003 282.45 459.653 281.292 462.796 278.976C466.547 276.149 469.014 272.027 469.69 267.36C470.366 262.693 469.217 258.027 466.412 254.245ZM466.345 266.883C465.804 270.63 463.81 273.968 460.802 276.217C454.516 280.918 445.662 279.589 440.998 273.287C438.734 270.221 437.821 266.474 438.362 262.693C438.903 258.946 440.896 255.608 443.938 253.326C446.405 251.486 449.312 250.532 452.319 250.532C453.029 250.532 453.739 250.566 454.415 250.669C458.166 251.248 461.444 253.223 463.709 256.289C465.973 259.355 466.885 263.102 466.345 266.883Z" fill="#075D46"/>
<path d="M1324.65 505.441C1330.43 513.286 1341.43 514.889 1349.18 509.09C1356.49 503.633 1358.28 493.537 1353.72 485.862L1905 85.29V81.0605L1351.69 483.1C1348.98 480.064 1345.39 478.017 1341.3 477.403C1340.45 477.267 1339.57 477.199 1338.69 477.199C1334.97 477.199 1331.35 478.427 1328.27 480.712C1320.52 486.51 1318.89 497.596 1324.65 505.441ZM1330.3 483.441C1333.34 481.155 1337.07 480.234 1340.82 480.78C1344.55 481.326 1347.86 483.338 1350.1 486.374C1354.77 492.718 1353.45 501.655 1347.18 506.362C1344.65 508.272 1341.7 509.159 1338.76 509.159C1334.43 509.159 1330.13 507.18 1327.35 503.394C1322.72 497.084 1324.04 488.114 1330.3 483.441Z" fill="#075D46"/>
<path d="M1436.59 476.449C1439.36 480.235 1443.46 482.725 1448.1 483.407C1452.73 484.089 1457.37 482.929 1461.12 480.098C1464.88 477.301 1467.35 473.174 1468.03 468.501C1468.64 464.408 1467.72 460.349 1465.66 456.836L1905 138.636V134.475L1463.7 454.073C1460.28 450.253 1455.47 448.207 1450.63 448.207C1447.01 448.207 1443.36 449.366 1440.21 451.686C1436.45 454.517 1433.98 458.644 1433.31 463.317C1432.63 467.99 1433.78 472.663 1436.59 476.449ZM1436.66 463.829C1437.2 460.042 1439.2 456.7 1442.24 454.449C1448.5 449.742 1457.37 451.072 1462.04 457.382C1464.3 460.452 1465.22 464.204 1464.68 467.99C1464.14 471.776 1462.14 475.084 1459.09 477.37C1456.62 479.212 1453.71 480.167 1450.7 480.167C1449.99 480.167 1449.28 480.132 1448.6 480.03C1444.85 479.484 1441.56 477.472 1439.3 474.402C1437.03 471.367 1436.12 467.58 1436.66 463.829Z" fill="#075D46"/>
<path d="M1466.27 235.266C1472.02 243.111 1483.05 244.748 1490.8 238.916C1498.11 233.458 1499.9 223.362 1495.34 215.688L1793.84 0.973633H1787.98L1493.37 212.891C1489.95 209.071 1485.18 207.058 1480.34 207.058C1476.69 207.058 1473.03 208.184 1469.89 210.537C1462.14 216.336 1460.51 227.421 1466.27 235.266ZM1471.92 213.266C1478.18 208.559 1487.08 209.889 1491.71 216.199C1496.38 222.544 1495.06 231.48 1488.8 236.187C1486.27 238.097 1483.32 238.984 1480.38 238.984C1476.05 238.984 1471.75 237.006 1468.97 233.22C1464.34 226.91 1465.66 217.939 1471.92 213.266Z" fill="#075D46"/>
<path d="M1350.5 78.0934C1356.25 85.9384 1367.29 87.5756 1375.03 81.743C1378.79 78.9461 1381.26 74.8189 1381.94 70.146C1382.55 66.053 1381.63 61.9941 1379.57 58.515L1459.57 0.973633H1453.68L1377.54 55.7522C1374.83 52.7165 1371.24 50.67 1367.15 50.056C1366.27 49.9196 1365.42 49.8514 1364.54 49.8514C1360.82 49.8514 1357.2 51.0452 1354.12 53.3646C1350.37 56.1615 1347.93 60.2886 1347.22 64.9615C1346.54 69.6344 1347.69 74.3073 1350.5 78.0934ZM1350.57 65.4731C1351.14 61.6871 1353.11 58.3444 1356.15 56.0933C1359.2 53.808 1362.92 52.8529 1366.64 53.4328C1370.4 53.9785 1373.72 55.9909 1375.95 59.0266C1378.22 62.0964 1379.16 65.8483 1378.59 69.6344C1378.05 73.4205 1376.05 76.729 1373.04 79.0143C1370.5 80.8903 1367.52 81.8112 1364.61 81.8112C1360.28 81.8112 1355.98 79.8329 1353.21 76.0468C1350.97 73.0112 1350.03 69.2251 1350.57 65.4731Z" fill="#075D46"/>
<path d="M1273.35 295.059C1276.16 298.845 1280.25 301.301 1284.89 301.983C1289.49 302.699 1294.12 301.539 1297.88 298.708C1305.19 293.251 1306.98 283.155 1302.41 275.446L1681.12 0.973633H1675.3L1300.38 272.717C1297.68 269.648 1294.09 267.601 1290 267.021C1289.12 266.885 1288.27 266.817 1287.39 266.817C1283.67 266.817 1280.05 268.01 1276.97 270.296C1273.21 273.127 1270.77 277.254 1270.06 281.927C1269.39 286.6 1270.54 291.238 1273.35 295.059ZM1273.41 282.404C1273.99 278.652 1275.95 275.31 1279 273.059C1282.04 270.773 1285.77 269.818 1289.52 270.398C1293.24 270.944 1296.56 272.922 1298.79 275.992C1303.46 282.302 1302.14 291.273 1295.88 295.98C1293.41 297.821 1290.47 298.777 1287.46 298.777C1286.78 298.777 1286.07 298.742 1285.36 298.64C1281.64 298.06 1278.32 296.082 1276.05 293.012C1273.82 289.942 1272.87 286.19 1273.41 282.404Z" fill="#075D46"/>
<path d="M1667 507.795C1669.81 511.581 1673.87 514.071 1678.51 514.753C1683.15 515.435 1687.78 514.275 1691.54 511.444C1695.33 508.648 1697.76 504.52 1698.44 499.847C1699.05 495.754 1698.17 491.696 1696.07 488.216L1905 337.934V333.704L1694.11 485.42C1690.69 481.599 1685.92 479.587 1681.08 479.587C1677.43 479.587 1673.77 480.713 1670.63 483.066C1666.87 485.863 1664.43 489.99 1663.72 494.663C1663.05 499.336 1664.2 504.009 1667 507.795ZM1667.07 495.175C1667.65 491.389 1669.61 488.08 1672.66 485.795C1678.92 481.088 1687.82 482.418 1692.45 488.728C1694.72 491.798 1695.67 495.584 1695.09 499.336C1694.55 503.122 1692.55 506.43 1689.54 508.716C1687.07 510.558 1684.13 511.547 1681.12 511.547C1680.41 511.547 1679.73 511.479 1679.02 511.376C1675.3 510.83 1671.98 508.818 1669.71 505.748C1667.48 502.713 1666.53 498.927 1667.07 495.175Z" fill="#075D46"/>
<path d="M1793.63 756.174C1796.41 759.96 1800.5 762.416 1805.14 763.098C1809.77 763.815 1814.41 762.621 1818.17 759.824C1821.92 756.993 1824.39 752.866 1825.07 748.193C1825.68 744.1 1824.77 740.075 1822.7 736.562L1905 677.349V673.188L1820.74 733.799C1817.32 729.979 1812.55 727.932 1807.68 727.932C1804.06 727.932 1800.4 729.058 1797.25 731.411C1793.5 734.242 1791.03 738.37 1790.35 743.043C1789.67 747.715 1790.82 752.354 1793.63 756.174ZM1793.7 743.52C1794.24 739.768 1796.24 736.425 1799.28 734.14C1805.54 729.467 1814.44 730.798 1819.08 737.108C1821.35 740.177 1822.26 743.929 1821.72 747.715C1821.18 751.467 1819.18 754.81 1816.17 757.061C1813.7 758.937 1810.76 759.892 1807.74 759.892C1807.03 759.892 1806.36 759.858 1805.65 759.722C1801.89 759.176 1798.61 757.198 1796.34 754.128C1794.07 751.058 1793.16 747.306 1793.7 743.52Z" fill="#075D46"/>
<path d="M1554.42 676.632C1557.19 680.418 1561.29 682.908 1565.93 683.591C1570.56 684.273 1575.2 683.113 1578.95 680.282C1582.71 677.485 1585.18 673.358 1585.86 668.685C1586.47 664.592 1585.55 660.533 1583.49 657.054L1905 424.023V419.794L1581.53 654.257C1578.11 650.437 1573.34 648.424 1568.46 648.424C1564.84 648.424 1561.19 649.55 1558.04 651.904C1554.28 654.7 1551.81 658.828 1551.14 663.5C1550.46 668.173 1551.61 672.846 1554.42 676.632ZM1554.49 664.012C1555.03 660.226 1557.03 656.917 1560.07 654.632C1566.33 649.925 1575.23 651.255 1579.87 657.566C1582.13 660.635 1583.08 664.421 1582.51 668.173C1581.97 671.959 1579.97 675.268 1576.96 677.553C1574.49 679.395 1571.54 680.384 1568.53 680.384C1567.82 680.384 1567.14 680.316 1566.43 680.214C1562.68 679.668 1559.39 677.656 1557.13 674.62C1554.86 671.55 1553.95 667.764 1554.49 664.012Z" fill="#075D46"/>
<path d="M1535.84 765.349C1541.63 773.194 1552.63 774.832 1560.41 769.033C1567.68 763.576 1569.48 753.48 1564.91 745.771L1905 498.756V494.561L1562.95 742.974C1559.53 739.154 1554.76 737.141 1549.92 737.141C1546.26 737.141 1542.61 738.267 1539.46 740.621C1531.71 746.419 1530.09 757.538 1535.84 765.349ZM1541.49 743.349C1547.75 738.676 1556.65 740.007 1561.29 746.317C1565.96 752.627 1564.64 761.597 1558.38 766.27C1552.12 770.977 1543.22 769.647 1538.55 763.337C1533.91 757.027 1535.23 748.056 1541.49 743.349Z" fill="#075D46"/>
<path d="M1363.33 376.988C1369.08 384.833 1380.11 386.47 1387.86 380.638C1391.62 377.841 1394.09 373.713 1394.76 369.041V369.006L1434.25 370.951L1905 30.3755V26.146L1433.24 367.472L1394.93 365.596C1394.76 362.117 1393.61 358.774 1391.48 355.909C1388.06 351.236 1382.75 348.78 1377.4 348.78C1373.75 348.78 1370.09 349.906 1366.95 352.259C1359.2 358.058 1357.54 369.143 1363.33 376.988ZM1368.98 354.988C1375.24 350.281 1384.14 351.611 1388.77 357.921C1391.04 360.991 1391.99 364.777 1391.41 368.529C1390.87 372.315 1388.88 375.624 1385.86 377.909C1383.33 379.819 1380.35 380.706 1377.44 380.706C1373.11 380.706 1368.81 378.727 1366.03 374.941C1361.4 368.631 1362.68 359.661 1368.98 354.988Z" fill="#075D46"/>
<path d="M1230.03 397.112C1232.84 400.898 1236.94 403.388 1241.57 404.07C1246.21 404.752 1250.84 403.592 1254.6 400.761C1261.91 395.304 1263.7 385.208 1259.1 377.499L1394.15 276.435L1476.62 288.714L1477.3 288.817L1876.44 0.973633H1870.62L1476.45 285.235L1393.27 272.854L1257.14 374.702C1253.72 370.916 1248.95 368.904 1244.11 368.904C1240.49 368.904 1236.8 370.03 1233.69 372.349C1225.9 378.182 1224.28 389.267 1230.03 397.112ZM1235.68 375.112C1241.94 370.405 1250.84 371.735 1255.51 378.045C1260.15 384.389 1258.86 393.326 1252.57 398.033C1250.1 399.875 1247.19 400.83 1244.18 400.83C1243.47 400.83 1242.76 400.796 1242.08 400.693C1238.32 400.148 1235.01 398.135 1232.77 395.065C1228.1 388.755 1229.42 379.785 1235.68 375.112Z" fill="#075D46"/>
<path d="M1128.44 259.176C1131.25 262.962 1135.35 265.452 1139.98 266.135C1144.62 266.817 1149.22 265.657 1153.01 262.826C1160.29 257.369 1162.08 247.272 1157.51 239.564L1292.57 138.5L1375.03 150.779L1375.71 150.881L1583.59 0.973633H1577.77L1374.87 147.3L1291.65 134.918L1155.55 236.801C1152.13 232.981 1147.36 230.968 1142.52 230.968C1138.87 230.968 1135.21 232.094 1132.07 234.448C1124.32 240.246 1122.69 251.365 1128.44 259.176ZM1134.1 237.176C1140.36 232.469 1149.26 233.799 1153.93 240.11C1158.56 246.454 1157.24 255.39 1150.98 260.097C1148.51 261.939 1145.6 262.928 1142.56 262.928C1141.88 262.928 1141.17 262.86 1140.46 262.758C1136.74 262.212 1133.42 260.2 1131.19 257.13C1126.52 250.82 1127.84 241.883 1134.1 237.176Z" fill="#075D46"/>
<path d="M1486.27 543.882C1492.02 551.727 1503.05 553.364 1510.8 547.531C1514.56 544.734 1517.03 540.607 1517.7 535.934C1518.38 531.262 1517.23 526.589 1514.42 522.803C1512.29 519.869 1509.38 517.823 1506.2 516.697L1515.5 479.212L1905 197.372V193.176L1513.03 476.79L1512.53 477.165L1502.92 515.879C1502.07 515.742 1501.19 515.674 1500.31 515.674C1496.69 515.674 1493 516.799 1489.89 519.153C1482.1 524.951 1480.48 536.071 1486.27 543.882ZM1491.88 521.882C1498.18 517.175 1507.04 518.505 1511.71 524.815C1513.98 527.885 1514.89 531.671 1514.35 535.423C1513.81 539.209 1511.82 542.517 1508.77 544.803C1506.27 546.713 1503.29 547.6 1500.34 547.6C1496.01 547.6 1491.75 545.621 1488.97 541.869C1484.3 535.525 1485.62 526.589 1491.88 521.882Z" fill="#075D46"/>
<path d="M1681.29 773.229C1687.07 781.04 1698.07 782.677 1705.85 776.878C1709.61 774.047 1712.05 769.92 1712.76 765.247C1713.43 760.574 1712.28 755.936 1709.47 752.115C1707.38 749.25 1704.5 747.17 1701.25 746.01L1710.56 708.525L1905 567.826V563.631L1708.05 706.137L1707.58 706.478L1697.97 745.191C1697.09 745.055 1696.21 744.987 1695.36 744.987C1691.61 744.987 1687.99 746.18 1684.94 748.466C1677.16 754.298 1675.53 765.384 1681.29 773.229ZM1686.94 751.194C1689.98 748.943 1693.7 747.988 1697.46 748.534C1701.18 749.114 1704.5 751.092 1706.77 754.162C1709 757.232 1709.95 760.984 1709.41 764.77C1708.83 768.522 1706.87 771.864 1703.82 774.116C1701.28 776.026 1698.34 776.947 1695.4 776.947C1691.06 776.947 1686.8 774.934 1684.03 771.182C1679.36 764.872 1680.68 755.901 1686.94 751.194Z" fill="#075D46"/>
<path d="M1437.98 679.395C1440.75 683.181 1444.85 685.637 1449.48 686.354C1454.08 687.036 1458.75 685.876 1462.51 683.045C1466.27 680.214 1468.74 676.121 1469.41 671.448C1470.02 667.321 1469.11 663.262 1467.01 659.783L1600 560.254L1614.49 472.731L1905 263.235V259.04L1611.95 470.377L1611.41 470.787L1596.89 558.344L1465.05 656.986C1461.63 653.2 1456.86 651.153 1452.02 651.153C1448.4 651.153 1444.74 652.313 1441.6 654.633C1437.84 657.464 1435.37 661.591 1434.69 666.264C1434.02 670.936 1435.17 675.609 1437.98 679.395ZM1438.04 666.741C1438.59 662.989 1440.58 659.646 1443.59 657.395C1449.89 652.688 1458.75 654.019 1463.42 660.329C1465.69 663.398 1466.61 667.15 1466.06 670.936C1465.52 674.688 1463.53 678.031 1460.48 680.316C1458.01 682.158 1455.1 683.113 1452.09 683.113C1451.38 683.113 1450.67 683.079 1449.99 682.977C1446.23 682.397 1442.95 680.419 1440.68 677.349C1438.42 674.279 1437.5 670.527 1438.04 666.741Z" fill="#075D46"/>
<path d="M1324.65 505.441C1330.43 513.286 1341.43 514.889 1349.18 509.09C1356.49 503.633 1358.28 493.537 1353.72 485.862L1905 85.29V81.0605L1351.69 483.1C1348.98 480.064 1345.39 478.017 1341.3 477.403C1340.45 477.267 1339.57 477.199 1338.69 477.199C1334.97 477.199 1331.35 478.427 1328.27 480.712C1320.52 486.51 1318.89 497.596 1324.65 505.441ZM1330.3 483.441C1333.34 481.155 1337.07 480.234 1340.82 480.78C1344.55 481.326 1347.86 483.338 1350.1 486.374C1354.77 492.718 1353.45 501.655 1347.18 506.362C1344.65 508.272 1341.7 509.159 1338.76 509.159C1334.43 509.159 1330.13 507.18 1327.35 503.394C1322.72 497.084 1324.04 488.114 1330.3 483.441Z" fill="#075D46"/>
<path d="M1436.59 476.449C1439.36 480.235 1443.46 482.725 1448.1 483.407C1452.73 484.089 1457.37 482.929 1461.12 480.098C1464.88 477.301 1467.35 473.174 1468.03 468.501C1468.64 464.408 1467.72 460.349 1465.66 456.836L1905 138.636V134.475L1463.7 454.073C1460.28 450.253 1455.47 448.207 1450.63 448.207C1447.01 448.207 1443.36 449.366 1440.21 451.686C1436.45 454.517 1433.98 458.644 1433.31 463.317C1432.63 467.99 1433.78 472.663 1436.59 476.449ZM1436.66 463.829C1437.2 460.042 1439.2 456.7 1442.24 454.449C1448.5 449.742 1457.37 451.072 1462.04 457.382C1464.3 460.452 1465.22 464.204 1464.68 467.99C1464.14 471.776 1462.14 475.084 1459.09 477.37C1456.62 479.212 1453.71 480.167 1450.7 480.167C1449.99 480.167 1449.28 480.132 1448.6 480.03C1444.85 479.484 1441.56 477.472 1439.3 474.402C1437.03 471.367 1436.12 467.58 1436.66 463.829Z" fill="#075D46"/>
<path d="M1466.27 235.266C1472.02 243.111 1483.05 244.748 1490.8 238.916C1498.11 233.458 1499.9 223.362 1495.34 215.688L1793.84 0.973633H1787.98L1493.37 212.891C1489.95 209.071 1485.18 207.058 1480.34 207.058C1476.69 207.058 1473.03 208.184 1469.89 210.537C1462.14 216.336 1460.51 227.421 1466.27 235.266ZM1471.92 213.266C1478.18 208.559 1487.08 209.889 1491.71 216.199C1496.38 222.544 1495.06 231.48 1488.8 236.187C1486.27 238.097 1483.32 238.984 1480.38 238.984C1476.05 238.984 1471.75 237.006 1468.97 233.22C1464.34 226.91 1465.66 217.939 1471.92 213.266Z" fill="#075D46"/>
<path d="M1350.5 78.0934C1356.25 85.9384 1367.29 87.5756 1375.03 81.743C1378.79 78.9461 1381.26 74.8189 1381.94 70.146C1382.55 66.053 1381.63 61.9941 1379.57 58.515L1459.57 0.973633H1453.68L1377.54 55.7522C1374.83 52.7165 1371.24 50.67 1367.15 50.056C1366.27 49.9196 1365.42 49.8514 1364.54 49.8514C1360.82 49.8514 1357.2 51.0452 1354.12 53.3646C1350.37 56.1615 1347.93 60.2886 1347.22 64.9615C1346.54 69.6344 1347.69 74.3073 1350.5 78.0934ZM1350.57 65.4731C1351.14 61.6871 1353.11 58.3444 1356.15 56.0933C1359.2 53.808 1362.92 52.8529 1366.64 53.4328C1370.4 53.9785 1373.72 55.9909 1375.95 59.0266C1378.22 62.0964 1379.16 65.8483 1378.59 69.6344C1378.05 73.4205 1376.05 76.729 1373.04 79.0143C1370.5 80.8903 1367.52 81.8112 1364.61 81.8112C1360.28 81.8112 1355.98 79.8329 1353.21 76.0468C1350.97 73.0112 1350.03 69.2251 1350.57 65.4731Z" fill="#075D46"/>
<path d="M1273.35 295.059C1276.16 298.845 1280.25 301.301 1284.89 301.983C1289.49 302.699 1294.12 301.539 1297.88 298.708C1305.19 293.251 1306.98 283.155 1302.41 275.446L1681.12 0.973633H1675.3L1300.38 272.717C1297.68 269.648 1294.09 267.601 1290 267.021C1289.12 266.885 1288.27 266.817 1287.39 266.817C1283.67 266.817 1280.05 268.01 1276.97 270.296C1273.21 273.127 1270.77 277.254 1270.06 281.927C1269.39 286.6 1270.54 291.238 1273.35 295.059ZM1273.41 282.404C1273.99 278.652 1275.95 275.31 1279 273.059C1282.04 270.773 1285.77 269.818 1289.52 270.398C1293.24 270.944 1296.56 272.922 1298.79 275.992C1303.46 282.302 1302.14 291.273 1295.88 295.98C1293.41 297.821 1290.47 298.777 1287.46 298.777C1286.78 298.777 1286.07 298.742 1285.36 298.64C1281.64 298.06 1278.32 296.082 1276.05 293.012C1273.82 289.942 1272.87 286.19 1273.41 282.404Z" fill="#075D46"/>
<path d="M1667 507.795C1669.81 511.581 1673.87 514.071 1678.51 514.753C1683.15 515.435 1687.78 514.275 1691.54 511.444C1695.33 508.648 1697.76 504.52 1698.44 499.847C1699.05 495.754 1698.17 491.696 1696.07 488.216L1905 337.934V333.704L1694.11 485.42C1690.69 481.599 1685.92 479.587 1681.08 479.587C1677.43 479.587 1673.77 480.713 1670.63 483.066C1666.87 485.863 1664.43 489.99 1663.72 494.663C1663.05 499.336 1664.2 504.009 1667 507.795ZM1667.07 495.175C1667.65 491.389 1669.61 488.08 1672.66 485.795C1678.92 481.088 1687.82 482.418 1692.45 488.728C1694.72 491.798 1695.67 495.584 1695.09 499.336C1694.55 503.122 1692.55 506.43 1689.54 508.716C1687.07 510.558 1684.13 511.547 1681.12 511.547C1680.41 511.547 1679.73 511.479 1679.02 511.376C1675.3 510.83 1671.98 508.818 1669.71 505.748C1667.48 502.713 1666.53 498.927 1667.07 495.175Z" fill="#075D46"/>
<path d="M1793.63 756.174C1796.41 759.96 1800.5 762.416 1805.14 763.098C1809.77 763.815 1814.41 762.621 1818.17 759.824C1821.92 756.993 1824.39 752.866 1825.07 748.193C1825.68 744.1 1824.77 740.075 1822.7 736.562L1905 677.349V673.188L1820.74 733.799C1817.32 729.979 1812.55 727.932 1807.68 727.932C1804.06 727.932 1800.4 729.058 1797.25 731.411C1793.5 734.242 1791.03 738.37 1790.35 743.043C1789.67 747.715 1790.82 752.354 1793.63 756.174ZM1793.7 743.52C1794.24 739.768 1796.24 736.425 1799.28 734.14C1805.54 729.467 1814.44 730.798 1819.08 737.108C1821.35 740.177 1822.26 743.929 1821.72 747.715C1821.18 751.467 1819.18 754.81 1816.17 757.061C1813.7 758.937 1810.76 759.892 1807.74 759.892C1807.03 759.892 1806.36 759.858 1805.65 759.722C1801.89 759.176 1798.61 757.198 1796.34 754.128C1794.07 751.058 1793.16 747.306 1793.7 743.52Z" fill="#075D46"/>
<path d="M1554.42 676.632C1557.19 680.418 1561.29 682.908 1565.93 683.591C1570.56 684.273 1575.2 683.113 1578.95 680.282C1582.71 677.485 1585.18 673.358 1585.86 668.685C1586.47 664.592 1585.55 660.533 1583.49 657.054L1905 424.023V419.794L1581.53 654.257C1578.11 650.437 1573.34 648.424 1568.46 648.424C1564.84 648.424 1561.19 649.55 1558.04 651.904C1554.28 654.7 1551.81 658.828 1551.14 663.5C1550.46 668.173 1551.61 672.846 1554.42 676.632ZM1554.49 664.012C1555.03 660.226 1557.03 656.917 1560.07 654.632C1566.33 649.925 1575.23 651.255 1579.87 657.566C1582.13 660.635 1583.08 664.421 1582.51 668.173C1581.97 671.959 1579.97 675.268 1576.96 677.553C1574.49 679.395 1571.54 680.384 1568.53 680.384C1567.82 680.384 1567.14 680.316 1566.43 680.214C1562.68 679.668 1559.39 677.656 1557.13 674.62C1554.86 671.55 1553.95 667.764 1554.49 664.012Z" fill="#075D46"/>
<path d="M1535.84 765.349C1541.63 773.194 1552.63 774.832 1560.41 769.033C1567.68 763.576 1569.48 753.48 1564.91 745.771L1905 498.756V494.561L1562.95 742.974C1559.53 739.154 1554.76 737.141 1549.92 737.141C1546.26 737.141 1542.61 738.267 1539.46 740.621C1531.71 746.419 1530.09 757.538 1535.84 765.349ZM1541.49 743.349C1547.75 738.676 1556.65 740.007 1561.29 746.317C1565.96 752.627 1564.64 761.597 1558.38 766.27C1552.12 770.977 1543.22 769.647 1538.55 763.337C1533.91 757.027 1535.23 748.056 1541.49 743.349Z" fill="#075D46"/>
<path d="M1725.72 877.226C1731.5 885.071 1742.5 886.708 1750.28 880.91C1757.56 875.452 1759.35 865.356 1754.78 857.647L1905 748.534V744.338L1752.82 854.85C1749.4 851.03 1744.63 849.018 1739.79 849.018C1736.14 849.018 1732.48 850.143 1729.34 852.497C1721.59 858.295 1719.96 869.415 1725.72 877.226ZM1731.37 855.226C1737.63 850.553 1746.53 851.883 1751.16 858.193C1755.83 864.503 1754.51 873.474 1748.25 878.147C1741.99 882.854 1733.09 881.523 1728.42 875.213C1723.79 868.903 1725.11 859.933 1731.37 855.226Z" fill="#075D46"/>
<path d="M1363.33 376.988C1369.08 384.833 1380.11 386.47 1387.86 380.638C1391.62 377.841 1394.09 373.713 1394.76 369.041V369.006L1434.25 370.951L1905 30.3755V26.146L1433.24 367.472L1394.93 365.596C1394.76 362.117 1393.61 358.774 1391.48 355.909C1388.06 351.236 1382.75 348.78 1377.4 348.78C1373.75 348.78 1370.09 349.906 1366.95 352.259C1359.2 358.058 1357.54 369.143 1363.33 376.988ZM1368.98 354.988C1375.24 350.281 1384.14 351.611 1388.77 357.921C1391.04 360.991 1391.99 364.777 1391.41 368.529C1390.87 372.315 1388.88 375.624 1385.86 377.909C1383.33 379.819 1380.35 380.706 1377.44 380.706C1373.11 380.706 1368.81 378.727 1366.03 374.941C1361.4 368.631 1362.68 359.661 1368.98 354.988Z" fill="#075D46"/>
<path d="M1230.03 397.112C1232.84 400.898 1236.94 403.388 1241.57 404.07C1246.21 404.752 1250.84 403.592 1254.6 400.761C1261.91 395.304 1263.7 385.208 1259.1 377.499L1394.15 276.435L1476.62 288.714L1477.3 288.817L1876.44 0.973633H1870.62L1476.45 285.235L1393.27 272.854L1257.14 374.702C1253.72 370.916 1248.95 368.904 1244.11 368.904C1240.49 368.904 1236.8 370.03 1233.69 372.349C1225.9 378.182 1224.28 389.267 1230.03 397.112ZM1235.68 375.112C1241.94 370.405 1250.84 371.735 1255.51 378.045C1260.15 384.389 1258.86 393.326 1252.57 398.033C1250.1 399.875 1247.19 400.83 1244.18 400.83C1243.47 400.83 1242.76 400.796 1242.08 400.693C1238.32 400.148 1235.01 398.135 1232.77 395.065C1228.1 388.755 1229.42 379.785 1235.68 375.112Z" fill="#075D46"/>
<path d="M1128.44 259.176C1131.25 262.962 1135.35 265.452 1139.98 266.135C1144.62 266.817 1149.22 265.657 1153.01 262.826C1160.29 257.369 1162.08 247.272 1157.51 239.564L1292.57 138.5L1375.03 150.779L1375.71 150.881L1583.59 0.973633H1577.77L1374.87 147.3L1291.65 134.918L1155.55 236.801C1152.13 232.981 1147.36 230.968 1142.52 230.968C1138.87 230.968 1135.21 232.094 1132.07 234.448C1124.32 240.246 1122.69 251.365 1128.44 259.176ZM1134.1 237.176C1140.36 232.469 1149.26 233.799 1153.93 240.11C1158.56 246.454 1157.24 255.39 1150.98 260.097C1148.51 261.939 1145.6 262.928 1142.56 262.928C1141.88 262.928 1141.17 262.86 1140.46 262.758C1136.74 262.212 1133.42 260.2 1131.19 257.13C1126.52 250.82 1127.84 241.883 1134.1 237.176Z" fill="#075D46"/>
<path d="M1486.27 543.882C1492.02 551.727 1503.05 553.364 1510.8 547.531C1514.56 544.734 1517.03 540.607 1517.7 535.934C1518.38 531.262 1517.23 526.589 1514.42 522.803C1512.29 519.869 1509.38 517.823 1506.2 516.697L1515.5 479.212L1905 197.372V193.176L1513.03 476.79L1512.53 477.165L1502.92 515.879C1502.07 515.742 1501.19 515.674 1500.31 515.674C1496.69 515.674 1493 516.799 1489.89 519.153C1482.1 524.951 1480.48 536.071 1486.27 543.882ZM1491.88 521.882C1498.18 517.175 1507.04 518.505 1511.71 524.815C1513.98 527.885 1514.89 531.671 1514.35 535.423C1513.81 539.209 1511.82 542.517 1508.77 544.803C1506.27 546.713 1503.29 547.6 1500.34 547.6C1496.01 547.6 1491.75 545.621 1488.97 541.869C1484.3 535.525 1485.62 526.589 1491.88 521.882Z" fill="#075D46"/>
<path d="M1681.29 773.229C1687.07 781.04 1698.07 782.677 1705.85 776.878C1709.61 774.047 1712.05 769.92 1712.76 765.247C1713.43 760.574 1712.28 755.936 1709.47 752.115C1707.38 749.25 1704.5 747.17 1701.25 746.01L1710.56 708.525L1905 567.826V563.631L1708.05 706.137L1707.58 706.478L1697.97 745.191C1697.09 745.055 1696.21 744.987 1695.36 744.987C1691.61 744.987 1687.99 746.18 1684.94 748.466C1677.16 754.298 1675.53 765.384 1681.29 773.229ZM1686.94 751.194C1689.98 748.943 1693.7 747.988 1697.46 748.534C1701.18 749.114 1704.5 751.092 1706.77 754.162C1709 757.232 1709.95 760.984 1709.41 764.77C1708.83 768.522 1706.87 771.864 1703.82 774.116C1701.28 776.026 1698.34 776.947 1695.4 776.947C1691.06 776.947 1686.8 774.934 1684.03 771.182C1679.36 764.872 1680.68 755.901 1686.94 751.194Z" fill="#075D46"/>
<path d="M1816.64 926.854C1822.43 934.665 1833.43 936.302 1841.21 930.504C1844.97 927.673 1847.4 923.545 1848.12 918.872C1848.79 914.2 1847.64 909.561 1844.83 905.741C1842.73 902.876 1839.86 900.795 1836.61 899.635L1845.92 862.15L1905 819.412V815.182L1843.41 859.762L1842.94 860.103L1833.33 898.817C1832.45 898.68 1831.57 898.612 1830.72 898.612C1826.97 898.612 1823.34 899.806 1820.3 902.091C1812.52 907.924 1810.89 919.009 1816.64 926.854ZM1822.3 904.82C1825.34 902.569 1829.06 901.613 1832.82 902.159C1836.54 902.739 1839.86 904.717 1842.13 907.787C1844.36 910.857 1845.31 914.609 1844.76 918.395C1844.19 922.147 1842.23 925.49 1839.18 927.741C1836.64 929.651 1833.7 930.572 1830.76 930.572C1826.42 930.572 1822.16 928.559 1819.39 924.807C1814.72 918.497 1816.03 909.527 1822.3 904.82Z" fill="#075D46"/>
<path d="M1160.59 60.2204C1166.38 68.0654 1177.38 69.7026 1185.16 63.9042C1192.44 58.4468 1194.23 48.3506 1189.66 40.642L1244.28 0.973633H1238.46L1187.7 37.8451C1184.28 34.0249 1179.51 32.0125 1174.67 32.0125C1171.02 32.0125 1167.36 33.1381 1164.21 35.4916C1156.46 41.2901 1154.84 52.4095 1160.59 60.2204ZM1166.24 38.2203C1172.5 33.5474 1181.4 34.8777 1186.04 41.1878C1190.71 47.4979 1189.39 56.4685 1183.13 61.1413C1176.87 65.8483 1167.97 64.5181 1163.3 58.208C1158.66 51.8979 1159.98 42.9273 1166.24 38.2203Z" fill="#075D46"/>
<path d="M1045.16 41.563C1050.95 49.408 1061.95 51.0452 1069.73 45.2467C1077.01 39.7893 1078.8 29.6931 1074.23 21.9846L1103.17 0.973633H1097.35L1072.27 19.1877C1068.85 15.3675 1064.08 13.3551 1059.24 13.3551C1055.59 13.3551 1051.93 14.4807 1048.79 16.8342C1041.04 22.6326 1039.41 33.7521 1045.16 41.563ZM1050.82 19.5629C1057.08 14.89 1065.98 16.2202 1070.61 22.5303C1075.28 28.8404 1073.96 37.811 1067.7 42.4839C1061.44 47.1909 1052.54 45.8607 1047.87 39.5506C1043.24 33.2404 1044.56 24.2699 1050.82 19.5629Z" fill="#075D46"/>
<path d="M1251.52 109.814C1257.31 117.625 1268.3 119.263 1276.09 113.464C1279.84 110.633 1282.28 106.506 1282.99 101.833C1283.67 97.1601 1282.52 92.5213 1279.71 88.7012C1277.61 85.836 1274.73 83.7554 1271.49 82.5957L1280.79 45.1103L1341.8 0.973633H1335.98L1278.29 42.7227L1277.81 43.0637L1268.2 81.7771C1267.32 81.6407 1266.44 81.5724 1265.6 81.5724C1261.84 81.5724 1258.22 82.7662 1255.17 85.0515C1247.39 90.8841 1245.77 101.969 1251.52 109.814ZM1257.17 87.7802C1260.22 85.5291 1263.94 84.574 1267.7 85.1197C1271.42 85.6996 1274.73 87.6779 1277 90.7477C1279.23 93.8175 1280.18 97.5694 1279.64 101.355C1279.07 105.107 1277.1 108.45 1274.06 110.701C1271.52 112.611 1268.57 113.532 1265.63 113.532C1261.3 113.532 1257.04 111.52 1254.26 107.768C1249.59 101.458 1250.91 92.4872 1257.17 87.7802Z" fill="#075D46"/>
<path d="M1437.98 679.395C1440.75 683.181 1444.85 685.637 1449.48 686.354C1454.08 687.036 1458.75 685.876 1462.51 683.045C1466.27 680.214 1468.74 676.121 1469.41 671.448C1470.02 667.321 1469.11 663.262 1467.01 659.783L1600 560.254L1614.49 472.731L1905 263.235V259.04L1611.95 470.377L1611.41 470.787L1596.89 558.344L1465.05 656.986C1461.63 653.2 1456.86 651.153 1452.02 651.153C1448.4 651.153 1444.74 652.313 1441.6 654.633C1437.84 657.464 1435.37 661.591 1434.69 666.264C1434.02 670.936 1435.17 675.609 1437.98 679.395ZM1438.04 666.741C1438.59 662.989 1440.58 659.646 1443.59 657.395C1449.89 652.688 1458.75 654.019 1463.42 660.329C1465.69 663.398 1466.61 667.15 1466.06 670.936C1465.52 674.688 1463.53 678.031 1460.48 680.316C1458.01 682.158 1455.1 683.113 1452.09 683.113C1451.38 683.113 1450.67 683.079 1449.99 682.977C1446.23 682.397 1442.95 680.419 1440.68 677.349C1438.42 674.279 1437.5 670.527 1438.04 666.741Z" fill="#075D46"/>
</svg>
