<svg viewBox="0 0 321 613" fill="none" xmlns="http://www.w3.org/2000/svg">
<path d="M97.3665 281.554C96.3957 276.4 94.5505 275.347 93.2504 279.157C92.0241 282.742 91.7232 289.376 92.4896 294.418L0 557.602V560.381L92.8303 296.233C93.2845 298.228 93.8863 299.572 94.5732 299.976C94.7152 300.065 94.8628 300.11 95.0104 300.11C95.6349 300.11 96.2424 299.303 96.759 297.802C98.0591 293.992 98.3316 286.709 97.3665 281.554ZM96.4184 296.009C95.9074 297.51 95.2829 298.115 94.6527 297.757C94.0282 297.398 93.4718 296.076 93.0971 294.082C92.3136 289.913 92.5351 284.042 93.5854 280.949C94.0112 279.694 94.5051 279.112 94.999 279.112C95.7257 279.112 96.4468 280.412 96.9123 282.899C97.6901 287.045 97.4687 292.939 96.4184 296.009Z" fill="#075D46" fill-opacity="0.4"/>
<path d="M78.5858 300.603C78.1203 298.115 77.4333 296.479 76.6555 296.031C75.8777 295.583 75.0999 296.345 74.4698 298.205C73.8396 300.043 73.4251 302.754 73.3116 305.824C73.2094 308.514 73.3627 311.18 73.709 313.489L0 522.553V525.287L74.0383 315.304C74.6117 317.814 75.4179 319.158 76.2297 319.158C76.8372 319.158 77.4504 318.396 77.9784 316.873C78.6085 315.013 79.023 312.301 79.1365 309.231C79.2501 306.161 79.0571 303.09 78.5858 300.603ZM78.5745 308.895C78.4836 311.382 78.1487 313.578 77.6377 315.057C76.5874 318.15 75.0999 317.276 74.3165 313.13C73.9361 311.113 73.7828 308.648 73.8736 306.161C73.9645 303.673 74.2994 301.499 74.8104 299.998C75.2248 298.788 75.7131 298.16 76.2184 298.16C76.3376 298.16 76.4568 298.183 76.5704 298.25C77.2006 298.608 77.7513 299.931 78.1316 301.948C78.512 303.942 78.6653 306.429 78.5745 308.895Z" fill="#075D46" fill-opacity="0.4"/>
<path d="M73.6066 459.065C72.6415 453.911 70.7906 452.835 69.4905 456.667C68.2642 460.253 67.9633 466.886 68.7298 471.928L18.6499 613H19.6321L69.0591 473.766C69.6325 476.276 70.433 477.598 71.2448 477.598C71.858 477.598 72.4711 476.858 72.9991 475.312C74.2992 471.502 74.5718 464.219 73.6066 459.065ZM72.6585 473.519C71.6082 476.612 70.115 475.738 69.3372 471.592C68.5538 467.424 68.7752 461.552 69.8255 458.46C70.2513 457.205 70.7452 456.622 71.2392 456.622C71.9659 456.622 72.6869 457.922 73.1524 460.409C73.9302 464.555 73.7088 470.449 72.6585 473.519Z" fill="#075D46" fill-opacity="0.4"/>
<path d="M93.029 562.33C92.0639 557.176 90.2131 556.1 88.913 559.933C88.2828 561.77 87.8683 564.482 87.7548 567.552C87.6526 570.241 87.8059 572.908 88.1522 575.194L74.731 613H75.7188L88.4928 577.009C88.947 579.004 89.5488 580.348 90.2358 580.752C90.3834 580.841 90.5253 580.886 90.6729 580.886C91.2975 580.886 91.9049 580.102 92.4216 578.578C93.0517 576.74 93.4605 574.028 93.5797 570.958C93.6933 567.888 93.5003 564.818 93.029 562.33ZM93.0177 570.622C92.9212 573.11 92.5919 575.306 92.0809 576.785C91.57 578.286 90.9455 578.914 90.3209 578.533C89.6908 578.174 89.1344 576.852 88.7597 574.858C88.3793 572.841 88.2203 570.376 88.3168 567.888C88.4077 565.401 88.7426 563.227 89.2479 561.725C89.6737 560.493 90.1733 559.888 90.6616 559.888C91.3883 559.888 92.1093 561.188 92.5749 563.675C92.9496 565.67 93.1085 568.157 93.0177 570.622Z" fill="#075D46" fill-opacity="0.4"/>
<path d="M105.974 419.78C105.502 417.292 104.815 415.679 104.038 415.231C103.265 414.76 102.488 415.522 101.857 417.382C100.631 420.968 100.33 427.601 101.097 432.666L37.5615 613H38.538L101.437 434.459C101.892 436.475 102.493 437.82 103.18 438.201C103.328 438.291 103.47 438.335 103.617 438.335C104.242 438.335 104.849 437.551 105.366 436.05C105.996 434.19 106.405 431.478 106.524 428.408C106.638 425.338 106.445 422.29 105.974 419.78ZM105.962 428.094C105.866 430.559 105.536 432.755 105.025 434.234C104.514 435.736 103.89 436.363 103.26 435.982C102.635 435.624 102.079 434.324 101.704 432.307C100.921 428.161 101.142 422.267 102.192 419.175C102.607 417.965 103.101 417.337 103.606 417.337C103.72 417.337 103.839 417.36 103.958 417.427C104.583 417.808 105.139 419.108 105.519 421.125C105.894 423.141 106.053 425.607 105.962 428.094Z" fill="#075D46" fill-opacity="0.4"/>
<path d="M39.9288 280.008C39.4576 277.521 38.7763 275.885 37.9985 275.437C37.2207 274.989 36.4429 275.75 35.8127 277.611C35.1768 279.448 34.7681 282.16 34.6545 285.23C34.5523 287.919 34.6999 290.586 35.0519 292.872L0 391.611V394.39L35.3812 294.709C35.9546 297.219 36.7551 298.542 37.567 298.542C38.1802 298.542 38.7933 297.802 39.3213 296.256C39.9515 294.418 40.3603 291.706 40.4795 288.636C40.593 285.566 40.4 282.496 39.9288 280.008ZM39.9174 288.3C39.8209 290.788 39.4916 292.961 38.9807 294.463C37.9304 297.555 36.4372 296.682 35.6594 292.536C35.279 290.519 35.1201 288.031 35.2166 285.566C35.3074 283.079 35.6424 280.905 36.1477 279.403C36.5621 278.193 37.056 277.543 37.5613 277.543C37.6806 277.543 37.7941 277.588 37.9133 277.655C38.5378 278.014 39.0942 279.336 39.4746 281.353C39.8493 283.348 40.0083 285.835 39.9174 288.3Z" fill="#075D46" fill-opacity="0.4"/>
<path d="M18.6841 116.818C18.2186 114.33 17.5316 112.717 16.7539 112.268C15.9761 111.798 15.1983 112.582 14.5681 114.42C13.9379 116.28 13.5234 118.992 13.4099 122.062C13.3077 124.751 13.461 127.395 13.8073 129.704L0 168.607V171.342L14.1366 131.519C14.71 134.029 15.5105 135.373 16.3281 135.373C16.9355 135.373 17.5487 134.634 18.0767 133.087C18.7069 131.227 19.1213 128.516 19.2349 125.446C19.3484 122.375 19.1554 119.328 18.6841 116.818ZM18.6728 125.132C18.582 127.597 18.247 129.793 17.736 131.295C16.6857 134.365 15.1926 133.491 14.4148 129.345C14.0344 127.328 13.8811 124.863 13.972 122.375C14.0628 119.91 14.3978 117.714 14.903 116.235C15.3175 115.003 15.8114 114.375 16.3167 114.375C16.4359 114.375 16.5495 114.397 16.6687 114.487C17.2989 114.846 17.8496 116.145 18.23 118.162C18.6103 120.179 18.7636 122.644 18.6728 125.132Z" fill="#075D46" fill-opacity="0.4"/>
<path d="M58.8173 169.078C58.3518 166.591 57.6648 164.955 56.887 164.507C56.1092 164.058 55.3314 164.82 54.7012 166.68C54.071 168.518 53.6566 171.23 53.5431 174.3C53.4409 176.989 53.5942 179.656 53.9405 181.942L0 335.047V337.826L54.2698 183.779C54.8432 186.289 55.6437 187.611 56.4612 187.611C57.0687 187.611 57.6818 186.872 58.2098 185.326C58.84 183.488 59.2545 180.776 59.368 177.706C59.4816 174.636 59.2885 171.566 58.8173 169.078ZM58.806 177.37C58.7151 179.858 58.3802 182.031 57.8692 183.533C56.8189 186.625 55.3257 185.751 54.5479 181.605C54.1676 179.589 54.0086 177.101 54.1051 174.636C54.196 172.148 54.5309 169.975 55.0362 168.473C55.4506 167.263 55.9446 166.613 56.4499 166.613C56.5691 166.613 56.6826 166.658 56.8019 166.725C57.432 167.084 57.9827 168.406 58.3631 170.4C58.7435 172.417 58.8968 174.905 58.806 177.37Z" fill="#075D46" fill-opacity="0.4"/>
<path d="M61.9342 110.79C60.9633 105.635 59.1182 104.56 57.8124 108.37C56.5918 111.955 56.2909 118.589 57.0573 123.653L0 285.947V288.704L57.3866 125.491C57.96 128.001 58.7605 129.323 59.5724 129.323C60.1856 129.323 60.7987 128.583 61.3267 127.037C62.6268 123.227 62.8993 115.922 61.9342 110.79ZM60.9861 125.244C59.9357 128.315 58.4426 127.44 57.6648 123.295C56.8813 119.149 57.1028 113.255 58.1531 110.185C59.2034 107.092 60.6965 107.966 61.48 112.112C62.2578 116.258 62.0364 122.152 60.9861 125.244Z" fill="#075D46" fill-opacity="0.4"/>
<path d="M90.8773 365.951C89.9121 360.797 88.0613 359.721 86.7612 363.553C86.131 365.391 85.7166 368.102 85.603 371.173V371.195L78.9776 369.918L0 593.683V596.461L79.1479 372.203L85.5746 373.436C85.603 375.722 85.7961 377.918 86.1537 379.801C86.7271 382.871 87.6185 384.484 88.5155 384.484C89.1287 384.484 89.7418 383.745 90.2698 382.198C91.5699 378.389 91.8481 371.105 90.8773 365.951ZM89.9292 380.406C88.8788 383.498 87.3857 382.624 86.6079 378.478C86.2275 376.461 86.0686 373.974 86.1651 371.509C86.2559 369.021 86.5909 366.847 87.0962 365.346C87.522 364.091 88.0216 363.508 88.5098 363.508C89.2365 363.508 89.9575 364.808 90.4231 367.296C91.2009 371.442 90.9851 377.335 89.9292 380.406Z" fill="#075D46" fill-opacity="0.4"/>
<path d="M113.24 352.729C112.769 350.242 112.082 348.606 111.304 348.157C110.526 347.709 109.749 348.471 109.118 350.331C107.892 353.917 107.591 360.55 108.363 365.615L85.705 432.016L71.8694 423.948L71.7558 423.881L4.7915 613H5.76801L71.8977 426.234L85.8527 434.369L108.693 367.453C109.266 369.94 110.067 371.262 110.878 371.262C111.486 371.262 112.105 370.523 112.627 368.999C113.933 365.167 114.205 357.883 113.24 352.729ZM112.292 367.184C111.242 370.276 109.749 369.402 108.965 365.256C108.187 361.088 108.403 355.217 109.459 352.124C109.874 350.914 110.362 350.286 110.867 350.286C110.986 350.286 111.105 350.309 111.219 350.376C111.849 350.735 112.406 352.057 112.78 354.074C113.564 358.22 113.342 364.113 112.292 367.184Z" fill="#075D46" fill-opacity="0.4"/>
<path d="M130.284 443.355C129.812 440.868 129.125 439.232 128.348 438.784C127.57 438.335 126.798 439.097 126.162 440.957C124.941 444.543 124.64 451.176 125.407 456.241L102.749 522.642L88.9128 514.575L88.7993 514.507L53.9233 613H54.8998L88.9412 516.86L102.902 524.995L125.736 458.056C126.31 460.566 127.11 461.888 127.922 461.888C128.535 461.888 129.148 461.149 129.676 459.603C130.976 455.793 131.249 448.487 130.284 443.355ZM129.336 457.81C128.285 460.902 126.792 460.028 126.009 455.883C125.231 451.714 125.452 445.843 126.503 442.75C126.917 441.54 127.405 440.89 127.916 440.89C128.03 440.89 128.149 440.935 128.268 441.002C128.893 441.361 129.449 442.683 129.824 444.7C130.607 448.846 130.386 454.717 129.336 457.81Z" fill="#075D46" fill-opacity="0.4"/>
<path d="M70.2515 256.298C69.2863 251.144 67.4355 250.068 66.1354 253.901C65.5052 255.738 65.0908 258.45 64.9772 261.52C64.8637 264.59 65.0567 267.66 65.5279 270.148C65.8856 272.075 66.3739 273.42 66.9075 274.159L65.3463 298.788L0 483.963V486.719L65.7607 300.379L65.8459 300.133L67.4582 274.697C67.6002 274.787 67.7478 274.832 67.8954 274.832C68.5029 274.832 69.1217 274.092 69.644 272.546C70.9498 268.736 71.2223 261.43 70.2515 256.298ZM69.309 270.753C68.2531 273.846 66.7656 272.972 65.9821 268.826C65.6017 266.809 65.4485 264.321 65.5393 261.856C65.6301 259.369 65.9651 257.195 66.476 255.693C66.8962 254.438 67.3958 253.856 67.8897 253.856C68.6164 253.856 69.3318 255.156 69.7973 257.621C70.5808 261.789 70.3594 267.66 69.309 270.753Z" fill="#075D46" fill-opacity="0.4"/>
<path d="M37.5329 105.613C36.5621 100.481 34.717 99.405 33.4112 103.215C32.781 105.075 32.3722 107.786 32.253 110.857C32.1395 113.927 32.3325 116.975 32.8037 119.484C33.1557 121.367 33.6383 122.734 34.1833 123.496L32.622 148.125L0 240.566V243.323L33.0422 149.693L33.1216 149.469L34.734 124.034C34.8816 124.123 35.0292 124.168 35.1712 124.168C35.8014 124.168 36.4088 123.384 36.9198 121.882C38.2256 118.05 38.4981 110.767 37.5329 105.613ZM36.5848 120.09C36.0739 121.569 35.4494 122.196 34.8192 121.838C34.1947 121.457 33.6383 120.157 33.2579 118.14C32.8832 116.123 32.7242 113.658 32.8151 111.17C32.9116 108.705 33.2409 106.509 33.7518 105.03C34.1776 103.775 34.6716 103.17 35.1655 103.17C35.8922 103.17 36.6075 104.492 37.0731 106.957C37.8566 111.103 37.6351 116.997 36.5848 120.09Z" fill="#075D46" fill-opacity="0.4"/>
<path d="M78.3531 167.263C77.8875 164.776 77.2006 163.162 76.4228 162.691C75.6506 162.243 74.8672 163.005 74.237 164.865C73.6068 166.725 73.1924 169.414 73.0788 172.485C72.9766 175.196 73.1299 177.863 73.4819 180.149L51.1699 245.542L48.74 303.046L0 440.689V443.445L49.1658 304.592L49.2567 304.323L51.6922 246.796L73.8112 181.986C74.3846 184.474 75.1851 185.819 75.997 185.819C76.6044 185.819 77.2176 185.057 77.7456 183.533C78.3758 181.673 78.7902 178.961 78.9038 175.891C79.0173 172.821 78.8243 169.751 78.3531 167.263ZM78.3417 175.577C78.2509 178.042 77.9159 180.239 77.4106 181.718C76.3546 184.81 74.8672 183.936 74.0837 179.79C73.7033 177.773 73.55 175.308 73.6409 172.821C73.7317 170.356 74.0667 168.159 74.5776 166.658C74.9921 165.448 75.4803 164.82 75.9856 164.82C76.1048 164.82 76.2241 164.843 76.3376 164.91C76.9678 165.291 77.5185 166.591 77.8989 168.608C78.2793 170.625 78.4325 173.09 78.3417 175.577Z" fill="#075D46" fill-opacity="0.4"/>
<path d="M97.3665 281.554C96.3957 276.4 94.5505 275.347 93.2504 279.157C92.0241 282.742 91.7232 289.376 92.4896 294.418L0 557.602V560.381L92.8303 296.233C93.2845 298.228 93.8863 299.572 94.5732 299.976C94.7152 300.065 94.8628 300.11 95.0104 300.11C95.6349 300.11 96.2424 299.303 96.759 297.802C98.0591 293.992 98.3316 286.709 97.3665 281.554ZM96.4184 296.009C95.9074 297.51 95.2829 298.115 94.6527 297.757C94.0282 297.398 93.4718 296.076 93.0971 294.082C92.3136 289.913 92.5351 284.042 93.5854 280.949C94.0112 279.694 94.5051 279.112 94.999 279.112C95.7257 279.112 96.4468 280.412 96.9123 282.899C97.6901 287.045 97.4687 292.939 96.4184 296.009Z" fill="#075D46" fill-opacity="0.4"/>
<path d="M78.5858 300.603C78.1203 298.115 77.4333 296.479 76.6555 296.031C75.8777 295.583 75.0999 296.345 74.4698 298.205C73.8396 300.043 73.4251 302.754 73.3116 305.824C73.2094 308.514 73.3627 311.18 73.709 313.489L0 522.553V525.287L74.0383 315.304C74.6117 317.814 75.4179 319.158 76.2297 319.158C76.8372 319.158 77.4504 318.396 77.9784 316.873C78.6085 315.013 79.023 312.301 79.1365 309.231C79.2501 306.161 79.0571 303.09 78.5858 300.603ZM78.5745 308.895C78.4836 311.382 78.1487 313.578 77.6377 315.057C76.5874 318.15 75.0999 317.276 74.3165 313.13C73.9361 311.113 73.7828 308.648 73.8736 306.161C73.9645 303.673 74.2994 301.499 74.8104 299.998C75.2248 298.788 75.7131 298.16 76.2184 298.16C76.3376 298.16 76.4568 298.183 76.5704 298.25C77.2006 298.608 77.7513 299.931 78.1316 301.948C78.512 303.942 78.6653 306.429 78.5745 308.895Z" fill="#075D46" fill-opacity="0.4"/>
<path d="M73.6066 459.065C72.6415 453.911 70.7906 452.835 69.4905 456.667C68.2642 460.253 67.9633 466.886 68.7298 471.928L18.6499 613H19.6321L69.0591 473.766C69.6325 476.276 70.433 477.598 71.2448 477.598C71.858 477.598 72.4711 476.858 72.9991 475.312C74.2992 471.502 74.5718 464.219 73.6066 459.065ZM72.6585 473.519C71.6082 476.612 70.115 475.738 69.3372 471.592C68.5538 467.424 68.7752 461.552 69.8255 458.46C70.2513 457.205 70.7452 456.622 71.2392 456.622C71.9659 456.622 72.6869 457.922 73.1524 460.409C73.9302 464.555 73.7088 470.449 72.6585 473.519Z" fill="#075D46" fill-opacity="0.4"/>
<path d="M93.029 562.33C92.0639 557.176 90.2131 556.1 88.913 559.933C88.2828 561.77 87.8683 564.482 87.7548 567.552C87.6526 570.241 87.8059 572.908 88.1522 575.194L74.731 613H75.7188L88.4928 577.009C88.947 579.004 89.5488 580.348 90.2358 580.752C90.3834 580.841 90.5253 580.886 90.6729 580.886C91.2975 580.886 91.9049 580.102 92.4216 578.578C93.0517 576.74 93.4605 574.028 93.5797 570.958C93.6933 567.888 93.5003 564.818 93.029 562.33ZM93.0177 570.622C92.9212 573.11 92.5919 575.306 92.0809 576.785C91.57 578.286 90.9455 578.914 90.3209 578.533C89.6908 578.174 89.1344 576.852 88.7597 574.858C88.3793 572.841 88.2203 570.376 88.3168 567.888C88.4077 565.401 88.7426 563.227 89.2479 561.725C89.6737 560.493 90.1733 559.888 90.6616 559.888C91.3883 559.888 92.1093 561.188 92.5749 563.675C92.9496 565.67 93.1085 568.157 93.0177 570.622Z" fill="#075D46" fill-opacity="0.4"/>
<path d="M105.974 419.78C105.502 417.292 104.815 415.679 104.038 415.231C103.265 414.76 102.488 415.522 101.857 417.382C100.631 420.968 100.33 427.601 101.097 432.666L37.5615 613H38.538L101.437 434.459C101.892 436.475 102.493 437.82 103.18 438.201C103.328 438.291 103.47 438.335 103.617 438.335C104.242 438.335 104.849 437.551 105.366 436.05C105.996 434.19 106.405 431.478 106.524 428.408C106.638 425.338 106.445 422.29 105.974 419.78ZM105.962 428.094C105.866 430.559 105.536 432.755 105.025 434.234C104.514 435.736 103.89 436.363 103.26 435.982C102.635 435.624 102.079 434.324 101.704 432.307C100.921 428.161 101.142 422.267 102.192 419.175C102.607 417.965 103.101 417.337 103.606 417.337C103.72 417.337 103.839 417.36 103.958 417.427C104.583 417.808 105.139 419.108 105.519 421.125C105.894 423.141 106.053 425.607 105.962 428.094Z" fill="#075D46" fill-opacity="0.4"/>
<path d="M39.9288 280.008C39.4576 277.521 38.7763 275.885 37.9985 275.437C37.2207 274.989 36.4429 275.75 35.8127 277.611C35.1768 279.448 34.7681 282.16 34.6545 285.23C34.5523 287.919 34.6999 290.586 35.0519 292.872L0 391.611V394.39L35.3812 294.709C35.9546 297.219 36.7551 298.542 37.567 298.542C38.1802 298.542 38.7933 297.802 39.3213 296.256C39.9515 294.418 40.3603 291.706 40.4795 288.636C40.593 285.566 40.4 282.496 39.9288 280.008ZM39.9174 288.3C39.8209 290.788 39.4916 292.961 38.9807 294.463C37.9304 297.555 36.4372 296.682 35.6594 292.536C35.279 290.519 35.1201 288.031 35.2166 285.566C35.3074 283.079 35.6424 280.905 36.1477 279.403C36.5621 278.193 37.056 277.543 37.5613 277.543C37.6806 277.543 37.7941 277.588 37.9133 277.655C38.5378 278.014 39.0942 279.336 39.4746 281.353C39.8493 283.348 40.0083 285.835 39.9174 288.3Z" fill="#075D46" fill-opacity="0.4"/>
<path d="M18.6841 116.818C18.2186 114.33 17.5316 112.717 16.7539 112.268C15.9761 111.798 15.1983 112.582 14.5681 114.42C13.9379 116.28 13.5234 118.992 13.4099 122.062C13.3077 124.751 13.461 127.395 13.8073 129.704L0 168.607V171.342L14.1366 131.519C14.71 134.029 15.5105 135.373 16.3281 135.373C16.9355 135.373 17.5487 134.634 18.0767 133.087C18.7069 131.227 19.1213 128.516 19.2349 125.446C19.3484 122.375 19.1554 119.328 18.6841 116.818ZM18.6728 125.132C18.582 127.597 18.247 129.793 17.736 131.295C16.6857 134.365 15.1926 133.491 14.4148 129.345C14.0344 127.328 13.8811 124.863 13.972 122.375C14.0628 119.91 14.3978 117.714 14.903 116.235C15.3175 115.003 15.8114 114.375 16.3167 114.375C16.4359 114.375 16.5495 114.397 16.6687 114.487C17.2989 114.846 17.8496 116.145 18.23 118.162C18.6103 120.179 18.7636 122.644 18.6728 125.132Z" fill="#075D46" fill-opacity="0.4"/>
<path d="M58.8173 169.078C58.3518 166.591 57.6648 164.955 56.887 164.507C56.1092 164.058 55.3314 164.82 54.7012 166.68C54.071 168.518 53.6566 171.23 53.5431 174.3C53.4409 176.989 53.5942 179.656 53.9405 181.942L0 335.047V337.826L54.2698 183.779C54.8432 186.289 55.6437 187.611 56.4612 187.611C57.0687 187.611 57.6818 186.872 58.2098 185.326C58.84 183.488 59.2545 180.776 59.368 177.706C59.4816 174.636 59.2885 171.566 58.8173 169.078ZM58.806 177.37C58.7151 179.858 58.3802 182.031 57.8692 183.533C56.8189 186.625 55.3257 185.751 54.5479 181.605C54.1676 179.589 54.0086 177.101 54.1051 174.636C54.196 172.148 54.5309 169.975 55.0362 168.473C55.4506 167.263 55.9446 166.613 56.4499 166.613C56.5691 166.613 56.6826 166.658 56.8019 166.725C57.432 167.084 57.9827 168.406 58.3631 170.4C58.7435 172.417 58.8968 174.905 58.806 177.37Z" fill="#075D46" fill-opacity="0.4"/>
<path d="M61.9342 110.79C60.9633 105.635 59.1182 104.56 57.8124 108.37C56.5918 111.955 56.2909 118.589 57.0573 123.653L0 285.947V288.704L57.3866 125.491C57.96 128.001 58.7605 129.323 59.5724 129.323C60.1856 129.323 60.7987 128.583 61.3267 127.037C62.6268 123.227 62.8993 115.922 61.9342 110.79ZM60.9861 125.244C59.9357 128.315 58.4426 127.44 57.6648 123.295C56.8813 119.149 57.1028 113.255 58.1531 110.185C59.2034 107.092 60.6965 107.966 61.48 112.112C62.2578 116.258 62.0364 122.152 60.9861 125.244Z" fill="#075D46" fill-opacity="0.4"/>
<path d="M30.0786 37.2844C29.1078 32.1301 27.2626 31.0544 25.9568 34.8641C24.7362 38.4498 24.4353 45.0831 25.2017 50.1478L0 121.838V124.594L25.531 51.9855C26.1044 54.4954 26.9049 55.8176 27.7168 55.8176C28.33 55.8176 28.9431 55.0781 29.4711 53.5318C30.7712 49.722 31.0437 42.4164 30.0786 37.2844ZM29.1305 51.7389C28.0802 54.8091 26.587 53.9351 25.8092 49.7892C25.0257 45.6434 25.2472 39.7495 26.2975 36.6794C27.3478 33.5868 28.8409 34.4608 29.6244 38.6066C30.4022 42.7525 30.1808 48.6464 29.1305 51.7389Z" fill="#075D46" fill-opacity="0.4"/>
<path d="M90.8773 365.951C89.9121 360.797 88.0613 359.721 86.7612 363.553C86.131 365.391 85.7166 368.102 85.603 371.173V371.195L78.9776 369.918L0 593.683V596.461L79.1479 372.203L85.5746 373.436C85.603 375.722 85.7961 377.918 86.1537 379.801C86.7271 382.871 87.6185 384.484 88.5155 384.484C89.1287 384.484 89.7418 383.745 90.2698 382.198C91.5699 378.389 91.8481 371.105 90.8773 365.951ZM89.9292 380.406C88.8788 383.498 87.3857 382.624 86.6079 378.478C86.2275 376.461 86.0686 373.974 86.1651 371.509C86.2559 369.021 86.5909 366.847 87.0962 365.346C87.522 364.091 88.0216 363.508 88.5098 363.508C89.2365 363.508 89.9575 364.808 90.4231 367.296C91.2009 371.442 90.9851 377.335 89.9292 380.406Z" fill="#075D46" fill-opacity="0.4"/>
<path d="M113.24 352.729C112.769 350.242 112.082 348.606 111.304 348.157C110.526 347.709 109.749 348.471 109.118 350.331C107.892 353.917 107.591 360.55 108.363 365.615L85.705 432.016L71.8694 423.948L71.7558 423.881L4.7915 613H5.76801L71.8977 426.234L85.8527 434.369L108.693 367.453C109.266 369.94 110.067 371.262 110.878 371.262C111.486 371.262 112.105 370.523 112.627 368.999C113.933 365.167 114.205 357.883 113.24 352.729ZM112.292 367.184C111.242 370.276 109.749 369.402 108.965 365.256C108.187 361.088 108.403 355.217 109.459 352.124C109.874 350.914 110.362 350.286 110.867 350.286C110.986 350.286 111.105 350.309 111.219 350.376C111.849 350.735 112.406 352.057 112.78 354.074C113.564 358.22 113.342 364.113 112.292 367.184Z" fill="#075D46" fill-opacity="0.4"/>
<path d="M130.284 443.355C129.812 440.868 129.125 439.232 128.348 438.784C127.57 438.335 126.798 439.097 126.162 440.957C124.941 444.543 124.64 451.176 125.407 456.241L102.749 522.642L88.9128 514.575L88.7993 514.507L53.9233 613H54.8998L88.9412 516.86L102.902 524.995L125.736 458.056C126.31 460.566 127.11 461.888 127.922 461.888C128.535 461.888 129.148 461.149 129.676 459.603C130.976 455.793 131.249 448.487 130.284 443.355ZM129.336 457.81C128.285 460.902 126.792 460.028 126.009 455.883C125.231 451.714 125.452 445.843 126.503 442.75C126.917 441.54 127.405 440.89 127.916 440.89C128.03 440.89 128.149 440.935 128.268 441.002C128.893 441.361 129.449 442.683 129.824 444.7C130.607 448.846 130.386 454.717 129.336 457.81Z" fill="#075D46" fill-opacity="0.4"/>
<path d="M70.2515 256.298C69.2863 251.144 67.4355 250.068 66.1354 253.901C65.5052 255.738 65.0908 258.45 64.9772 261.52C64.8637 264.59 65.0567 267.66 65.5279 270.148C65.8856 272.075 66.3739 273.42 66.9075 274.159L65.3463 298.788L0 483.963V486.719L65.7607 300.379L65.8459 300.133L67.4582 274.697C67.6002 274.787 67.7478 274.832 67.8954 274.832C68.5029 274.832 69.1217 274.092 69.644 272.546C70.9498 268.736 71.2223 261.43 70.2515 256.298ZM69.309 270.753C68.2531 273.846 66.7656 272.972 65.9821 268.826C65.6017 266.809 65.4485 264.321 65.5393 261.856C65.6301 259.369 65.9651 257.195 66.476 255.693C66.8962 254.438 67.3958 253.856 67.8897 253.856C68.6164 253.856 69.3318 255.156 69.7973 257.621C70.5808 261.789 70.3594 267.66 69.309 270.753Z" fill="#075D46" fill-opacity="0.4"/>
<path d="M37.5329 105.613C36.5621 100.481 34.717 99.405 33.4112 103.215C32.781 105.075 32.3722 107.786 32.253 110.857C32.1395 113.927 32.3325 116.975 32.8037 119.484C33.1557 121.367 33.6383 122.734 34.1833 123.496L32.622 148.125L0 240.566V243.323L33.0422 149.693L33.1216 149.469L34.734 124.034C34.8816 124.123 35.0292 124.168 35.1712 124.168C35.8014 124.168 36.4088 123.384 36.9198 121.882C38.2256 118.05 38.4981 110.767 37.5329 105.613ZM36.5848 120.09C36.0739 121.569 35.4494 122.196 34.8192 121.838C34.1947 121.457 33.6383 120.157 33.2579 118.14C32.8832 116.123 32.7242 113.658 32.8151 111.17C32.9116 108.705 33.2409 106.509 33.7518 105.03C34.1776 103.775 34.6716 103.17 35.1655 103.17C35.8922 103.17 36.6075 104.492 37.0731 106.957C37.8566 111.103 37.6351 116.997 36.5848 120.09Z" fill="#075D46" fill-opacity="0.4"/>
<path d="M14.8236 4.67781C13.8527 -0.454107 12.0076 -1.52979 10.7018 2.27993C10.0716 4.13996 9.66284 6.85158 9.54362 9.92176C9.43007 12.9919 9.6231 16.0397 10.0943 18.5497C10.4463 20.4321 10.9289 21.7991 11.4739 22.5611L9.91265 47.1898L0 75.2696V78.0484L10.3328 48.7585L10.4123 48.5344L12.0246 23.0989C12.1722 23.1886 12.3198 23.2334 12.4618 23.2334C13.092 23.2334 13.6994 22.449 14.2104 20.9475C15.5162 17.1154 15.7887 9.83213 14.8236 4.67781ZM13.8754 19.1547C13.3645 20.6338 12.74 21.2613 12.1098 20.9027C11.4853 20.5217 10.9289 19.222 10.5485 17.205C10.1738 15.1881 10.0148 12.723 10.1057 10.2355C10.2022 7.77039 10.5315 5.57419 11.0424 4.09512C11.4682 2.84016 11.9622 2.2351 12.4561 2.2351C13.1828 2.2351 13.8981 3.55728 14.3637 6.02239C15.1472 10.1683 14.9257 16.0621 13.8754 19.1547Z" fill="#075D46" fill-opacity="0.4"/>
<path d="M124.89 574.074C123.919 568.919 122.074 567.843 120.768 571.653C119.548 575.239 119.247 581.872 120.013 586.937L110.85 613H111.827L120.343 588.775C120.916 591.284 121.717 592.607 122.528 592.607C123.142 592.607 123.755 591.867 124.283 590.321C125.583 586.511 125.855 579.205 124.89 574.074ZM123.942 588.528C122.892 591.598 121.399 590.724 120.621 586.578C119.837 582.432 120.059 576.539 121.109 573.468C122.159 570.376 123.653 571.25 124.436 575.396C125.214 579.542 124.992 585.435 123.942 588.528Z" fill="#075D46" fill-opacity="0.4"/>
<path d="M144.256 586.332C143.285 581.178 141.44 580.102 140.134 583.912C138.913 587.497 138.613 594.131 139.379 599.195L134.525 613H135.501L139.708 601.033C140.282 603.543 141.082 604.865 141.894 604.865C142.507 604.865 143.12 604.126 143.648 602.579C144.949 598.77 145.221 591.464 144.256 586.332ZM143.308 600.787C142.257 603.857 140.764 602.983 139.987 598.837C139.203 594.691 139.424 588.797 140.475 585.727C141.525 582.634 143.018 583.508 143.802 587.654C144.579 591.8 144.358 597.694 143.308 600.787Z" fill="#075D46" fill-opacity="0.4"/>
<path d="M109.635 541.49C108.664 536.358 106.819 535.282 105.513 539.092C104.883 540.952 104.474 543.663 104.355 546.734C104.241 549.804 104.435 552.852 104.906 555.361C105.258 557.244 105.74 558.611 106.285 559.373L104.724 584.002L94.4878 613H95.4643L105.144 585.57L105.224 585.346L106.836 559.911C106.984 560 107.131 560.045 107.273 560.045C107.903 560.045 108.511 559.261 109.022 557.759C110.328 553.927 110.6 546.644 109.635 541.49ZM108.687 555.966C108.176 557.446 107.551 558.073 106.921 557.714C106.297 557.334 105.74 556.034 105.36 554.017C104.985 552 104.826 549.535 104.917 547.047C105.014 544.582 105.343 542.386 105.854 540.907C106.28 539.652 106.774 539.047 107.268 539.047C107.994 539.047 108.71 540.369 109.175 542.834C109.959 546.98 109.737 552.874 108.687 555.966Z" fill="#075D46" fill-opacity="0.4"/>
<path d="M78.3531 167.263C77.8875 164.776 77.2006 163.162 76.4228 162.691C75.6506 162.243 74.8672 163.005 74.237 164.865C73.6068 166.725 73.1924 169.414 73.0788 172.485C72.9766 175.196 73.1299 177.863 73.4819 180.149L51.1699 245.542L48.74 303.046L0 440.689V443.445L49.1658 304.592L49.2567 304.323L51.6922 246.796L73.8112 181.986C74.3846 184.474 75.1851 185.819 75.997 185.819C76.6044 185.819 77.2176 185.057 77.7456 183.533C78.3758 181.673 78.7902 178.961 78.9038 175.891C79.0173 172.821 78.8243 169.751 78.3531 167.263ZM78.3417 175.577C78.2509 178.042 77.9159 180.239 77.4106 181.718C76.3546 184.81 74.8672 183.936 74.0837 179.79C73.7033 177.773 73.55 175.308 73.6409 172.821C73.7317 170.356 74.0667 168.159 74.5776 166.658C74.9921 165.448 75.4803 164.82 75.9856 164.82C76.1048 164.82 76.2241 164.843 76.3376 164.91C76.9678 165.291 77.5185 166.591 77.8989 168.608C78.2793 170.625 78.4325 173.09 78.3417 175.577Z" fill="#075D46" fill-opacity="0.4"/>
<path d="M222.529 331.445C223.501 336.6 225.349 337.653 226.65 333.843C227.878 330.258 228.18 323.624 227.412 318.582L320.023 55.3977V52.6189L227.071 316.767C226.616 314.772 226.014 313.428 225.326 313.024C225.184 312.935 225.036 312.89 224.888 312.89C224.263 312.89 223.655 313.697 223.137 315.198C221.835 319.008 221.563 326.291 222.529 331.445ZM223.478 316.991C223.99 315.489 224.615 314.884 225.246 315.243C225.872 315.601 226.429 316.924 226.804 318.918C227.588 323.086 227.367 328.958 226.315 332.05C225.889 333.305 225.394 333.888 224.9 333.888C224.172 333.888 223.45 332.588 222.984 330.101C222.205 325.955 222.427 320.061 223.478 316.991Z" fill="#075D46" fill-opacity="0.4"/>
<path d="M241.334 312.397C241.8 314.884 242.488 316.52 243.267 316.968C244.046 317.417 244.825 316.655 245.456 314.795C246.087 312.957 246.502 310.245 246.615 307.175C246.718 304.486 246.564 301.819 246.217 299.511L320.023 90.4472V87.7131L245.888 297.696C245.314 295.186 244.506 293.841 243.693 293.841C243.085 293.841 242.471 294.603 241.942 296.127C241.311 297.987 240.896 300.699 240.783 303.769C240.669 306.839 240.862 309.909 241.334 312.397ZM241.346 304.105C241.437 301.618 241.772 299.421 242.284 297.942C243.335 294.85 244.825 295.724 245.609 299.87C245.99 301.886 246.144 304.352 246.053 306.839C245.962 309.327 245.626 311.5 245.115 313.002C244.7 314.212 244.211 314.84 243.705 314.84C243.585 314.84 243.466 314.817 243.352 314.75C242.721 314.391 242.17 313.069 241.789 311.052C241.408 309.058 241.255 306.57 241.346 304.105Z" fill="#075D46" fill-opacity="0.4"/>
<path d="M246.32 153.935C247.286 159.089 249.139 160.165 250.441 156.333C251.669 152.747 251.97 146.114 251.203 141.072L301.348 0H300.365L250.873 139.234C250.299 136.724 249.497 135.402 248.684 135.402C248.07 135.402 247.457 136.141 246.928 137.688C245.626 141.497 245.353 148.781 246.32 153.935ZM247.269 139.48C248.321 136.388 249.816 137.262 250.595 141.408C251.379 145.576 251.157 151.447 250.106 154.54C249.679 155.795 249.185 156.378 248.69 156.378C247.962 156.378 247.24 155.078 246.774 152.59C245.996 148.444 246.217 142.551 247.269 139.48Z" fill="#075D46" fill-opacity="0.4"/>
<path d="M226.872 50.6692C227.839 55.8236 229.692 56.8992 230.994 53.0671C231.625 51.2295 232.04 48.5179 232.153 45.4477C232.256 42.7585 232.102 40.0917 231.755 37.8058L245.194 0H244.205L231.414 35.9906C230.96 33.9961 230.357 32.6515 229.669 32.2481C229.521 32.1585 229.379 32.1137 229.231 32.1137C228.606 32.1137 227.998 32.898 227.481 34.4219C226.849 36.2595 226.44 38.9712 226.321 42.0413C226.207 45.1115 226.4 48.1817 226.872 50.6692ZM226.884 42.3775C226.98 39.89 227.31 37.6938 227.822 36.2147C228.333 34.7132 228.959 34.0858 229.584 34.4667C230.215 34.8253 230.772 36.1475 231.147 38.142C231.528 40.1589 231.687 42.624 231.591 45.1115C231.5 47.599 231.164 49.7728 230.658 51.2743C230.232 52.5069 229.732 53.1119 229.243 53.1119C228.515 53.1119 227.793 51.8121 227.327 49.3246C226.952 47.3301 226.793 44.8426 226.884 42.3775Z" fill="#075D46" fill-opacity="0.4"/>
<path d="M213.911 193.22C214.383 195.707 215.071 197.321 215.849 197.769C216.622 198.24 217.401 197.478 218.032 195.618C219.26 192.032 219.561 185.399 218.794 180.334L282.412 0H281.435L218.453 178.541C217.998 176.524 217.396 175.18 216.708 174.799C216.56 174.709 216.418 174.664 216.27 174.664C215.645 174.664 215.036 175.449 214.519 176.95C213.888 178.81 213.479 181.522 213.359 184.592C213.246 187.662 213.439 190.71 213.911 193.22ZM213.922 184.906C214.019 182.441 214.349 180.244 214.86 178.765C215.372 177.264 215.997 176.636 216.628 177.017C217.253 177.376 217.811 178.676 218.186 180.693C218.97 184.838 218.749 190.732 217.697 193.825C217.282 195.035 216.787 195.663 216.281 195.663C216.168 195.663 216.048 195.64 215.929 195.573C215.304 195.192 214.746 193.892 214.366 191.875C213.99 189.858 213.831 187.393 213.922 184.906Z" fill="#075D46" fill-opacity="0.4"/>
<path d="M280.042 332.992C280.514 335.479 281.196 337.115 281.975 337.563C282.753 338.012 283.532 337.25 284.163 335.39C284.8 333.552 285.209 330.84 285.323 327.77C285.425 325.081 285.277 322.414 284.925 320.128L320.023 221.389V218.611L284.595 318.291C284.021 315.781 283.219 314.459 282.407 314.459C281.793 314.459 281.179 315.198 280.65 316.744C280.019 318.582 279.61 321.294 279.49 324.364C279.377 327.434 279.57 330.504 280.042 332.992ZM280.053 324.7C280.15 322.212 280.479 320.039 280.991 318.537C282.043 315.445 283.538 316.319 284.317 320.465C284.698 322.481 284.857 324.969 284.76 327.434C284.669 329.922 284.334 332.095 283.828 333.597C283.413 334.807 282.918 335.457 282.412 335.457C282.293 335.457 282.179 335.412 282.06 335.345C281.434 334.986 280.877 333.664 280.496 331.647C280.121 329.653 279.962 327.165 280.053 324.7Z" fill="#075D46" fill-opacity="0.4"/>
<path d="M301.314 496.182C301.78 498.67 302.468 500.283 303.247 500.731C304.026 501.202 304.805 500.418 305.436 498.58C306.067 496.72 306.482 494.008 306.595 490.938C306.698 488.249 306.544 485.605 306.197 483.296L320.023 444.392V441.658L305.868 481.481C305.293 478.971 304.492 477.627 303.673 477.627C303.065 477.627 302.451 478.366 301.922 479.912C301.291 481.773 300.876 484.484 300.763 487.554C300.649 490.624 300.842 493.672 301.314 496.182ZM301.326 487.868C301.416 485.403 301.752 483.207 302.264 481.705C303.315 478.635 304.81 479.509 305.589 483.655C305.97 485.672 306.123 488.137 306.033 490.624C305.942 493.09 305.606 495.286 305.1 496.765C304.685 497.997 304.191 498.625 303.685 498.625C303.565 498.625 303.452 498.602 303.332 498.513C302.701 498.154 302.15 496.855 301.769 494.838C301.388 492.821 301.235 490.356 301.326 487.868Z" fill="#075D46" fill-opacity="0.4"/>
<path d="M261.129 443.922C261.595 446.409 262.283 448.045 263.061 448.493C263.84 448.941 264.619 448.18 265.25 446.32C265.881 444.482 266.296 441.77 266.41 438.7C266.512 436.011 266.359 433.344 266.012 431.058L320.023 277.952V275.174L265.682 429.221C265.108 426.711 264.306 425.388 263.488 425.388C262.88 425.388 262.266 426.128 261.737 427.674C261.106 429.512 260.691 432.224 260.577 435.294C260.463 438.364 260.657 441.434 261.129 443.922ZM261.14 435.63C261.231 433.142 261.566 430.969 262.078 429.467C263.13 426.375 264.625 427.249 265.404 431.394C265.784 433.411 265.944 435.899 265.847 438.364C265.756 440.851 265.421 443.025 264.915 444.527C264.5 445.737 264.005 446.387 263.499 446.387C263.38 446.387 263.266 446.342 263.147 446.275C262.516 445.916 261.964 444.594 261.583 442.599C261.203 440.583 261.049 438.095 261.14 435.63Z" fill="#075D46" fill-opacity="0.4"/>
<path d="M258.008 502.21C258.98 507.365 260.827 508.44 262.135 504.631C263.357 501.045 263.658 494.412 262.891 489.347L320.023 327.053V324.297L262.561 487.509C261.987 484.999 261.185 483.677 260.372 483.677C259.758 483.677 259.145 484.417 258.616 485.963C257.314 489.773 257.041 497.078 258.008 502.21ZM258.957 487.756C260.009 484.686 261.504 485.56 262.282 489.706C263.067 493.851 262.845 499.745 261.794 502.815C260.742 505.908 259.247 505.034 258.462 500.888C257.684 496.742 257.905 490.848 258.957 487.756Z" fill="#075D46" fill-opacity="0.4"/>
<path d="M229.027 247.049C229.993 252.203 231.846 253.279 233.148 249.447C233.779 247.609 234.194 244.897 234.308 241.827V241.805L240.942 243.082L320.023 19.3174V16.5386L240.771 240.796L234.336 239.564C234.308 237.278 234.114 235.082 233.756 233.199C233.182 230.129 232.29 228.516 231.391 228.516C230.778 228.516 230.164 229.255 229.635 230.802C228.333 234.611 228.054 241.895 229.027 247.049ZM229.976 232.594C231.028 229.502 232.523 230.376 233.302 234.522C233.682 236.539 233.842 239.026 233.745 241.491C233.654 243.979 233.319 246.152 232.813 247.654C232.386 248.909 231.886 249.492 231.397 249.492C230.67 249.492 229.948 248.192 229.481 245.704C228.703 241.558 228.919 235.665 229.976 232.594Z" fill="#075D46" fill-opacity="0.4"/>
<path d="M206.634 260.271C207.106 262.758 207.794 264.394 208.573 264.843C209.351 265.291 210.13 264.529 210.761 262.669C211.989 259.083 212.29 252.45 211.517 247.385L234.205 180.984L248.059 189.052L248.173 189.119L315.225 0H314.247L248.031 186.766L234.058 178.631L211.188 245.547C210.613 243.06 209.812 241.738 208.999 241.738C208.391 241.738 207.771 242.477 207.248 244.001C205.941 247.833 205.668 255.117 206.634 260.271ZM207.583 245.816C208.635 242.724 210.13 243.598 210.915 247.744C211.694 251.912 211.478 257.783 210.42 260.876C210.005 262.086 209.516 262.714 209.01 262.714C208.891 262.714 208.772 262.691 208.658 262.624C208.027 262.265 207.47 260.943 207.095 258.926C206.31 254.78 206.532 248.887 207.583 245.816Z" fill="#075D46" fill-opacity="0.4"/>
<path d="M189.569 169.644C190.04 172.132 190.728 173.768 191.507 174.216C192.286 174.664 193.059 173.902 193.696 172.042C194.918 168.457 195.219 161.823 194.452 156.759L217.14 90.3575L230.994 98.4252L231.107 98.4924L266.029 0H265.051L230.965 96.1393L216.986 88.0045L194.122 154.943C193.548 152.433 192.746 151.111 191.933 151.111C191.319 151.111 190.706 151.851 190.177 153.397C188.875 157.207 188.602 164.513 189.569 169.644ZM190.518 155.19C191.57 152.097 193.065 152.971 193.849 157.117C194.628 161.285 194.406 167.157 193.355 170.25C192.94 171.46 192.451 172.11 191.939 172.11C191.825 172.11 191.706 172.065 191.587 171.998C190.961 171.639 190.404 170.317 190.029 168.3C189.245 164.154 189.466 158.283 190.518 155.19Z" fill="#075D46" fill-opacity="0.4"/>
<path d="M249.68 356.702C250.646 361.856 252.499 362.932 253.801 359.1C254.432 357.262 254.847 354.551 254.961 351.48C255.074 348.41 254.881 345.34 254.409 342.852C254.051 340.925 253.562 339.581 253.028 338.841L254.591 314.212L320.023 129.038V126.281L254.176 312.621L254.091 312.868L252.477 338.303C252.334 338.214 252.187 338.169 252.039 338.169C251.431 338.169 250.811 338.908 250.288 340.455C248.98 344.264 248.708 351.57 249.68 356.702ZM250.623 342.247C251.681 339.155 253.17 340.029 253.955 344.175C254.335 346.192 254.489 348.679 254.398 351.144C254.307 353.632 253.972 355.806 253.46 357.307C253.039 358.562 252.539 359.145 252.045 359.145C251.317 359.145 250.601 357.845 250.134 355.38C249.35 351.211 249.572 345.34 250.623 342.247Z" fill="#075D46" fill-opacity="0.4"/>
<path d="M282.441 507.387C283.413 512.519 285.26 513.595 286.568 509.785C287.199 507.925 287.608 505.213 287.728 502.143C287.841 499.073 287.648 496.025 287.176 493.515C286.824 491.633 286.341 490.266 285.795 489.504L287.358 464.875L320.023 372.433V369.677L286.937 463.306L286.858 463.53L285.243 488.966C285.096 488.876 284.948 488.831 284.806 488.831C284.175 488.831 283.566 489.616 283.055 491.117C281.747 494.949 281.474 502.233 282.441 507.387ZM283.39 492.91C283.902 491.431 284.527 490.804 285.158 491.162C285.783 491.543 286.341 492.843 286.721 494.86C287.097 496.877 287.256 499.342 287.165 501.829C287.068 504.294 286.738 506.491 286.227 507.97C285.8 509.225 285.306 509.83 284.811 509.83C284.084 509.83 283.367 508.508 282.901 506.042C282.117 501.897 282.338 496.003 283.39 492.91Z" fill="#075D46" fill-opacity="0.4"/>
<path d="M241.567 445.737C242.033 448.225 242.721 449.838 243.5 450.309C244.273 450.757 245.058 449.995 245.689 448.135C246.32 446.275 246.735 443.586 246.848 440.515C246.951 437.804 246.797 435.137 246.445 432.851L268.786 367.459L271.219 309.954L320.023 172.311V169.555L270.793 308.408L270.702 308.677L268.263 366.204L246.115 431.014C245.541 428.526 244.739 427.181 243.926 427.181C243.318 427.181 242.704 427.943 242.175 429.467C241.544 431.327 241.129 434.039 241.016 437.109C240.902 440.179 241.095 443.249 241.567 445.737ZM241.578 437.423C241.669 434.958 242.005 432.762 242.511 431.282C243.568 428.19 245.058 429.064 245.842 433.21C246.223 435.227 246.376 437.692 246.285 440.179C246.194 442.644 245.859 444.841 245.347 446.342C244.932 447.552 244.444 448.18 243.938 448.18C243.818 448.18 243.699 448.157 243.585 448.09C242.954 447.709 242.403 446.409 242.022 444.392C241.641 442.376 241.488 439.91 241.578 437.423Z" fill="#075D46" fill-opacity="0.4"/>
<path d="M222.529 331.445C223.501 336.6 225.349 337.653 226.65 333.843C227.878 330.258 228.18 323.624 227.412 318.582L320.023 55.3977V52.6189L227.071 316.767C226.616 314.772 226.014 313.428 225.326 313.024C225.184 312.935 225.036 312.89 224.888 312.89C224.263 312.89 223.655 313.697 223.137 315.198C221.835 319.008 221.563 326.291 222.529 331.445ZM223.478 316.991C223.99 315.489 224.615 314.884 225.246 315.243C225.872 315.601 226.429 316.924 226.804 318.918C227.588 323.086 227.367 328.958 226.315 332.05C225.889 333.305 225.394 333.888 224.9 333.888C224.172 333.888 223.45 332.588 222.984 330.101C222.205 325.955 222.427 320.061 223.478 316.991Z" fill="#075D46" fill-opacity="0.4"/>
<path d="M241.334 312.397C241.8 314.884 242.488 316.52 243.267 316.968C244.046 317.417 244.825 316.655 245.456 314.795C246.087 312.957 246.502 310.245 246.615 307.175C246.718 304.486 246.564 301.819 246.217 299.511L320.023 90.4472V87.7131L245.888 297.696C245.314 295.186 244.506 293.841 243.693 293.841C243.085 293.841 242.471 294.603 241.942 296.127C241.311 297.987 240.896 300.699 240.783 303.769C240.669 306.839 240.862 309.909 241.334 312.397ZM241.346 304.105C241.437 301.618 241.772 299.421 242.284 297.942C243.335 294.85 244.825 295.724 245.609 299.87C245.99 301.886 246.144 304.352 246.053 306.839C245.962 309.327 245.626 311.5 245.115 313.002C244.7 314.212 244.211 314.84 243.705 314.84C243.585 314.84 243.466 314.817 243.352 314.75C242.721 314.391 242.17 313.069 241.789 311.052C241.408 309.058 241.255 306.57 241.346 304.105Z" fill="#075D46" fill-opacity="0.4"/>
<path d="M246.32 153.935C247.286 159.089 249.139 160.165 250.441 156.333C251.669 152.747 251.97 146.114 251.203 141.072L301.348 0H300.365L250.873 139.234C250.299 136.724 249.497 135.402 248.684 135.402C248.07 135.402 247.457 136.141 246.928 137.688C245.626 141.497 245.353 148.781 246.32 153.935ZM247.269 139.48C248.321 136.388 249.816 137.262 250.595 141.408C251.379 145.576 251.157 151.447 250.106 154.54C249.679 155.795 249.185 156.378 248.69 156.378C247.962 156.378 247.24 155.078 246.774 152.59C245.996 148.444 246.217 142.551 247.269 139.48Z" fill="#075D46" fill-opacity="0.4"/>
<path d="M226.872 50.6692C227.839 55.8236 229.692 56.8992 230.994 53.0671C231.625 51.2295 232.04 48.5179 232.153 45.4477C232.256 42.7585 232.102 40.0917 231.755 37.8058L245.194 0H244.205L231.414 35.9906C230.96 33.9961 230.357 32.6515 229.669 32.2481C229.521 32.1585 229.379 32.1137 229.231 32.1137C228.606 32.1137 227.998 32.898 227.481 34.4219C226.849 36.2595 226.44 38.9712 226.321 42.0413C226.207 45.1115 226.4 48.1817 226.872 50.6692ZM226.884 42.3775C226.98 39.89 227.31 37.6938 227.822 36.2147C228.333 34.7132 228.959 34.0858 229.584 34.4667C230.215 34.8253 230.772 36.1475 231.147 38.142C231.528 40.1589 231.687 42.624 231.591 45.1115C231.5 47.599 231.164 49.7728 230.658 51.2743C230.232 52.5069 229.732 53.1119 229.243 53.1119C228.515 53.1119 227.793 51.8121 227.327 49.3246C226.952 47.3301 226.793 44.8426 226.884 42.3775Z" fill="#075D46" fill-opacity="0.4"/>
<path d="M213.911 193.22C214.383 195.707 215.071 197.321 215.849 197.769C216.622 198.24 217.401 197.478 218.032 195.618C219.26 192.032 219.561 185.399 218.794 180.334L282.412 0H281.435L218.453 178.541C217.998 176.524 217.396 175.18 216.708 174.799C216.56 174.709 216.418 174.664 216.27 174.664C215.645 174.664 215.036 175.449 214.519 176.95C213.888 178.81 213.479 181.522 213.359 184.592C213.246 187.662 213.439 190.71 213.911 193.22ZM213.922 184.906C214.019 182.441 214.349 180.244 214.86 178.765C215.372 177.264 215.997 176.636 216.628 177.017C217.253 177.376 217.811 178.676 218.186 180.693C218.97 184.838 218.749 190.732 217.697 193.825C217.282 195.035 216.787 195.663 216.281 195.663C216.168 195.663 216.048 195.64 215.929 195.573C215.304 195.192 214.746 193.892 214.366 191.875C213.99 189.858 213.831 187.393 213.922 184.906Z" fill="#075D46" fill-opacity="0.4"/>
<path d="M280.042 332.992C280.514 335.479 281.196 337.115 281.975 337.563C282.753 338.012 283.532 337.25 284.163 335.39C284.8 333.552 285.209 330.84 285.323 327.77C285.425 325.081 285.277 322.414 284.925 320.128L320.023 221.389V218.611L284.595 318.291C284.021 315.781 283.219 314.459 282.407 314.459C281.793 314.459 281.179 315.198 280.65 316.744C280.019 318.582 279.61 321.294 279.49 324.364C279.377 327.434 279.57 330.504 280.042 332.992ZM280.053 324.7C280.15 322.212 280.479 320.039 280.991 318.537C282.043 315.445 283.538 316.319 284.317 320.465C284.698 322.481 284.857 324.969 284.76 327.434C284.669 329.922 284.334 332.095 283.828 333.597C283.413 334.807 282.918 335.457 282.412 335.457C282.293 335.457 282.179 335.412 282.06 335.345C281.434 334.986 280.877 333.664 280.496 331.647C280.121 329.653 279.962 327.165 280.053 324.7Z" fill="#075D46" fill-opacity="0.4"/>
<path d="M301.314 496.182C301.78 498.67 302.468 500.283 303.247 500.731C304.026 501.202 304.805 500.418 305.436 498.58C306.067 496.72 306.482 494.008 306.595 490.938C306.698 488.249 306.544 485.605 306.197 483.296L320.023 444.392V441.658L305.868 481.481C305.293 478.971 304.492 477.627 303.673 477.627C303.065 477.627 302.451 478.366 301.922 479.912C301.291 481.773 300.876 484.484 300.763 487.554C300.649 490.624 300.842 493.672 301.314 496.182ZM301.326 487.868C301.416 485.403 301.752 483.207 302.264 481.705C303.315 478.635 304.81 479.509 305.589 483.655C305.97 485.672 306.123 488.137 306.033 490.624C305.942 493.09 305.606 495.286 305.1 496.765C304.685 497.997 304.191 498.625 303.685 498.625C303.565 498.625 303.452 498.602 303.332 498.513C302.701 498.154 302.15 496.855 301.769 494.838C301.388 492.821 301.235 490.356 301.326 487.868Z" fill="#075D46" fill-opacity="0.4"/>
<path d="M261.129 443.922C261.595 446.409 262.283 448.045 263.061 448.493C263.84 448.941 264.619 448.18 265.25 446.32C265.881 444.482 266.296 441.77 266.41 438.7C266.512 436.011 266.359 433.344 266.012 431.058L320.023 277.952V275.174L265.682 429.221C265.108 426.711 264.306 425.388 263.488 425.388C262.88 425.388 262.266 426.128 261.737 427.674C261.106 429.512 260.691 432.224 260.577 435.294C260.463 438.364 260.657 441.434 261.129 443.922ZM261.14 435.63C261.231 433.142 261.566 430.969 262.078 429.467C263.13 426.375 264.625 427.249 265.404 431.394C265.784 433.411 265.944 435.899 265.847 438.364C265.756 440.851 265.421 443.025 264.915 444.527C264.5 445.737 264.005 446.387 263.499 446.387C263.38 446.387 263.266 446.342 263.147 446.275C262.516 445.916 261.964 444.594 261.583 442.599C261.203 440.583 261.049 438.095 261.14 435.63Z" fill="#075D46" fill-opacity="0.4"/>
<path d="M258.008 502.21C258.98 507.365 260.827 508.44 262.135 504.631C263.357 501.045 263.658 494.412 262.891 489.347L320.023 327.053V324.297L262.561 487.509C261.987 484.999 261.185 483.677 260.372 483.677C259.758 483.677 259.145 484.417 258.616 485.963C257.314 489.773 257.041 497.078 258.008 502.21ZM258.957 487.756C260.009 484.686 261.504 485.56 262.282 489.706C263.067 493.851 262.845 499.745 261.794 502.815C260.742 505.908 259.247 505.034 258.462 500.888C257.684 496.742 257.905 490.848 258.957 487.756Z" fill="#075D46" fill-opacity="0.4"/>
<path d="M289.905 575.715C290.877 580.87 292.725 581.945 294.032 578.136C295.254 574.55 295.556 567.917 294.788 562.852L320.023 491.162V488.406L294.459 561.014C293.884 558.504 293.083 557.182 292.27 557.182C291.656 557.182 291.042 557.922 290.513 559.468C289.211 563.278 288.939 570.583 289.905 575.715ZM290.854 561.261C291.906 558.191 293.401 559.065 294.18 563.21C294.964 567.356 294.743 573.25 293.691 576.32C292.639 579.413 291.144 578.539 290.36 574.393C289.581 570.247 289.803 564.353 290.854 561.261Z" fill="#075D46" fill-opacity="0.4"/>
<path d="M229.027 247.049C229.993 252.203 231.846 253.279 233.148 249.447C233.779 247.609 234.194 244.897 234.308 241.827V241.805L240.942 243.082L320.023 19.3174V16.5386L240.771 240.796L234.336 239.564C234.308 237.278 234.114 235.082 233.756 233.199C233.182 230.129 232.29 228.516 231.391 228.516C230.778 228.516 230.164 229.255 229.635 230.802C228.333 234.611 228.054 241.895 229.027 247.049ZM229.976 232.594C231.028 229.502 232.523 230.376 233.302 234.522C233.682 236.539 233.842 239.026 233.745 241.491C233.654 243.979 233.319 246.152 232.813 247.654C232.386 248.909 231.886 249.492 231.397 249.492C230.67 249.492 229.948 248.192 229.481 245.704C228.703 241.558 228.919 235.665 229.976 232.594Z" fill="#075D46" fill-opacity="0.4"/>
<path d="M206.634 260.271C207.106 262.758 207.794 264.394 208.573 264.843C209.351 265.291 210.13 264.529 210.761 262.669C211.989 259.083 212.29 252.45 211.517 247.385L234.205 180.984L248.059 189.052L248.173 189.119L315.225 0H314.247L248.031 186.766L234.058 178.631L211.188 245.547C210.613 243.06 209.812 241.738 208.999 241.738C208.391 241.738 207.771 242.477 207.248 244.001C205.941 247.833 205.668 255.117 206.634 260.271ZM207.583 245.816C208.635 242.724 210.13 243.598 210.915 247.744C211.694 251.912 211.478 257.783 210.42 260.876C210.005 262.086 209.516 262.714 209.01 262.714C208.891 262.714 208.772 262.691 208.658 262.624C208.027 262.265 207.47 260.943 207.095 258.926C206.31 254.78 206.532 248.887 207.583 245.816Z" fill="#075D46" fill-opacity="0.4"/>
<path d="M189.569 169.644C190.04 172.132 190.728 173.768 191.507 174.216C192.286 174.664 193.059 173.902 193.696 172.042C194.918 168.457 195.219 161.823 194.452 156.759L217.14 90.3575L230.994 98.4252L231.107 98.4924L266.029 0H265.051L230.965 96.1393L216.986 88.0045L194.122 154.943C193.548 152.433 192.746 151.111 191.933 151.111C191.319 151.111 190.706 151.851 190.177 153.397C188.875 157.207 188.602 164.513 189.569 169.644ZM190.518 155.19C191.57 152.097 193.065 152.971 193.849 157.117C194.628 161.285 194.406 167.157 193.355 170.25C192.94 171.46 192.451 172.11 191.939 172.11C191.825 172.11 191.706 172.065 191.587 171.998C190.961 171.639 190.404 170.317 190.029 168.3C189.245 164.154 189.466 158.283 190.518 155.19Z" fill="#075D46" fill-opacity="0.4"/>
<path d="M249.68 356.702C250.646 361.856 252.499 362.932 253.801 359.1C254.432 357.262 254.847 354.551 254.961 351.48C255.074 348.41 254.881 345.34 254.409 342.852C254.051 340.925 253.562 339.581 253.028 338.841L254.591 314.212L320.023 129.038V126.281L254.176 312.621L254.091 312.868L252.477 338.303C252.334 338.214 252.187 338.169 252.039 338.169C251.431 338.169 250.811 338.908 250.288 340.455C248.98 344.264 248.708 351.57 249.68 356.702ZM250.623 342.247C251.681 339.155 253.17 340.029 253.955 344.175C254.335 346.192 254.489 348.679 254.398 351.144C254.307 353.632 253.972 355.806 253.46 357.307C253.039 358.562 252.539 359.145 252.045 359.145C251.317 359.145 250.601 357.845 250.134 355.38C249.35 351.211 249.572 345.34 250.623 342.247Z" fill="#075D46" fill-opacity="0.4"/>
<path d="M282.441 507.387C283.413 512.519 285.26 513.595 286.568 509.785C287.199 507.925 287.608 505.213 287.728 502.143C287.841 499.073 287.648 496.025 287.176 493.515C286.824 491.633 286.341 490.266 285.795 489.504L287.358 464.875L320.023 372.433V369.677L286.937 463.306L286.858 463.53L285.243 488.966C285.096 488.876 284.948 488.831 284.806 488.831C284.175 488.831 283.566 489.616 283.055 491.117C281.747 494.949 281.474 502.233 282.441 507.387ZM283.39 492.91C283.902 491.431 284.527 490.804 285.158 491.162C285.783 491.543 286.341 492.843 286.721 494.86C287.097 496.877 287.256 499.342 287.165 501.829C287.068 504.294 286.738 506.491 286.227 507.97C285.8 509.225 285.306 509.83 284.811 509.83C284.084 509.83 283.367 508.508 282.901 506.042C282.117 501.897 282.338 496.003 283.39 492.91Z" fill="#075D46" fill-opacity="0.4"/>
<path d="M305.18 608.322C306.152 613.454 308 614.53 309.307 610.72C309.938 608.86 310.347 606.148 310.467 603.078C310.581 600.008 310.387 596.96 309.915 594.45C309.563 592.568 309.08 591.201 308.534 590.439L310.097 565.81L320.023 537.73V534.951L309.677 564.241L309.597 564.466L307.983 589.901C307.835 589.811 307.687 589.767 307.545 589.767C306.914 589.767 306.306 590.551 305.794 592.052C304.486 595.884 304.214 603.168 305.18 608.322ZM306.129 593.845C306.641 592.366 307.266 591.739 307.897 592.097C308.523 592.478 309.08 593.778 309.461 595.795C309.836 597.812 309.995 600.277 309.904 602.764C309.807 605.229 309.478 607.426 308.966 608.905C308.54 610.16 308.045 610.765 307.551 610.765C306.823 610.765 306.107 609.443 305.641 606.977C304.856 602.832 305.078 596.938 306.129 593.845Z" fill="#075D46" fill-opacity="0.4"/>
<path d="M194.969 38.9263C195.941 44.0807 197.789 45.1564 199.096 41.3466C200.318 37.761 200.62 31.1276 199.852 26.0629L209.027 0H208.05L199.522 24.2253C198.948 21.7154 198.147 20.3932 197.334 20.3932C196.72 20.3932 196.106 21.1327 195.577 22.679C194.275 26.4887 194.003 33.7944 194.969 38.9263ZM195.918 24.4718C196.97 21.4016 198.465 22.2756 199.244 26.4215C200.028 30.5674 199.807 36.4612 198.755 39.5314C197.703 42.624 196.208 41.75 195.424 37.6042C194.645 33.4583 194.867 27.5644 195.918 24.4718Z" fill="#075D46" fill-opacity="0.4"/>
<path d="M175.578 26.668C176.55 31.8223 178.398 32.898 179.706 29.0883C180.928 25.5027 181.229 18.8693 180.462 13.8046L185.322 0H184.344L180.132 11.967C179.558 9.45706 178.756 8.13487 177.943 8.13487C177.329 8.13487 176.715 8.8744 176.187 10.4207C174.885 14.2304 174.612 21.5361 175.578 26.668ZM176.528 12.2135C177.579 9.14332 179.074 10.0173 179.853 14.1632C180.638 18.3091 180.416 24.2029 179.364 27.2731C178.313 30.3657 176.818 29.4917 176.033 25.3458C175.254 21.2 175.476 15.3061 176.528 12.2135Z" fill="#075D46" fill-opacity="0.4"/>
<path d="M210.244 71.5106C211.216 76.6425 213.064 77.7182 214.371 73.9085C215.002 72.0485 215.411 69.3368 215.531 66.2667C215.645 63.1965 215.451 60.1487 214.979 57.6388C214.627 55.7563 214.144 54.3893 213.598 53.6274L215.161 28.9987L225.411 0H224.433L214.741 27.43L214.661 27.6541L213.047 53.0895C212.899 52.9999 212.751 52.9551 212.609 52.9551C211.978 52.9551 211.37 53.7394 210.858 55.2409C209.55 59.073 209.278 66.3563 210.244 71.5106ZM211.193 57.0337C211.705 55.5546 212.33 54.9272 212.961 55.2857C213.587 55.6667 214.144 56.9665 214.525 58.9834C214.9 61.0003 215.059 63.4654 214.968 65.9529C214.871 68.418 214.542 70.6142 214.03 72.0933C213.604 73.3483 213.109 73.9533 212.615 73.9533C211.887 73.9533 211.171 72.6311 210.704 70.166C209.92 66.0202 210.142 60.1263 211.193 57.0337Z" fill="#075D46" fill-opacity="0.4"/>
<path d="M241.567 445.737C242.033 448.225 242.721 449.838 243.5 450.309C244.273 450.757 245.058 449.995 245.689 448.135C246.32 446.275 246.735 443.586 246.848 440.515C246.951 437.804 246.797 435.137 246.445 432.851L268.786 367.459L271.219 309.954L320.023 172.311V169.555L270.793 308.408L270.702 308.677L268.263 366.204L246.115 431.014C245.541 428.526 244.739 427.181 243.926 427.181C243.318 427.181 242.704 427.943 242.175 429.467C241.544 431.327 241.129 434.039 241.016 437.109C240.902 440.179 241.095 443.249 241.567 445.737ZM241.578 437.423C241.669 434.958 242.005 432.762 242.511 431.282C243.568 428.19 245.058 429.064 245.842 433.21C246.223 435.227 246.376 437.692 246.285 440.179C246.194 442.644 245.859 444.841 245.347 446.342C244.932 447.552 244.444 448.18 243.938 448.18C243.818 448.18 243.699 448.157 243.585 448.09C242.954 447.709 242.403 446.409 242.022 444.392C241.641 442.376 241.488 439.91 241.578 437.423Z" fill="#075D46" fill-opacity="0.4"/>
</svg>
