<svg viewBox="0 0 256 714" fill="none" xmlns="http://www.w3.org/2000/svg">
<path d="M23.4348 0H0V300.696C3.55072 307.594 14.5478 325.226 30.1304 340.565C45.713 355.904 54.2754 339.246 56.6087 329C98.7304 134.704 52.0435 28.7101 23.4348 0Z" fill="#075D46"/>
<path d="M49.3044 376.174C38.1044 371.791 11.7681 342.899 0 329V504.609C10.713 490.487 37.3333 435.014 49.3044 409.043C59.7739 389.809 53.6667 379.116 49.3044 376.174Z" fill="#075D46"/>
<path d="M56.6087 421.826C49.3044 458.348 15.8261 511.101 0 532.913V714C11.5652 697.261 121.358 639.175 189 606C236.783 582.565 257.816 530 255 504.609C249 450.5 202.797 441.609 163.739 425.174C144 416.868 111.573 412.989 97.5 407C74 397 57.9275 410.565 56.6087 421.826Z" fill="#075D46"/>
<path d="M23.4348 0H0V300.696C3.55072 307.594 14.5478 325.226 30.1304 340.565C45.713 355.904 54.2754 339.246 56.6087 329C98.7304 134.704 52.0435 28.7101 23.4348 0Z" fill="#D9D9D9"/>
<path d="M49.3044 376.174C38.1044 371.791 11.7681 342.899 0 329V504.609C10.713 490.487 37.3333 435.015 49.3044 409.043C59.7739 389.809 53.6667 379.116 49.3044 376.174Z" fill="#D9D9D9"/>
<path d="M23.4348 0H0V300.696C3.55072 307.594 14.5478 325.226 30.1304 340.565C45.713 355.904 54.2754 339.246 56.6087 329C98.7304 134.704 52.0435 28.7101 23.4348 0Z" fill="#075D46"/>
<path d="M49.3043 376.174C38.1043 371.791 11.7681 342.899 0 329V504.609C10.713 490.487 37.3333 435.015 49.3043 409.043C59.7739 389.809 53.6667 379.116 49.3043 376.174Z" fill="#F42A40"/>
</svg>
