<svg width="269" height="714" viewBox="0 0 269 714" fill="none" xmlns="http://www.w3.org/2000/svg">
<path d="M190.195 266C195.658 269.824 245.057 283.756 269.073 290.244V714C221.609 711.268 144.097 656.634 130.78 612.244C120.127 576.732 145.236 382.78 159.122 290.244C160.488 255.073 183.366 261.22 190.195 266Z" fill="#F42A40"/>
<path d="M190.195 249.268C207.131 258.01 249.837 268.163 269.073 272.146V23.561C212.731 98.3415 190.195 188.488 180.634 217.512C172.985 240.732 183.821 248.358 190.195 249.268Z" fill="#F42A40"/>
<path d="M180.634 162.878C204.946 88.8488 249.723 23.4472 269.073 0H0C32.7805 17.7561 56 64.9919 63.5122 86.3902C63.5122 88.5528 66.8585 97.8634 80.2439 117.805C93.6293 137.746 131.122 161.171 148.195 170.39C172.234 185.961 179.837 171.87 180.634 162.878Z" fill="#F42A40"/>
<path d="M180.634 162.878C204.946 88.8488 249.723 23.4472 269.073 0H0C32.7805 17.7561 56 64.9919 63.5122 86.3902C63.5122 88.5528 66.8585 97.8634 80.2439 117.805C93.6293 137.746 131.122 161.171 148.195 170.39C172.234 185.961 179.837 171.87 180.634 162.878Z" fill="#F42A40"/>
<path d="M190.195 249.268C207.131 258.01 249.837 268.163 269.073 272.146V23.561C212.731 98.3415 190.195 188.488 180.634 217.512C172.985 240.732 183.821 248.358 190.195 249.268Z" fill="#075D46"/>
</svg>
